<svg xmlns="http://www.w3.org/2000/svg" xmlns:xlink="http://www.w3.org/1999/xlink" width="1920" zoomAndPan="magnify" viewBox="0 0 1440 817.92" height="1080" preserveAspectRatio="xMidYMid meet" version="1.2"><defs><clipPath id="45f07f0308"><path d="M 1138 203 L 1439.929688 203 L 1439.929688 570 L 1138 570 Z M 1138 203 "/></clipPath><clipPath id="eba30f5f7f"><path d="M 0.0703125 329.242188 L 1439.929688 329.242188 L 1439.929688 404.960938 L 0.0703125 404.960938 Z M 0.0703125 329.242188 "/></clipPath><clipPath id="a4f2284730"><path d="M 344.476562 329.242188 L 420.183594 329.242188 L 420.183594 404.945312 L 344.476562 404.945312 Z M 344.476562 329.242188 "/></clipPath><clipPath id="ebe24522a9"><path d="M 988.519531 329.242188 L 1064.226562 329.242188 L 1064.226562 404.945312 L 988.519531 404.945312 Z M 988.519531 329.242188 "/></clipPath></defs><g id="a88f760f9d"><g style="fill:#231f20;fill-opacity:1;"><g transform="translate(-4.897773, 563.411804)"><path style="stroke:none" d="M 28.375 -315.3125 C 28.375 -327.082031 26.796875 -336.382812 23.640625 -343.21875 C 20.492188 -350.050781 15.238281 -354.410156 7.875 -356.296875 L 7.875 -359.453125 L 149.765625 -359.453125 L 149.765625 -356.296875 C 142.410156 -354.410156 137.15625 -350.050781 134 -343.21875 C 130.851562 -336.382812 129.28125 -327.082031 129.28125 -315.3125 L 129.28125 -227.65625 C 132.644531 -230.8125 137.003906 -235.117188 142.359375 -240.578125 C 147.722656 -246.046875 153.398438 -252.085938 159.390625 -258.703125 C 165.378906 -265.328125 171 -272.316406 176.25 -279.671875 C 181.507812 -287.035156 185.820312 -294.238281 189.1875 -301.28125 C 192.550781 -308.320312 194.234375 -314.890625 194.234375 -320.984375 C 194.234375 -329.390625 193.128906 -335.90625 190.921875 -340.53125 C 188.710938 -345.15625 185.660156 -348.625 181.765625 -350.9375 C 177.878906 -353.25 173.414062 -355.035156 168.375 -356.296875 L 168.375 -359.453125 L 310.265625 -359.453125 L 310.265625 -356.296875 C 301.859375 -354.203125 291.976562 -349.578125 280.625 -342.421875 C 269.269531 -335.273438 257.179688 -326.65625 244.359375 -316.5625 C 231.546875 -306.476562 218.671875 -295.863281 205.734375 -284.71875 C 192.804688 -273.582031 180.457031 -262.8125 168.6875 -252.40625 C 156.914062 -242 146.40625 -232.910156 137.15625 -225.140625 C 146.40625 -226.398438 154.921875 -227.03125 162.703125 -227.03125 C 179.941406 -227.03125 194.394531 -224.398438 206.0625 -219.140625 C 217.726562 -213.890625 227.34375 -206.742188 234.90625 -197.703125 C 242.476562 -188.660156 248.628906 -178.410156 253.359375 -166.953125 C 258.085938 -155.492188 261.921875 -143.457031 264.859375 -130.84375 C 267.804688 -118.238281 270.488281 -105.835938 272.90625 -93.640625 C 275.320312 -81.453125 278.050781 -70.050781 281.09375 -59.4375 C 284.144531 -48.820312 288.191406 -39.726562 293.234375 -32.15625 C 298.285156 -24.59375 304.910156 -19.335938 313.109375 -16.390625 C 313.109375 -16.390625 312.421875 -15.285156 311.046875 -13.078125 C 309.679688 -10.878906 307.265625 -8.253906 303.796875 -5.203125 C 300.328125 -2.148438 295.441406 0.472656 289.140625 2.671875 C 282.835938 4.878906 274.742188 5.984375 264.859375 5.984375 C 246.992188 5.984375 232.125 3.460938 220.25 -1.578125 C 208.375 -6.617188 198.804688 -13.445312 191.546875 -22.0625 C 184.296875 -30.6875 178.78125 -40.566406 175 -51.703125 C 171.21875 -62.847656 168.585938 -74.566406 167.109375 -86.859375 C 165.640625 -99.160156 164.640625 -111.507812 164.109375 -123.90625 C 163.585938 -136.3125 163.007812 -148.082031 162.375 -159.21875 C 161.75 -170.363281 160.4375 -180.351562 158.4375 -189.1875 C 156.445312 -198.019531 153.191406 -204.957031 148.671875 -210 C 144.148438 -215.039062 137.6875 -217.664062 129.28125 -217.875 L 129.28125 -44.140625 C 129.28125 -32.578125 130.851562 -23.328125 134 -16.390625 C 137.15625 -9.453125 142.410156 -5.039062 149.765625 -3.15625 L 149.765625 0 L 7.875 0 L 7.875 -3.15625 C 15.238281 -5.039062 20.492188 -9.453125 23.640625 -16.390625 C 26.796875 -23.328125 28.375 -32.578125 28.375 -44.140625 Z M 28.375 -315.3125 "/></g></g><g style="fill:#231f20;fill-opacity:1;"><g transform="translate(306.624489, 563.411804)"><path style="stroke:none" d="M 260.765625 0 L 7.875 0 L 7.875 -3.15625 C 15.238281 -5.039062 20.492188 -9.453125 23.640625 -16.390625 C 26.796875 -23.328125 28.375 -32.578125 28.375 -44.140625 L 28.375 -315.3125 C 28.375 -327.082031 26.796875 -336.382812 23.640625 -343.21875 C 20.492188 -350.050781 15.238281 -354.410156 7.875 -356.296875 L 7.875 -359.453125 L 260.765625 -359.453125 L 260.765625 -250.984375 L 257.609375 -250.984375 C 257.609375 -257.921875 255.875 -265.800781 252.40625 -274.625 C 248.9375 -283.457031 243.941406 -292.5 237.421875 -301.75 C 230.910156 -311 223.238281 -319.457031 214.40625 -327.125 C 205.582031 -334.800781 195.703125 -341.054688 184.765625 -345.890625 C 173.835938 -350.734375 162.171875 -353.15625 149.765625 -353.15625 L 129.28125 -353.15625 L 129.28125 -195.171875 L 141.578125 -195.171875 C 149.347656 -195.171875 157.28125 -196.800781 165.375 -200.0625 C 173.46875 -203.320312 181.035156 -207.523438 188.078125 -212.671875 C 195.117188 -217.828125 201.003906 -223.554688 205.734375 -229.859375 C 210.460938 -236.171875 213.351562 -242.269531 214.40625 -248.15625 L 217.5625 -248.15625 L 217.5625 -135.90625 L 214.40625 -135.90625 C 213.351562 -142 210.460938 -148.144531 205.734375 -154.34375 C 201.003906 -160.539062 195.117188 -166.210938 188.078125 -171.359375 C 181.035156 -176.515625 173.46875 -180.722656 165.375 -183.984375 C 157.28125 -187.242188 149.347656 -188.875 141.578125 -188.875 L 129.28125 -188.875 L 129.28125 -6.3125 L 149.765625 -6.3125 C 162.171875 -6.3125 173.835938 -8.726562 184.765625 -13.5625 C 195.703125 -18.394531 205.582031 -24.644531 214.40625 -32.3125 C 223.238281 -39.988281 230.910156 -48.453125 237.421875 -57.703125 C 243.941406 -66.953125 248.9375 -75.988281 252.40625 -84.8125 C 255.875 -93.644531 257.609375 -101.53125 257.609375 -108.46875 L 260.765625 -108.46875 Z M 260.765625 0 "/></g></g><g style="fill:#231f20;fill-opacity:1;"><g transform="translate(565.805953, 563.411804)"><path style="stroke:none" d="M 7.875 -359.453125 L 149.765625 -359.453125 L 149.765625 -356.296875 C 142.410156 -354.410156 137.15625 -350.050781 134 -343.21875 C 130.851562 -336.382812 129.28125 -327.082031 129.28125 -315.3125 L 129.28125 -6.3125 L 147.5625 -6.3125 C 159.96875 -6.3125 171.632812 -8.726562 182.5625 -13.5625 C 193.5 -18.394531 203.378906 -24.644531 212.203125 -32.3125 C 221.035156 -39.988281 228.707031 -48.453125 235.21875 -57.703125 C 241.738281 -66.953125 246.734375 -75.988281 250.203125 -84.8125 C 253.671875 -93.644531 255.40625 -101.53125 255.40625 -108.46875 L 258.5625 -108.46875 L 258.5625 0 L 7.875 0 L 7.875 -3.15625 C 15.238281 -5.039062 20.492188 -9.453125 23.640625 -16.390625 C 26.796875 -23.328125 28.375 -32.578125 28.375 -44.140625 L 28.375 -315.3125 C 28.375 -327.082031 26.796875 -336.382812 23.640625 -343.21875 C 20.492188 -350.050781 15.238281 -354.410156 7.875 -356.296875 Z M 7.875 -359.453125 "/></g></g><g style="fill:#231f20;fill-opacity:1;"><g transform="translate(822.78027, 563.411804)"><path style="stroke:none" d="M 0 0 L 0 -3.15625 C 3.988281 -3.15625 7.820312 -5.992188 11.5 -11.671875 C 15.1875 -17.347656 18.65625 -24.597656 21.90625 -33.421875 C 25.164062 -42.253906 28.160156 -51.609375 30.890625 -61.484375 C 33.628906 -71.367188 36.050781 -80.515625 38.15625 -88.921875 C 43.613281 -110.148438 48.601562 -129.75 53.125 -147.71875 C 57.644531 -165.695312 61.953125 -182.9375 66.046875 -199.4375 C 70.148438 -215.9375 74.25 -232.4375 78.34375 -248.9375 C 82.445312 -265.4375 86.8125 -282.722656 91.4375 -300.796875 C 96.0625 -318.878906 101.003906 -338.429688 106.265625 -359.453125 L 210.625 -359.453125 C 216.09375 -338.429688 221.085938 -318.878906 225.609375 -300.796875 C 230.128906 -282.722656 234.488281 -265.4375 238.6875 -248.9375 C 242.894531 -232.4375 247.097656 -215.9375 251.296875 -199.4375 C 255.503906 -182.9375 259.816406 -165.695312 264.234375 -147.71875 C 268.648438 -129.75 273.484375 -110.148438 278.734375 -88.921875 C 280.835938 -80.515625 283.253906 -71.367188 285.984375 -61.484375 C 288.722656 -51.609375 291.71875 -42.253906 294.96875 -33.421875 C 298.226562 -24.597656 301.695312 -17.347656 305.375 -11.671875 C 309.050781 -5.992188 312.890625 -3.15625 316.890625 -3.15625 L 316.890625 0 L 158.609375 0 L 158.609375 -3.15625 C 166.378906 -9.039062 171.367188 -17.550781 173.578125 -28.6875 C 175.785156 -39.832031 176.3125 -52.5 175.15625 -66.6875 C 174 -80.875 171.84375 -95.328125 168.6875 -110.046875 L 79.78125 -110.046875 C 81.875 -85.660156 86.753906 -64.425781 94.421875 -46.34375 C 102.097656 -28.269531 113.296875 -13.875 128.015625 -3.15625 L 128.015625 0 Z M 109.09375 -348.734375 C 98.582031 -302.703125 90.539062 -260.132812 84.96875 -221.03125 C 79.40625 -181.9375 77.566406 -147.039062 79.453125 -116.34375 L 167.4375 -116.34375 C 165.539062 -124.539062 163.59375 -132.582031 161.59375 -140.46875 C 159.601562 -148.351562 157.765625 -155.867188 156.078125 -163.015625 C 152.296875 -177.734375 148.929688 -190.867188 145.984375 -202.421875 C 143.046875 -213.984375 140.257812 -224.96875 137.625 -235.375 C 135 -245.78125 132.320312 -256.445312 129.59375 -267.375 C 126.863281 -278.3125 123.867188 -290.296875 120.609375 -303.328125 C 117.347656 -316.359375 113.507812 -331.492188 109.09375 -348.734375 Z M 109.09375 -348.734375 "/></g></g><g clip-rule="nonzero" clip-path="url(#45f07f0308)"><g style="fill:#231f20;fill-opacity:1;"><g transform="translate(1130.203494, 563.411804)"><path style="stroke:none" d="M 7.875 -356.296875 L 7.875 -359.453125 L 189.8125 -359.453125 C 211.257812 -359.453125 229.128906 -355.71875 243.421875 -348.25 C 257.710938 -340.789062 268.429688 -330.859375 275.578125 -318.453125 C 282.722656 -306.054688 286.296875 -292.394531 286.296875 -277.46875 C 286.296875 -261.914062 283.40625 -248.988281 277.625 -238.6875 C 271.851562 -228.382812 263.816406 -220.289062 253.515625 -214.40625 C 243.210938 -208.519531 231.28125 -204.316406 217.71875 -201.796875 C 204.164062 -199.273438 189.503906 -198.015625 173.734375 -198.015625 C 191.816406 -194.234375 206.582031 -188.503906 218.03125 -180.828125 C 229.488281 -173.160156 238.6875 -164.226562 245.625 -154.03125 C 252.5625 -143.832031 257.972656 -133.003906 261.859375 -121.546875 C 265.753906 -110.097656 268.960938 -98.644531 271.484375 -87.1875 C 274.003906 -75.726562 276.679688 -65.003906 279.515625 -55.015625 C 282.359375 -45.035156 286.25 -36.363281 291.1875 -29 C 296.125 -21.644531 302.90625 -16.394531 311.53125 -13.25 C 311.53125 -13.25 310.84375 -12.300781 309.46875 -10.40625 C 308.101562 -8.507812 305.6875 -6.25 302.21875 -3.625 C 298.757812 -1 293.875 1.253906 287.5625 3.140625 C 281.257812 5.035156 273.164062 5.984375 263.28125 5.984375 C 243.519531 5.984375 227.382812 3.148438 214.875 -2.515625 C 202.375 -8.191406 192.707031 -15.8125 185.875 -25.375 C 179.039062 -34.945312 174.148438 -45.671875 171.203125 -57.546875 C 168.265625 -69.421875 166.375 -81.769531 165.53125 -94.59375 C 164.695312 -107.414062 164.066406 -119.765625 163.640625 -131.640625 C 163.222656 -143.515625 162.171875 -154.234375 160.484375 -163.796875 C 158.804688 -173.367188 155.601562 -180.988281 150.875 -186.65625 C 146.144531 -192.332031 138.945312 -195.171875 129.28125 -195.171875 L 129.28125 -44.140625 C 129.28125 -32.578125 130.851562 -23.328125 134 -16.390625 C 137.15625 -9.453125 142.410156 -5.039062 149.765625 -3.15625 L 149.765625 0 L 7.875 0 L 7.875 -3.15625 C 15.238281 -5.039062 20.492188 -9.453125 23.640625 -16.390625 C 26.796875 -23.328125 28.375 -32.578125 28.375 -44.140625 L 28.375 -315.3125 C 28.375 -327.082031 26.796875 -336.382812 23.640625 -343.21875 C 20.492188 -350.050781 15.238281 -354.410156 7.875 -356.296875 Z M 135.578125 -355.359375 L 129.28125 -355.359375 L 129.28125 -201.484375 L 140.625 -201.484375 C 148.613281 -201.484375 156.023438 -203.898438 162.859375 -208.734375 C 169.691406 -213.566406 175.15625 -221.765625 179.25 -233.328125 C 183.351562 -244.890625 185.40625 -260.757812 185.40625 -280.9375 C 185.40625 -293.757812 183.929688 -305.847656 180.984375 -317.203125 C 178.046875 -328.554688 173.003906 -337.753906 165.859375 -344.796875 C 158.710938 -351.835938 148.617188 -355.359375 135.578125 -355.359375 Z M 135.578125 -355.359375 "/></g></g></g><g clip-rule="nonzero" clip-path="url(#eba30f5f7f)"><path style=" stroke:none;fill-rule:nonzero;fill:#ffffff;fill-opacity:1;" d="M 0.0703125 329.242188 L 1439.917969 329.242188 L 1439.917969 404.960938 L 0.0703125 404.960938 Z M 0.0703125 329.242188 "/></g><g style="fill:#231f20;fill-opacity:1;"><g transform="translate(504.634901, 354.784291)"><path style="stroke:none" d="M 0.09375 -1.609375 C 0.5 -1.609375 0.835938 -1.722656 1.109375 -1.953125 C 1.378906 -2.179688 1.59375 -2.460938 1.75 -2.796875 C 1.90625 -3.128906 2.097656 -3.613281 2.328125 -4.25 L 6.859375 -16.703125 L 8.484375 -16.703125 L 13.453125 -4.03125 C 13.578125 -3.71875 13.707031 -3.332031 13.84375 -2.875 C 13.976562 -2.414062 14.0625 -2.03125 14.09375 -1.71875 C 14.601562 -1.769531 15.054688 -1.796875 15.453125 -1.796875 L 15.453125 0 L 9.1875 0 L 9.1875 -1.53125 C 9.9375 -1.53125 10.3125 -1.84375 10.3125 -2.46875 C 10.3125 -2.78125 10.222656 -3.148438 10.046875 -3.578125 L 9.578125 -4.859375 L 4.53125 -4.765625 L 4.171875 -3.671875 C 4.117188 -3.546875 4.007812 -3.265625 3.84375 -2.828125 C 3.6875 -2.398438 3.546875 -2.054688 3.421875 -1.796875 C 3.921875 -1.835938 4.472656 -1.859375 5.078125 -1.859375 L 5.078125 0 L 0.09375 0 Z M 9 -6.515625 L 7.9375 -9.421875 C 7.488281 -10.691406 7.191406 -11.753906 7.046875 -12.609375 L 7.03125 -12.609375 C 6.78125 -11.492188 6.492188 -10.46875 6.171875 -9.53125 L 5.125 -6.515625 Z M 9 -6.515625 "/></g></g><g style="fill:#231f20;fill-opacity:1;"><g transform="translate(520.178916, 354.784291)"><path style="stroke:none" d=""/></g></g><g style="fill:#231f20;fill-opacity:1;"><g transform="translate(526.298791, 354.784291)"><path style="stroke:none" d="M 7.140625 0.375 C 6.503906 0.375 5.828125 0.269531 5.109375 0.0625 C 4.390625 -0.132812 3.726562 -0.410156 3.125 -0.765625 L 3.09375 -0.765625 L 3.171875 0.203125 L 1.375 0.203125 L 1.375 -5.234375 L 2.90625 -5.234375 C 3.101562 -3.960938 3.585938 -2.988281 4.359375 -2.3125 C 5.140625 -1.632812 6.09375 -1.296875 7.21875 -1.296875 C 8.019531 -1.296875 8.679688 -1.507812 9.203125 -1.9375 C 9.734375 -2.363281 10 -2.878906 10 -3.484375 C 10 -3.984375 9.820312 -4.410156 9.46875 -4.765625 C 9.125 -5.117188 8.738281 -5.394531 8.3125 -5.59375 C 7.882812 -5.800781 7.207031 -6.09375 6.28125 -6.46875 C 4.570312 -7.144531 3.265625 -7.914062 2.359375 -8.78125 C 1.453125 -9.65625 1 -10.800781 1 -12.21875 C 1 -12.925781 1.175781 -13.617188 1.53125 -14.296875 C 1.894531 -14.972656 2.484375 -15.535156 3.296875 -15.984375 C 4.109375 -16.429688 5.15625 -16.65625 6.4375 -16.65625 C 7.101562 -16.65625 7.800781 -16.554688 8.53125 -16.359375 C 9.257812 -16.171875 9.867188 -15.898438 10.359375 -15.546875 L 10.375 -15.546875 L 10.28125 -16.5 L 12.09375 -16.5 L 12.09375 -11.078125 L 10.5625 -11.078125 C 10.363281 -12.347656 9.914062 -13.316406 9.21875 -13.984375 C 8.53125 -14.648438 7.648438 -14.984375 6.578125 -14.984375 C 5.878906 -14.984375 5.28125 -14.789062 4.78125 -14.40625 C 4.28125 -14.03125 4.03125 -13.554688 4.03125 -12.984375 C 4.03125 -12.296875 4.316406 -11.71875 4.890625 -11.25 C 5.460938 -10.789062 6.429688 -10.28125 7.796875 -9.71875 C 9.359375 -9.101562 10.628906 -8.382812 11.609375 -7.5625 C 12.597656 -6.75 13.09375 -5.671875 13.09375 -4.328125 C 13.09375 -3.410156 12.84375 -2.59375 12.34375 -1.875 C 11.851562 -1.164062 11.15625 -0.613281 10.25 -0.21875 C 9.351562 0.175781 8.316406 0.375 7.140625 0.375 Z M 7.140625 0.375 "/></g></g><g style="fill:#231f20;fill-opacity:1;"><g transform="translate(540.213959, 354.784291)"><path style="stroke:none" d="M 6.34375 -7.421875 C 6.113281 -7.960938 5.835938 -8.722656 5.515625 -9.703125 C 5.203125 -10.679688 4.9375 -11.675781 4.71875 -12.6875 L 4.703125 -12.6875 C 4.742188 -11.269531 4.765625 -9.976562 4.765625 -8.8125 L 4.765625 -8.03125 L 4.75 -3.8125 C 4.75 -2.851562 4.707031 -2.15625 4.625 -1.71875 C 5.132812 -1.769531 5.722656 -1.796875 6.390625 -1.796875 L 6.390625 0 L 1.09375 0 L 1.09375 -1.53125 C 1.507812 -1.550781 1.828125 -1.601562 2.046875 -1.6875 C 2.265625 -1.769531 2.4375 -1.953125 2.5625 -2.234375 C 2.6875 -2.515625 2.75 -2.957031 2.75 -3.5625 L 2.890625 -12.46875 C 2.921875 -13.601562 2.953125 -14.300781 2.984375 -14.5625 L 1.234375 -14.5 L 1.234375 -16.28125 L 6.375 -16.28125 L 9.890625 -7.28125 C 10.117188 -6.675781 10.363281 -6.007812 10.625 -5.28125 C 10.894531 -4.550781 11.082031 -3.992188 11.1875 -3.609375 L 11.21875 -3.609375 C 11.28125 -3.765625 11.445312 -4.242188 11.71875 -5.046875 C 11.9375 -5.679688 12.132812 -6.222656 12.3125 -6.671875 L 15.90625 -16.28125 L 21.28125 -16.28125 L 21.28125 -14.75 C 20.863281 -14.738281 20.539062 -14.6875 20.3125 -14.59375 C 20.082031 -14.507812 19.90625 -14.328125 19.78125 -14.046875 C 19.65625 -13.773438 19.597656 -13.332031 19.609375 -12.71875 L 19.96875 -3.8125 C 20.007812 -3.019531 19.976562 -2.320312 19.875 -1.71875 C 20.382812 -1.769531 20.972656 -1.796875 21.640625 -1.796875 L 21.640625 0 L 15.171875 0 L 15.171875 -1.53125 C 15.585938 -1.550781 15.90625 -1.601562 16.125 -1.6875 C 16.351562 -1.769531 16.53125 -1.953125 16.65625 -2.234375 C 16.78125 -2.515625 16.835938 -2.957031 16.828125 -3.5625 L 16.640625 -8.484375 L 16.59375 -9.375 C 16.507812 -10.875 16.460938 -11.921875 16.453125 -12.515625 L 16.421875 -12.515625 L 11.65625 0.234375 L 9.5 0.234375 Z M 6.34375 -7.421875 "/></g></g><g style="fill:#231f20;fill-opacity:1;"><g transform="translate(562.8319, 354.784291)"><path style="stroke:none" d="M 0.09375 -1.609375 C 0.5 -1.609375 0.835938 -1.722656 1.109375 -1.953125 C 1.378906 -2.179688 1.59375 -2.460938 1.75 -2.796875 C 1.90625 -3.128906 2.097656 -3.613281 2.328125 -4.25 L 6.859375 -16.703125 L 8.484375 -16.703125 L 13.453125 -4.03125 C 13.578125 -3.71875 13.707031 -3.332031 13.84375 -2.875 C 13.976562 -2.414062 14.0625 -2.03125 14.09375 -1.71875 C 14.601562 -1.769531 15.054688 -1.796875 15.453125 -1.796875 L 15.453125 0 L 9.1875 0 L 9.1875 -1.53125 C 9.9375 -1.53125 10.3125 -1.84375 10.3125 -2.46875 C 10.3125 -2.78125 10.222656 -3.148438 10.046875 -3.578125 L 9.578125 -4.859375 L 4.53125 -4.765625 L 4.171875 -3.671875 C 4.117188 -3.546875 4.007812 -3.265625 3.84375 -2.828125 C 3.6875 -2.398438 3.546875 -2.054688 3.421875 -1.796875 C 3.921875 -1.835938 4.472656 -1.859375 5.078125 -1.859375 L 5.078125 0 L 0.09375 0 Z M 9 -6.515625 L 7.9375 -9.421875 C 7.488281 -10.691406 7.191406 -11.753906 7.046875 -12.609375 L 7.03125 -12.609375 C 6.78125 -11.492188 6.492188 -10.46875 6.171875 -9.53125 L 5.125 -6.515625 Z M 9 -6.515625 "/></g></g><g style="fill:#231f20;fill-opacity:1;"><g transform="translate(578.375915, 354.784291)"><path style="stroke:none" d="M 1.15625 -1.53125 C 1.582031 -1.550781 1.898438 -1.601562 2.109375 -1.6875 C 2.328125 -1.769531 2.5 -1.953125 2.625 -2.234375 C 2.75 -2.515625 2.8125 -2.957031 2.8125 -3.5625 L 2.8125 -12.46875 C 2.8125 -13.332031 2.84375 -14.03125 2.90625 -14.5625 L 1.15625 -14.5 L 1.15625 -16.28125 L 7.765625 -16.328125 C 9.890625 -16.347656 11.53125 -15.976562 12.6875 -15.21875 C 13.84375 -14.457031 14.421875 -13.222656 14.421875 -11.515625 C 14.421875 -10.441406 14.078125 -9.488281 13.390625 -8.65625 C 12.703125 -7.832031 11.679688 -7.226562 10.328125 -6.84375 L 10.328125 -6.8125 C 10.609375 -6.707031 10.894531 -6.519531 11.1875 -6.25 C 11.476562 -5.976562 11.726562 -5.675781 11.9375 -5.34375 L 13.03125 -3.71875 C 13.550781 -2.894531 13.984375 -2.328125 14.328125 -2.015625 C 14.679688 -1.710938 15.117188 -1.550781 15.640625 -1.53125 L 15.640625 0 L 11.796875 0 C 11.535156 -0.1875 11.269531 -0.453125 11 -0.796875 C 10.738281 -1.148438 10.4375 -1.613281 10.09375 -2.1875 L 8.375 -4.984375 C 7.988281 -5.597656 7.664062 -6.046875 7.40625 -6.328125 L 6.1875 -6.328125 L 6.1875 -3.84375 C 6.1875 -2.957031 6.15625 -2.25 6.09375 -1.71875 C 6.59375 -1.769531 7.253906 -1.796875 8.078125 -1.796875 L 8.078125 0 L 1.15625 0 Z M 7.3125 -8 C 8.582031 -8 9.5 -8.28125 10.0625 -8.84375 C 10.625 -9.414062 10.90625 -10.304688 10.90625 -11.515625 C 10.90625 -12.804688 10.578125 -13.660156 9.921875 -14.078125 C 9.265625 -14.492188 8.539062 -14.703125 7.75 -14.703125 C 7.207031 -14.703125 6.8125 -14.582031 6.5625 -14.34375 C 6.3125 -14.113281 6.1875 -13.617188 6.1875 -12.859375 L 6.1875 -8.09375 C 6.65625 -8.03125 7.03125 -8 7.3125 -8 Z M 7.3125 -8 "/></g></g><g style="fill:#231f20;fill-opacity:1;"><g transform="translate(594.338784, 354.784291)"><path style="stroke:none" d="M 4.1875 -1.53125 C 4.601562 -1.550781 4.921875 -1.601562 5.140625 -1.6875 C 5.359375 -1.769531 5.53125 -1.953125 5.65625 -2.234375 C 5.78125 -2.515625 5.84375 -2.957031 5.84375 -3.5625 L 5.84375 -14.703125 L 4.765625 -14.703125 C 3.847656 -14.691406 3.140625 -14.378906 2.640625 -13.765625 C 2.148438 -13.160156 1.90625 -12.25 1.90625 -11.03125 L 0.375 -11.03125 L 0.484375 -16.28125 L 14.59375 -16.28125 L 14.734375 -11.03125 L 13.1875 -11.03125 C 13.1875 -12.25 12.929688 -13.171875 12.421875 -13.796875 C 11.921875 -14.429688 11.222656 -14.742188 10.328125 -14.734375 L 9.21875 -14.734375 L 9.21875 -3.8125 C 9.21875 -2.769531 9.1875 -2.070312 9.125 -1.71875 C 9.632812 -1.769531 10.253906 -1.796875 10.984375 -1.796875 L 10.984375 0 L 4.1875 0 Z M 4.1875 -1.53125 "/></g></g><g style="fill:#231f20;fill-opacity:1;"><g transform="translate(609.463944, 354.784291)"><path style="stroke:none" d=""/></g></g><g style="fill:#231f20;fill-opacity:1;"><g transform="translate(615.583819, 354.784291)"><path style="stroke:none" d="M 2.09375 -12.359375 C 1.65625 -13.378906 1.4375 -14.113281 1.4375 -14.5625 L 0.1875 -14.5 L 0.1875 -16.28125 L 7.046875 -16.28125 L 7.046875 -14.75 C 6.023438 -14.78125 5.515625 -14.453125 5.515625 -13.765625 C 5.515625 -13.523438 5.578125 -13.253906 5.703125 -12.953125 L 7.84375 -7.703125 C 8.03125 -7.265625 8.257812 -6.691406 8.53125 -5.984375 C 8.625 -5.734375 8.835938 -5.195312 9.171875 -4.375 L 9.1875 -4.375 L 10.3125 -7.578125 L 12.078125 -12.453125 C 12.421875 -13.515625 12.738281 -14.21875 13.03125 -14.5625 L 13.03125 -14.59375 L 11.8125 -14.515625 L 11.234375 -14.5 L 11.234375 -16.28125 L 16.46875 -16.28125 L 16.46875 -14.75 C 15.925781 -14.71875 15.460938 -14.507812 15.078125 -14.125 C 14.691406 -13.75 14.332031 -13.128906 14 -12.265625 L 9.359375 0.140625 L 7.4375 0.140625 Z M 2.09375 -12.359375 "/></g></g><g style="fill:#231f20;fill-opacity:1;"><g transform="translate(632.058628, 354.784291)"><path style="stroke:none" d="M 1.15625 -1.53125 C 1.582031 -1.550781 1.898438 -1.601562 2.109375 -1.6875 C 2.328125 -1.769531 2.5 -1.953125 2.625 -2.234375 C 2.75 -2.515625 2.8125 -2.957031 2.8125 -3.5625 L 2.8125 -12.46875 C 2.8125 -13.332031 2.84375 -14.03125 2.90625 -14.5625 L 1.15625 -14.5 L 1.15625 -16.28125 L 7.84375 -16.28125 L 7.84375 -14.75 C 7.425781 -14.738281 7.109375 -14.6875 6.890625 -14.59375 C 6.671875 -14.507812 6.5 -14.328125 6.375 -14.046875 C 6.25 -13.773438 6.1875 -13.332031 6.1875 -12.71875 L 6.1875 -3.8125 C 6.1875 -2.945312 6.15625 -2.25 6.09375 -1.71875 C 6.59375 -1.769531 7.175781 -1.796875 7.84375 -1.796875 L 7.84375 0 L 1.15625 0 Z M 1.15625 -1.53125 "/></g></g><g style="fill:#231f20;fill-opacity:1;"><g transform="translate(641.063913, 354.784291)"><path style="stroke:none" d="M 1.15625 -1.53125 C 1.582031 -1.550781 1.898438 -1.601562 2.109375 -1.6875 C 2.328125 -1.769531 2.5 -1.953125 2.625 -2.234375 C 2.75 -2.515625 2.8125 -2.957031 2.8125 -3.5625 L 2.8125 -12.46875 C 2.8125 -13.332031 2.84375 -14.03125 2.90625 -14.5625 L 1.15625 -14.5 L 1.15625 -16.28125 L 7.765625 -16.328125 C 9.890625 -16.347656 11.53125 -15.976562 12.6875 -15.21875 C 13.84375 -14.457031 14.421875 -13.222656 14.421875 -11.515625 C 14.421875 -10.441406 14.078125 -9.488281 13.390625 -8.65625 C 12.703125 -7.832031 11.679688 -7.226562 10.328125 -6.84375 L 10.328125 -6.8125 C 10.609375 -6.707031 10.894531 -6.519531 11.1875 -6.25 C 11.476562 -5.976562 11.726562 -5.675781 11.9375 -5.34375 L 13.03125 -3.71875 C 13.550781 -2.894531 13.984375 -2.328125 14.328125 -2.015625 C 14.679688 -1.710938 15.117188 -1.550781 15.640625 -1.53125 L 15.640625 0 L 11.796875 0 C 11.535156 -0.1875 11.269531 -0.453125 11 -0.796875 C 10.738281 -1.148438 10.4375 -1.613281 10.09375 -2.1875 L 8.375 -4.984375 C 7.988281 -5.597656 7.664062 -6.046875 7.40625 -6.328125 L 6.1875 -6.328125 L 6.1875 -3.84375 C 6.1875 -2.957031 6.15625 -2.25 6.09375 -1.71875 C 6.59375 -1.769531 7.253906 -1.796875 8.078125 -1.796875 L 8.078125 0 L 1.15625 0 Z M 7.3125 -8 C 8.582031 -8 9.5 -8.28125 10.0625 -8.84375 C 10.625 -9.414062 10.90625 -10.304688 10.90625 -11.515625 C 10.90625 -12.804688 10.578125 -13.660156 9.921875 -14.078125 C 9.265625 -14.492188 8.539062 -14.703125 7.75 -14.703125 C 7.207031 -14.703125 6.8125 -14.582031 6.5625 -14.34375 C 6.3125 -14.113281 6.1875 -13.617188 6.1875 -12.859375 L 6.1875 -8.09375 C 6.65625 -8.03125 7.03125 -8 7.3125 -8 Z M 7.3125 -8 "/></g></g><g style="fill:#231f20;fill-opacity:1;"><g transform="translate(657.026782, 354.784291)"><path style="stroke:none" d="M 4.1875 -1.53125 C 4.601562 -1.550781 4.921875 -1.601562 5.140625 -1.6875 C 5.359375 -1.769531 5.53125 -1.953125 5.65625 -2.234375 C 5.78125 -2.515625 5.84375 -2.957031 5.84375 -3.5625 L 5.84375 -14.703125 L 4.765625 -14.703125 C 3.847656 -14.691406 3.140625 -14.378906 2.640625 -13.765625 C 2.148438 -13.160156 1.90625 -12.25 1.90625 -11.03125 L 0.375 -11.03125 L 0.484375 -16.28125 L 14.59375 -16.28125 L 14.734375 -11.03125 L 13.1875 -11.03125 C 13.1875 -12.25 12.929688 -13.171875 12.421875 -13.796875 C 11.921875 -14.429688 11.222656 -14.742188 10.328125 -14.734375 L 9.21875 -14.734375 L 9.21875 -3.8125 C 9.21875 -2.769531 9.1875 -2.070312 9.125 -1.71875 C 9.632812 -1.769531 10.253906 -1.796875 10.984375 -1.796875 L 10.984375 0 L 4.1875 0 Z M 4.1875 -1.53125 "/></g></g><g style="fill:#231f20;fill-opacity:1;"><g transform="translate(672.151942, 354.784291)"><path style="stroke:none" d="M 8.953125 0.375 C 6.515625 0.375 4.785156 -0.269531 3.765625 -1.5625 C 2.753906 -2.863281 2.25 -4.625 2.25 -6.84375 L 2.25 -12.46875 C 2.25 -13.332031 2.28125 -14.03125 2.34375 -14.5625 L 0.609375 -14.5 L 0.609375 -16.28125 L 7.28125 -16.28125 L 7.28125 -14.75 C 6.875 -14.738281 6.554688 -14.6875 6.328125 -14.59375 C 6.109375 -14.507812 5.9375 -14.328125 5.8125 -14.046875 C 5.6875 -13.773438 5.625 -13.332031 5.625 -12.71875 L 5.625 -6.328125 C 5.625 -3.035156 6.925781 -1.390625 9.53125 -1.390625 C 10.757812 -1.390625 11.710938 -1.804688 12.390625 -2.640625 C 13.066406 -3.484375 13.40625 -4.726562 13.40625 -6.375 L 13.40625 -12.46875 C 13.40625 -13.507812 13.4375 -14.207031 13.5 -14.5625 L 11.71875 -14.5 L 11.71875 -16.28125 L 17.125 -16.28125 L 17.125 -14.75 C 16.707031 -14.738281 16.390625 -14.6875 16.171875 -14.59375 C 15.953125 -14.507812 15.78125 -14.328125 15.65625 -14.046875 C 15.53125 -13.773438 15.46875 -13.332031 15.46875 -12.71875 L 15.46875 -6.90625 C 15.46875 -4.363281 14.878906 -2.515625 13.703125 -1.359375 C 12.535156 -0.203125 10.953125 0.375 8.953125 0.375 Z M 8.953125 0.375 "/></g></g><g style="fill:#231f20;fill-opacity:1;"><g transform="translate(689.836772, 354.784291)"><path style="stroke:none" d="M 0.09375 -1.609375 C 0.5 -1.609375 0.835938 -1.722656 1.109375 -1.953125 C 1.378906 -2.179688 1.59375 -2.460938 1.75 -2.796875 C 1.90625 -3.128906 2.097656 -3.613281 2.328125 -4.25 L 6.859375 -16.703125 L 8.484375 -16.703125 L 13.453125 -4.03125 C 13.578125 -3.71875 13.707031 -3.332031 13.84375 -2.875 C 13.976562 -2.414062 14.0625 -2.03125 14.09375 -1.71875 C 14.601562 -1.769531 15.054688 -1.796875 15.453125 -1.796875 L 15.453125 0 L 9.1875 0 L 9.1875 -1.53125 C 9.9375 -1.53125 10.3125 -1.84375 10.3125 -2.46875 C 10.3125 -2.78125 10.222656 -3.148438 10.046875 -3.578125 L 9.578125 -4.859375 L 4.53125 -4.765625 L 4.171875 -3.671875 C 4.117188 -3.546875 4.007812 -3.265625 3.84375 -2.828125 C 3.6875 -2.398438 3.546875 -2.054688 3.421875 -1.796875 C 3.921875 -1.835938 4.472656 -1.859375 5.078125 -1.859375 L 5.078125 0 L 0.09375 0 Z M 9 -6.515625 L 7.9375 -9.421875 C 7.488281 -10.691406 7.191406 -11.753906 7.046875 -12.609375 L 7.03125 -12.609375 C 6.78125 -11.492188 6.492188 -10.46875 6.171875 -9.53125 L 5.125 -6.515625 Z M 9 -6.515625 "/></g></g><g style="fill:#231f20;fill-opacity:1;"><g transform="translate(705.380787, 354.784291)"><path style="stroke:none" d="M 1.15625 -1.53125 C 1.582031 -1.550781 1.898438 -1.601562 2.109375 -1.6875 C 2.328125 -1.769531 2.5 -1.953125 2.625 -2.234375 C 2.75 -2.515625 2.8125 -2.957031 2.8125 -3.5625 L 2.8125 -12.46875 C 2.8125 -13.332031 2.84375 -14.03125 2.90625 -14.5625 L 1.15625 -14.5 L 1.15625 -16.28125 L 7.84375 -16.28125 L 7.84375 -14.75 C 7.425781 -14.738281 7.109375 -14.6875 6.890625 -14.59375 C 6.671875 -14.507812 6.5 -14.328125 6.375 -14.046875 C 6.25 -13.773438 6.1875 -13.332031 6.1875 -12.71875 L 6.1875 -3.8125 C 6.1875 -2.976562 6.15625 -2.296875 6.09375 -1.765625 L 9.21875 -1.765625 C 10.144531 -1.785156 10.863281 -2.113281 11.375 -2.75 C 11.882812 -3.394531 12.140625 -4.335938 12.140625 -5.578125 L 13.703125 -5.578125 L 13.5625 0 L 1.15625 0 Z M 1.15625 -1.53125 "/></g></g><g style="fill:#231f20;fill-opacity:1;"><g transform="translate(719.435554, 354.784291)"><path style="stroke:none" d=""/></g></g><g style="fill:#231f20;fill-opacity:1;"><g transform="translate(725.555429, 354.784291)"><path style="stroke:none" d="M 0.09375 -1.609375 C 0.5 -1.609375 0.835938 -1.722656 1.109375 -1.953125 C 1.378906 -2.179688 1.59375 -2.460938 1.75 -2.796875 C 1.90625 -3.128906 2.097656 -3.613281 2.328125 -4.25 L 6.859375 -16.703125 L 8.484375 -16.703125 L 13.453125 -4.03125 C 13.578125 -3.71875 13.707031 -3.332031 13.84375 -2.875 C 13.976562 -2.414062 14.0625 -2.03125 14.09375 -1.71875 C 14.601562 -1.769531 15.054688 -1.796875 15.453125 -1.796875 L 15.453125 0 L 9.1875 0 L 9.1875 -1.53125 C 9.9375 -1.53125 10.3125 -1.84375 10.3125 -2.46875 C 10.3125 -2.78125 10.222656 -3.148438 10.046875 -3.578125 L 9.578125 -4.859375 L 4.53125 -4.765625 L 4.171875 -3.671875 C 4.117188 -3.546875 4.007812 -3.265625 3.84375 -2.828125 C 3.6875 -2.398438 3.546875 -2.054688 3.421875 -1.796875 C 3.921875 -1.835938 4.472656 -1.859375 5.078125 -1.859375 L 5.078125 0 L 0.09375 0 Z M 9 -6.515625 L 7.9375 -9.421875 C 7.488281 -10.691406 7.191406 -11.753906 7.046875 -12.609375 L 7.03125 -12.609375 C 6.78125 -11.492188 6.492188 -10.46875 6.171875 -9.53125 L 5.125 -6.515625 Z M 9 -6.515625 "/></g></g><g style="fill:#231f20;fill-opacity:1;"><g transform="translate(741.099443, 354.784291)"><path style="stroke:none" d="M 7.140625 0.375 C 6.503906 0.375 5.828125 0.269531 5.109375 0.0625 C 4.390625 -0.132812 3.726562 -0.410156 3.125 -0.765625 L 3.09375 -0.765625 L 3.171875 0.203125 L 1.375 0.203125 L 1.375 -5.234375 L 2.90625 -5.234375 C 3.101562 -3.960938 3.585938 -2.988281 4.359375 -2.3125 C 5.140625 -1.632812 6.09375 -1.296875 7.21875 -1.296875 C 8.019531 -1.296875 8.679688 -1.507812 9.203125 -1.9375 C 9.734375 -2.363281 10 -2.878906 10 -3.484375 C 10 -3.984375 9.820312 -4.410156 9.46875 -4.765625 C 9.125 -5.117188 8.738281 -5.394531 8.3125 -5.59375 C 7.882812 -5.800781 7.207031 -6.09375 6.28125 -6.46875 C 4.570312 -7.144531 3.265625 -7.914062 2.359375 -8.78125 C 1.453125 -9.65625 1 -10.800781 1 -12.21875 C 1 -12.925781 1.175781 -13.617188 1.53125 -14.296875 C 1.894531 -14.972656 2.484375 -15.535156 3.296875 -15.984375 C 4.109375 -16.429688 5.15625 -16.65625 6.4375 -16.65625 C 7.101562 -16.65625 7.800781 -16.554688 8.53125 -16.359375 C 9.257812 -16.171875 9.867188 -15.898438 10.359375 -15.546875 L 10.375 -15.546875 L 10.28125 -16.5 L 12.09375 -16.5 L 12.09375 -11.078125 L 10.5625 -11.078125 C 10.363281 -12.347656 9.914062 -13.316406 9.21875 -13.984375 C 8.53125 -14.648438 7.648438 -14.984375 6.578125 -14.984375 C 5.878906 -14.984375 5.28125 -14.789062 4.78125 -14.40625 C 4.28125 -14.03125 4.03125 -13.554688 4.03125 -12.984375 C 4.03125 -12.296875 4.316406 -11.71875 4.890625 -11.25 C 5.460938 -10.789062 6.429688 -10.28125 7.796875 -9.71875 C 9.359375 -9.101562 10.628906 -8.382812 11.609375 -7.5625 C 12.597656 -6.75 13.09375 -5.671875 13.09375 -4.328125 C 13.09375 -3.410156 12.84375 -2.59375 12.34375 -1.875 C 11.851562 -1.164062 11.15625 -0.613281 10.25 -0.21875 C 9.351562 0.175781 8.316406 0.375 7.140625 0.375 Z M 7.140625 0.375 "/></g></g><g style="fill:#231f20;fill-opacity:1;"><g transform="translate(755.014612, 354.784291)"><path style="stroke:none" d="M 7.140625 0.375 C 6.503906 0.375 5.828125 0.269531 5.109375 0.0625 C 4.390625 -0.132812 3.726562 -0.410156 3.125 -0.765625 L 3.09375 -0.765625 L 3.171875 0.203125 L 1.375 0.203125 L 1.375 -5.234375 L 2.90625 -5.234375 C 3.101562 -3.960938 3.585938 -2.988281 4.359375 -2.3125 C 5.140625 -1.632812 6.09375 -1.296875 7.21875 -1.296875 C 8.019531 -1.296875 8.679688 -1.507812 9.203125 -1.9375 C 9.734375 -2.363281 10 -2.878906 10 -3.484375 C 10 -3.984375 9.820312 -4.410156 9.46875 -4.765625 C 9.125 -5.117188 8.738281 -5.394531 8.3125 -5.59375 C 7.882812 -5.800781 7.207031 -6.09375 6.28125 -6.46875 C 4.570312 -7.144531 3.265625 -7.914062 2.359375 -8.78125 C 1.453125 -9.65625 1 -10.800781 1 -12.21875 C 1 -12.925781 1.175781 -13.617188 1.53125 -14.296875 C 1.894531 -14.972656 2.484375 -15.535156 3.296875 -15.984375 C 4.109375 -16.429688 5.15625 -16.65625 6.4375 -16.65625 C 7.101562 -16.65625 7.800781 -16.554688 8.53125 -16.359375 C 9.257812 -16.171875 9.867188 -15.898438 10.359375 -15.546875 L 10.375 -15.546875 L 10.28125 -16.5 L 12.09375 -16.5 L 12.09375 -11.078125 L 10.5625 -11.078125 C 10.363281 -12.347656 9.914062 -13.316406 9.21875 -13.984375 C 8.53125 -14.648438 7.648438 -14.984375 6.578125 -14.984375 C 5.878906 -14.984375 5.28125 -14.789062 4.78125 -14.40625 C 4.28125 -14.03125 4.03125 -13.554688 4.03125 -12.984375 C 4.03125 -12.296875 4.316406 -11.71875 4.890625 -11.25 C 5.460938 -10.789062 6.429688 -10.28125 7.796875 -9.71875 C 9.359375 -9.101562 10.628906 -8.382812 11.609375 -7.5625 C 12.597656 -6.75 13.09375 -5.671875 13.09375 -4.328125 C 13.09375 -3.410156 12.84375 -2.59375 12.34375 -1.875 C 11.851562 -1.164062 11.15625 -0.613281 10.25 -0.21875 C 9.351562 0.175781 8.316406 0.375 7.140625 0.375 Z M 7.140625 0.375 "/></g></g><g style="fill:#231f20;fill-opacity:1;"><g transform="translate(768.92978, 354.784291)"><path style="stroke:none" d="M 1.15625 -1.53125 C 1.582031 -1.550781 1.898438 -1.601562 2.109375 -1.6875 C 2.328125 -1.769531 2.5 -1.953125 2.625 -2.234375 C 2.75 -2.515625 2.8125 -2.957031 2.8125 -3.5625 L 2.8125 -12.46875 C 2.8125 -13.332031 2.84375 -14.03125 2.90625 -14.5625 L 1.15625 -14.5 L 1.15625 -16.28125 L 7.84375 -16.28125 L 7.84375 -14.75 C 7.425781 -14.738281 7.109375 -14.6875 6.890625 -14.59375 C 6.671875 -14.507812 6.5 -14.328125 6.375 -14.046875 C 6.25 -13.773438 6.1875 -13.332031 6.1875 -12.71875 L 6.1875 -3.8125 C 6.1875 -2.945312 6.15625 -2.25 6.09375 -1.71875 C 6.59375 -1.769531 7.175781 -1.796875 7.84375 -1.796875 L 7.84375 0 L 1.15625 0 Z M 1.15625 -1.53125 "/></g></g><g style="fill:#231f20;fill-opacity:1;"><g transform="translate(777.935065, 354.784291)"><path style="stroke:none" d="M 7.140625 0.375 C 6.503906 0.375 5.828125 0.269531 5.109375 0.0625 C 4.390625 -0.132812 3.726562 -0.410156 3.125 -0.765625 L 3.09375 -0.765625 L 3.171875 0.203125 L 1.375 0.203125 L 1.375 -5.234375 L 2.90625 -5.234375 C 3.101562 -3.960938 3.585938 -2.988281 4.359375 -2.3125 C 5.140625 -1.632812 6.09375 -1.296875 7.21875 -1.296875 C 8.019531 -1.296875 8.679688 -1.507812 9.203125 -1.9375 C 9.734375 -2.363281 10 -2.878906 10 -3.484375 C 10 -3.984375 9.820312 -4.410156 9.46875 -4.765625 C 9.125 -5.117188 8.738281 -5.394531 8.3125 -5.59375 C 7.882812 -5.800781 7.207031 -6.09375 6.28125 -6.46875 C 4.570312 -7.144531 3.265625 -7.914062 2.359375 -8.78125 C 1.453125 -9.65625 1 -10.800781 1 -12.21875 C 1 -12.925781 1.175781 -13.617188 1.53125 -14.296875 C 1.894531 -14.972656 2.484375 -15.535156 3.296875 -15.984375 C 4.109375 -16.429688 5.15625 -16.65625 6.4375 -16.65625 C 7.101562 -16.65625 7.800781 -16.554688 8.53125 -16.359375 C 9.257812 -16.171875 9.867188 -15.898438 10.359375 -15.546875 L 10.375 -15.546875 L 10.28125 -16.5 L 12.09375 -16.5 L 12.09375 -11.078125 L 10.5625 -11.078125 C 10.363281 -12.347656 9.914062 -13.316406 9.21875 -13.984375 C 8.53125 -14.648438 7.648438 -14.984375 6.578125 -14.984375 C 5.878906 -14.984375 5.28125 -14.789062 4.78125 -14.40625 C 4.28125 -14.03125 4.03125 -13.554688 4.03125 -12.984375 C 4.03125 -12.296875 4.316406 -11.71875 4.890625 -11.25 C 5.460938 -10.789062 6.429688 -10.28125 7.796875 -9.71875 C 9.359375 -9.101562 10.628906 -8.382812 11.609375 -7.5625 C 12.597656 -6.75 13.09375 -5.671875 13.09375 -4.328125 C 13.09375 -3.410156 12.84375 -2.59375 12.34375 -1.875 C 11.851562 -1.164062 11.15625 -0.613281 10.25 -0.21875 C 9.351562 0.175781 8.316406 0.375 7.140625 0.375 Z M 7.140625 0.375 "/></g></g><g style="fill:#231f20;fill-opacity:1;"><g transform="translate(791.850233, 354.784291)"><path style="stroke:none" d="M 4.1875 -1.53125 C 4.601562 -1.550781 4.921875 -1.601562 5.140625 -1.6875 C 5.359375 -1.769531 5.53125 -1.953125 5.65625 -2.234375 C 5.78125 -2.515625 5.84375 -2.957031 5.84375 -3.5625 L 5.84375 -14.703125 L 4.765625 -14.703125 C 3.847656 -14.691406 3.140625 -14.378906 2.640625 -13.765625 C 2.148438 -13.160156 1.90625 -12.25 1.90625 -11.03125 L 0.375 -11.03125 L 0.484375 -16.28125 L 14.59375 -16.28125 L 14.734375 -11.03125 L 13.1875 -11.03125 C 13.1875 -12.25 12.929688 -13.171875 12.421875 -13.796875 C 11.921875 -14.429688 11.222656 -14.742188 10.328125 -14.734375 L 9.21875 -14.734375 L 9.21875 -3.8125 C 9.21875 -2.769531 9.1875 -2.070312 9.125 -1.71875 C 9.632812 -1.769531 10.253906 -1.796875 10.984375 -1.796875 L 10.984375 0 L 4.1875 0 Z M 4.1875 -1.53125 "/></g></g><g style="fill:#231f20;fill-opacity:1;"><g transform="translate(806.975393, 354.784291)"><path style="stroke:none" d="M 0.09375 -1.609375 C 0.5 -1.609375 0.835938 -1.722656 1.109375 -1.953125 C 1.378906 -2.179688 1.59375 -2.460938 1.75 -2.796875 C 1.90625 -3.128906 2.097656 -3.613281 2.328125 -4.25 L 6.859375 -16.703125 L 8.484375 -16.703125 L 13.453125 -4.03125 C 13.578125 -3.71875 13.707031 -3.332031 13.84375 -2.875 C 13.976562 -2.414062 14.0625 -2.03125 14.09375 -1.71875 C 14.601562 -1.769531 15.054688 -1.796875 15.453125 -1.796875 L 15.453125 0 L 9.1875 0 L 9.1875 -1.53125 C 9.9375 -1.53125 10.3125 -1.84375 10.3125 -2.46875 C 10.3125 -2.78125 10.222656 -3.148438 10.046875 -3.578125 L 9.578125 -4.859375 L 4.53125 -4.765625 L 4.171875 -3.671875 C 4.117188 -3.546875 4.007812 -3.265625 3.84375 -2.828125 C 3.6875 -2.398438 3.546875 -2.054688 3.421875 -1.796875 C 3.921875 -1.835938 4.472656 -1.859375 5.078125 -1.859375 L 5.078125 0 L 0.09375 0 Z M 9 -6.515625 L 7.9375 -9.421875 C 7.488281 -10.691406 7.191406 -11.753906 7.046875 -12.609375 L 7.03125 -12.609375 C 6.78125 -11.492188 6.492188 -10.46875 6.171875 -9.53125 L 5.125 -6.515625 Z M 9 -6.515625 "/></g></g><g style="fill:#231f20;fill-opacity:1;"><g transform="translate(822.519408, 354.784291)"><path style="stroke:none" d="M 6.09375 -9.28125 C 5.707031 -9.78125 5.28125 -10.363281 4.8125 -11.03125 L 4.796875 -11.03125 L 4.84375 -3.8125 C 4.84375 -2.945312 4.8125 -2.25 4.75 -1.71875 C 5.238281 -1.769531 5.816406 -1.796875 6.484375 -1.796875 L 6.484375 0 L 1.1875 0 L 1.1875 -1.53125 C 1.601562 -1.550781 1.921875 -1.601562 2.140625 -1.6875 C 2.359375 -1.769531 2.53125 -1.953125 2.65625 -2.234375 C 2.78125 -2.515625 2.84375 -2.957031 2.84375 -3.5625 L 2.796875 -12.46875 C 2.796875 -13.507812 2.828125 -14.207031 2.890625 -14.5625 L 1.109375 -14.5 L 1.109375 -16.28125 L 4.765625 -16.28125 L 11.890625 -7.3125 C 12.535156 -6.457031 13.078125 -5.71875 13.515625 -5.09375 L 13.546875 -5.09375 L 13.546875 -12.46875 C 13.546875 -13.476562 13.566406 -14.175781 13.609375 -14.5625 L 11.859375 -14.5 L 11.859375 -16.28125 L 17.171875 -16.28125 L 17.171875 -14.75 C 16.753906 -14.738281 16.4375 -14.6875 16.21875 -14.59375 C 16 -14.507812 15.828125 -14.328125 15.703125 -14.046875 C 15.578125 -13.773438 15.515625 -13.332031 15.515625 -12.71875 L 15.515625 0.234375 L 13.546875 0.234375 Z M 6.09375 -9.28125 "/></g></g><g style="fill:#231f20;fill-opacity:1;"><g transform="translate(840.506721, 354.784291)"><path style="stroke:none" d="M 4.1875 -1.53125 C 4.601562 -1.550781 4.921875 -1.601562 5.140625 -1.6875 C 5.359375 -1.769531 5.53125 -1.953125 5.65625 -2.234375 C 5.78125 -2.515625 5.84375 -2.957031 5.84375 -3.5625 L 5.84375 -14.703125 L 4.765625 -14.703125 C 3.847656 -14.691406 3.140625 -14.378906 2.640625 -13.765625 C 2.148438 -13.160156 1.90625 -12.25 1.90625 -11.03125 L 0.375 -11.03125 L 0.484375 -16.28125 L 14.59375 -16.28125 L 14.734375 -11.03125 L 13.1875 -11.03125 C 13.1875 -12.25 12.929688 -13.171875 12.421875 -13.796875 C 11.921875 -14.429688 11.222656 -14.742188 10.328125 -14.734375 L 9.21875 -14.734375 L 9.21875 -3.8125 C 9.21875 -2.769531 9.1875 -2.070312 9.125 -1.71875 C 9.632812 -1.769531 10.253906 -1.796875 10.984375 -1.796875 L 10.984375 0 L 4.1875 0 Z M 4.1875 -1.53125 "/></g></g><g style="fill:#231f20;fill-opacity:1;"><g transform="translate(461.115512, 394.927797)"><path style="stroke:none" d="M 4.1875 -1.53125 C 4.601562 -1.550781 4.921875 -1.601562 5.140625 -1.6875 C 5.359375 -1.769531 5.53125 -1.953125 5.65625 -2.234375 C 5.78125 -2.515625 5.84375 -2.957031 5.84375 -3.5625 L 5.84375 -14.703125 L 4.765625 -14.703125 C 3.847656 -14.691406 3.140625 -14.378906 2.640625 -13.765625 C 2.148438 -13.160156 1.90625 -12.25 1.90625 -11.03125 L 0.375 -11.03125 L 0.484375 -16.28125 L 14.59375 -16.28125 L 14.734375 -11.03125 L 13.1875 -11.03125 C 13.1875 -12.25 12.929688 -13.171875 12.421875 -13.796875 C 11.921875 -14.429688 11.222656 -14.742188 10.328125 -14.734375 L 9.21875 -14.734375 L 9.21875 -3.8125 C 9.21875 -2.769531 9.1875 -2.070312 9.125 -1.71875 C 9.632812 -1.769531 10.253906 -1.796875 10.984375 -1.796875 L 10.984375 0 L 4.1875 0 Z M 4.1875 -1.53125 "/></g></g><g style="fill:#231f20;fill-opacity:1;"><g transform="translate(482.918874, 394.927797)"><path style="stroke:none" d="M 1.15625 -1.53125 C 1.582031 -1.550781 1.898438 -1.601562 2.109375 -1.6875 C 2.328125 -1.769531 2.5 -1.953125 2.625 -2.234375 C 2.75 -2.515625 2.8125 -2.957031 2.8125 -3.5625 L 2.8125 -12.46875 C 2.8125 -13.332031 2.84375 -14.03125 2.90625 -14.5625 L 1.15625 -14.5 L 1.15625 -16.28125 L 7.84375 -16.28125 L 7.84375 -14.75 C 7.425781 -14.738281 7.109375 -14.6875 6.890625 -14.59375 C 6.671875 -14.507812 6.5 -14.328125 6.375 -14.046875 C 6.25 -13.773438 6.1875 -13.332031 6.1875 -12.71875 L 6.1875 -9.09375 L 12.59375 -9.09375 L 12.59375 -12.46875 C 12.59375 -13.507812 12.625 -14.207031 12.6875 -14.5625 L 10.9375 -14.5 L 10.9375 -16.28125 L 17.609375 -16.28125 L 17.609375 -14.75 C 17.191406 -14.738281 16.875 -14.6875 16.65625 -14.59375 C 16.4375 -14.507812 16.265625 -14.328125 16.140625 -14.046875 C 16.015625 -13.773438 15.953125 -13.332031 15.953125 -12.71875 L 15.953125 -3.8125 C 15.953125 -2.945312 15.921875 -2.25 15.859375 -1.71875 C 16.359375 -1.769531 16.941406 -1.796875 17.609375 -1.796875 L 17.609375 0 L 10.9375 0 L 10.9375 -1.53125 C 11.351562 -1.550781 11.671875 -1.601562 11.890625 -1.6875 C 12.109375 -1.769531 12.28125 -1.953125 12.40625 -2.234375 C 12.53125 -2.515625 12.59375 -2.957031 12.59375 -3.5625 L 12.59375 -7.328125 L 6.1875 -7.265625 L 6.1875 -3.8125 C 6.1875 -2.945312 6.15625 -2.25 6.09375 -1.71875 C 6.59375 -1.769531 7.175781 -1.796875 7.84375 -1.796875 L 7.84375 0 L 1.15625 0 Z M 1.15625 -1.53125 "/></g></g><g style="fill:#231f20;fill-opacity:1;"><g transform="translate(508.375545, 394.927797)"><path style="stroke:none" d="M 0.09375 -1.609375 C 0.5 -1.609375 0.835938 -1.722656 1.109375 -1.953125 C 1.378906 -2.179688 1.59375 -2.460938 1.75 -2.796875 C 1.90625 -3.128906 2.097656 -3.613281 2.328125 -4.25 L 6.859375 -16.703125 L 8.484375 -16.703125 L 13.453125 -4.03125 C 13.578125 -3.71875 13.707031 -3.332031 13.84375 -2.875 C 13.976562 -2.414062 14.0625 -2.03125 14.09375 -1.71875 C 14.601562 -1.769531 15.054688 -1.796875 15.453125 -1.796875 L 15.453125 0 L 9.1875 0 L 9.1875 -1.53125 C 9.9375 -1.53125 10.3125 -1.84375 10.3125 -2.46875 C 10.3125 -2.78125 10.222656 -3.148438 10.046875 -3.578125 L 9.578125 -4.859375 L 4.53125 -4.765625 L 4.171875 -3.671875 C 4.117188 -3.546875 4.007812 -3.265625 3.84375 -2.828125 C 3.6875 -2.398438 3.546875 -2.054688 3.421875 -1.796875 C 3.921875 -1.835938 4.472656 -1.859375 5.078125 -1.859375 L 5.078125 0 L 0.09375 0 Z M 9 -6.515625 L 7.9375 -9.421875 C 7.488281 -10.691406 7.191406 -11.753906 7.046875 -12.609375 L 7.03125 -12.609375 C 6.78125 -11.492188 6.492188 -10.46875 6.171875 -9.53125 L 5.125 -6.515625 Z M 9 -6.515625 "/></g></g><g style="fill:#231f20;fill-opacity:1;"><g transform="translate(530.59776, 394.927797)"><path style="stroke:none" d="M 4.1875 -1.53125 C 4.601562 -1.550781 4.921875 -1.601562 5.140625 -1.6875 C 5.359375 -1.769531 5.53125 -1.953125 5.65625 -2.234375 C 5.78125 -2.515625 5.84375 -2.957031 5.84375 -3.5625 L 5.84375 -14.703125 L 4.765625 -14.703125 C 3.847656 -14.691406 3.140625 -14.378906 2.640625 -13.765625 C 2.148438 -13.160156 1.90625 -12.25 1.90625 -11.03125 L 0.375 -11.03125 L 0.484375 -16.28125 L 14.59375 -16.28125 L 14.734375 -11.03125 L 13.1875 -11.03125 C 13.1875 -12.25 12.929688 -13.171875 12.421875 -13.796875 C 11.921875 -14.429688 11.222656 -14.742188 10.328125 -14.734375 L 9.21875 -14.734375 L 9.21875 -3.8125 C 9.21875 -2.769531 9.1875 -2.070312 9.125 -1.71875 C 9.632812 -1.769531 10.253906 -1.796875 10.984375 -1.796875 L 10.984375 0 L 4.1875 0 Z M 4.1875 -1.53125 "/></g></g><g style="fill:#231f20;fill-opacity:1;"><g transform="translate(552.401122, 394.927797)"><path style="stroke:none" d=""/></g></g><g style="fill:#231f20;fill-opacity:1;"><g transform="translate(565.199227, 394.927797)"><path style="stroke:none" d="M 8.75 0.375 C 7.101562 0.375 5.6875 0.0078125 4.5 -0.71875 C 3.3125 -1.445312 2.40625 -2.4375 1.78125 -3.6875 C 1.15625 -4.9375 0.84375 -6.34375 0.84375 -7.90625 C 0.84375 -9.382812 1.144531 -10.789062 1.75 -12.125 C 2.363281 -13.46875 3.28125 -14.554688 4.5 -15.390625 C 5.71875 -16.234375 7.1875 -16.65625 8.90625 -16.65625 C 9.570312 -16.65625 10.328125 -16.550781 11.171875 -16.34375 C 12.023438 -16.144531 12.742188 -15.867188 13.328125 -15.515625 L 13.359375 -15.515625 L 13.265625 -16.5 L 15.046875 -16.5 L 15.046875 -11.078125 L 13.546875 -11.078125 C 13.335938 -12.328125 12.84375 -13.285156 12.0625 -13.953125 C 11.289062 -14.617188 10.34375 -14.960938 9.21875 -14.984375 C 8.1875 -14.984375 7.3125 -14.675781 6.59375 -14.0625 C 5.882812 -13.445312 5.351562 -12.632812 5 -11.625 C 4.644531 -10.625 4.46875 -9.539062 4.46875 -8.375 C 4.46875 -6.3125 4.894531 -4.644531 5.75 -3.375 C 6.601562 -2.101562 7.796875 -1.46875 9.328125 -1.46875 C 9.828125 -1.46875 10.394531 -1.519531 11.03125 -1.625 C 11.675781 -1.738281 12.203125 -1.894531 12.609375 -2.09375 L 12.609375 -4.25 C 12.609375 -5.125 12.640625 -5.820312 12.703125 -6.34375 C 12.296875 -6.320312 11.914062 -6.3125 11.5625 -6.3125 L 10.953125 -6.28125 L 10.953125 -8.078125 L 17.140625 -8.078125 L 17.140625 -6.53125 C 16.753906 -6.519531 16.453125 -6.46875 16.234375 -6.375 C 16.015625 -6.28125 15.851562 -6.085938 15.75 -5.796875 C 15.644531 -5.515625 15.59375 -5.085938 15.59375 -4.515625 L 15.59375 -0.796875 L 15.03125 -0.796875 C 14.675781 -0.796875 14.320312 -0.753906 13.96875 -0.671875 C 13.625 -0.597656 13.179688 -0.472656 12.640625 -0.296875 C 11.828125 -0.0664062 11.148438 0.0976562 10.609375 0.203125 C 10.066406 0.316406 9.445312 0.375 8.75 0.375 Z M 8.75 0.375 "/></g></g><g style="fill:#231f20;fill-opacity:1;"><g transform="translate(589.422624, 394.927797)"><path style="stroke:none" d="M 1.15625 -1.53125 C 1.582031 -1.550781 1.898438 -1.601562 2.109375 -1.6875 C 2.328125 -1.769531 2.5 -1.953125 2.625 -2.234375 C 2.75 -2.515625 2.8125 -2.957031 2.8125 -3.5625 L 2.8125 -12.46875 C 2.8125 -13.332031 2.84375 -14.03125 2.90625 -14.5625 L 1.15625 -14.5 L 1.15625 -16.28125 L 12.796875 -16.28125 L 12.9375 -11.765625 L 11.40625 -11.765625 C 11.40625 -12.921875 11.128906 -13.71875 10.578125 -14.15625 C 10.023438 -14.59375 9.359375 -14.800781 8.578125 -14.78125 L 7.75 -14.75 C 7.375 -14.738281 7.078125 -14.6875 6.859375 -14.59375 C 6.640625 -14.507812 6.472656 -14.320312 6.359375 -14.03125 C 6.242188 -13.738281 6.1875 -13.300781 6.1875 -12.71875 L 6.1875 -9.234375 L 8.90625 -9.234375 C 8.894531 -9.492188 8.863281 -10.171875 8.8125 -11.265625 L 10.609375 -11.265625 L 10.609375 -5.609375 L 9.078125 -5.609375 C 9.078125 -6.222656 8.976562 -6.675781 8.78125 -6.96875 C 8.582031 -7.269531 8.328125 -7.460938 8.015625 -7.546875 C 7.710938 -7.628906 7.304688 -7.664062 6.796875 -7.65625 L 6.1875 -7.625 L 6.1875 -3.8125 C 6.1875 -2.976562 6.15625 -2.296875 6.09375 -1.765625 L 9.21875 -1.765625 C 10.007812 -1.765625 10.675781 -2.03125 11.21875 -2.5625 C 11.769531 -3.101562 12.046875 -3.957031 12.046875 -5.125 L 13.5625 -5.125 L 13.453125 0 L 1.15625 0 Z M 1.15625 -1.53125 "/></g></g><g style="fill:#231f20;fill-opacity:1;"><g transform="translate(610.620992, 394.927797)"><path style="stroke:none" d="M 4.1875 -1.53125 C 4.601562 -1.550781 4.921875 -1.601562 5.140625 -1.6875 C 5.359375 -1.769531 5.53125 -1.953125 5.65625 -2.234375 C 5.78125 -2.515625 5.84375 -2.957031 5.84375 -3.5625 L 5.84375 -14.703125 L 4.765625 -14.703125 C 3.847656 -14.691406 3.140625 -14.378906 2.640625 -13.765625 C 2.148438 -13.160156 1.90625 -12.25 1.90625 -11.03125 L 0.375 -11.03125 L 0.484375 -16.28125 L 14.59375 -16.28125 L 14.734375 -11.03125 L 13.1875 -11.03125 C 13.1875 -12.25 12.929688 -13.171875 12.421875 -13.796875 C 11.921875 -14.429688 11.222656 -14.742188 10.328125 -14.734375 L 9.21875 -14.734375 L 9.21875 -3.8125 C 9.21875 -2.769531 9.1875 -2.070312 9.125 -1.71875 C 9.632812 -1.769531 10.253906 -1.796875 10.984375 -1.796875 L 10.984375 0 L 4.1875 0 Z M 4.1875 -1.53125 "/></g></g><g style="fill:#231f20;fill-opacity:1;"><g transform="translate(632.424354, 394.927797)"><path style="stroke:none" d="M 7.140625 0.375 C 6.503906 0.375 5.828125 0.269531 5.109375 0.0625 C 4.390625 -0.132812 3.726562 -0.410156 3.125 -0.765625 L 3.09375 -0.765625 L 3.171875 0.203125 L 1.375 0.203125 L 1.375 -5.234375 L 2.90625 -5.234375 C 3.101562 -3.960938 3.585938 -2.988281 4.359375 -2.3125 C 5.140625 -1.632812 6.09375 -1.296875 7.21875 -1.296875 C 8.019531 -1.296875 8.679688 -1.507812 9.203125 -1.9375 C 9.734375 -2.363281 10 -2.878906 10 -3.484375 C 10 -3.984375 9.820312 -4.410156 9.46875 -4.765625 C 9.125 -5.117188 8.738281 -5.394531 8.3125 -5.59375 C 7.882812 -5.800781 7.207031 -6.09375 6.28125 -6.46875 C 4.570312 -7.144531 3.265625 -7.914062 2.359375 -8.78125 C 1.453125 -9.65625 1 -10.800781 1 -12.21875 C 1 -12.925781 1.175781 -13.617188 1.53125 -14.296875 C 1.894531 -14.972656 2.484375 -15.535156 3.296875 -15.984375 C 4.109375 -16.429688 5.15625 -16.65625 6.4375 -16.65625 C 7.101562 -16.65625 7.800781 -16.554688 8.53125 -16.359375 C 9.257812 -16.171875 9.867188 -15.898438 10.359375 -15.546875 L 10.375 -15.546875 L 10.28125 -16.5 L 12.09375 -16.5 L 12.09375 -11.078125 L 10.5625 -11.078125 C 10.363281 -12.347656 9.914062 -13.316406 9.21875 -13.984375 C 8.53125 -14.648438 7.648438 -14.984375 6.578125 -14.984375 C 5.878906 -14.984375 5.28125 -14.789062 4.78125 -14.40625 C 4.28125 -14.03125 4.03125 -13.554688 4.03125 -12.984375 C 4.03125 -12.296875 4.316406 -11.71875 4.890625 -11.25 C 5.460938 -10.789062 6.429688 -10.28125 7.796875 -9.71875 C 9.359375 -9.101562 10.628906 -8.382812 11.609375 -7.5625 C 12.597656 -6.75 13.09375 -5.671875 13.09375 -4.328125 C 13.09375 -3.410156 12.84375 -2.59375 12.34375 -1.875 C 11.851562 -1.164062 11.15625 -0.613281 10.25 -0.21875 C 9.351562 0.175781 8.316406 0.375 7.140625 0.375 Z M 7.140625 0.375 "/></g></g><g style="fill:#231f20;fill-opacity:1;"><g transform="translate(653.017728, 394.927797)"><path style="stroke:none" d=""/></g></g><g style="fill:#231f20;fill-opacity:1;"><g transform="translate(665.815833, 394.927797)"><path style="stroke:none" d="M 4.1875 -1.53125 C 4.601562 -1.550781 4.921875 -1.601562 5.140625 -1.6875 C 5.359375 -1.769531 5.53125 -1.953125 5.65625 -2.234375 C 5.78125 -2.515625 5.84375 -2.957031 5.84375 -3.5625 L 5.84375 -14.703125 L 4.765625 -14.703125 C 3.847656 -14.691406 3.140625 -14.378906 2.640625 -13.765625 C 2.148438 -13.160156 1.90625 -12.25 1.90625 -11.03125 L 0.375 -11.03125 L 0.484375 -16.28125 L 14.59375 -16.28125 L 14.734375 -11.03125 L 13.1875 -11.03125 C 13.1875 -12.25 12.929688 -13.171875 12.421875 -13.796875 C 11.921875 -14.429688 11.222656 -14.742188 10.328125 -14.734375 L 9.21875 -14.734375 L 9.21875 -3.8125 C 9.21875 -2.769531 9.1875 -2.070312 9.125 -1.71875 C 9.632812 -1.769531 10.253906 -1.796875 10.984375 -1.796875 L 10.984375 0 L 4.1875 0 Z M 4.1875 -1.53125 "/></g></g><g style="fill:#231f20;fill-opacity:1;"><g transform="translate(687.619195, 394.927797)"><path style="stroke:none" d="M 1.15625 -1.53125 C 1.582031 -1.550781 1.898438 -1.601562 2.109375 -1.6875 C 2.328125 -1.769531 2.5 -1.953125 2.625 -2.234375 C 2.75 -2.515625 2.8125 -2.957031 2.8125 -3.5625 L 2.8125 -12.46875 C 2.8125 -13.332031 2.84375 -14.03125 2.90625 -14.5625 L 1.15625 -14.5 L 1.15625 -16.28125 L 7.84375 -16.28125 L 7.84375 -14.75 C 7.425781 -14.738281 7.109375 -14.6875 6.890625 -14.59375 C 6.671875 -14.507812 6.5 -14.328125 6.375 -14.046875 C 6.25 -13.773438 6.1875 -13.332031 6.1875 -12.71875 L 6.1875 -9.09375 L 12.59375 -9.09375 L 12.59375 -12.46875 C 12.59375 -13.507812 12.625 -14.207031 12.6875 -14.5625 L 10.9375 -14.5 L 10.9375 -16.28125 L 17.609375 -16.28125 L 17.609375 -14.75 C 17.191406 -14.738281 16.875 -14.6875 16.65625 -14.59375 C 16.4375 -14.507812 16.265625 -14.328125 16.140625 -14.046875 C 16.015625 -13.773438 15.953125 -13.332031 15.953125 -12.71875 L 15.953125 -3.8125 C 15.953125 -2.945312 15.921875 -2.25 15.859375 -1.71875 C 16.359375 -1.769531 16.941406 -1.796875 17.609375 -1.796875 L 17.609375 0 L 10.9375 0 L 10.9375 -1.53125 C 11.351562 -1.550781 11.671875 -1.601562 11.890625 -1.6875 C 12.109375 -1.769531 12.28125 -1.953125 12.40625 -2.234375 C 12.53125 -2.515625 12.59375 -2.957031 12.59375 -3.5625 L 12.59375 -7.328125 L 6.1875 -7.265625 L 6.1875 -3.8125 C 6.1875 -2.945312 6.15625 -2.25 6.09375 -1.71875 C 6.59375 -1.769531 7.175781 -1.796875 7.84375 -1.796875 L 7.84375 0 L 1.15625 0 Z M 1.15625 -1.53125 "/></g></g><g style="fill:#231f20;fill-opacity:1;"><g transform="translate(713.075866, 394.927797)"><path style="stroke:none" d="M 1.15625 -1.53125 C 1.582031 -1.550781 1.898438 -1.601562 2.109375 -1.6875 C 2.328125 -1.769531 2.5 -1.953125 2.625 -2.234375 C 2.75 -2.515625 2.8125 -2.957031 2.8125 -3.5625 L 2.8125 -12.46875 C 2.8125 -13.332031 2.84375 -14.03125 2.90625 -14.5625 L 1.15625 -14.5 L 1.15625 -16.28125 L 7.84375 -16.28125 L 7.84375 -14.75 C 7.425781 -14.738281 7.109375 -14.6875 6.890625 -14.59375 C 6.671875 -14.507812 6.5 -14.328125 6.375 -14.046875 C 6.25 -13.773438 6.1875 -13.332031 6.1875 -12.71875 L 6.1875 -3.8125 C 6.1875 -2.945312 6.15625 -2.25 6.09375 -1.71875 C 6.59375 -1.769531 7.175781 -1.796875 7.84375 -1.796875 L 7.84375 0 L 1.15625 0 Z M 1.15625 -1.53125 "/></g></g><g style="fill:#231f20;fill-opacity:1;"><g transform="translate(728.759371, 394.927797)"><path style="stroke:none" d="M 6.09375 -9.28125 C 5.707031 -9.78125 5.28125 -10.363281 4.8125 -11.03125 L 4.796875 -11.03125 L 4.84375 -3.8125 C 4.84375 -2.945312 4.8125 -2.25 4.75 -1.71875 C 5.238281 -1.769531 5.816406 -1.796875 6.484375 -1.796875 L 6.484375 0 L 1.1875 0 L 1.1875 -1.53125 C 1.601562 -1.550781 1.921875 -1.601562 2.140625 -1.6875 C 2.359375 -1.769531 2.53125 -1.953125 2.65625 -2.234375 C 2.78125 -2.515625 2.84375 -2.957031 2.84375 -3.5625 L 2.796875 -12.46875 C 2.796875 -13.507812 2.828125 -14.207031 2.890625 -14.5625 L 1.109375 -14.5 L 1.109375 -16.28125 L 4.765625 -16.28125 L 11.890625 -7.3125 C 12.535156 -6.457031 13.078125 -5.71875 13.515625 -5.09375 L 13.546875 -5.09375 L 13.546875 -12.46875 C 13.546875 -13.476562 13.566406 -14.175781 13.609375 -14.5625 L 11.859375 -14.5 L 11.859375 -16.28125 L 17.171875 -16.28125 L 17.171875 -14.75 C 16.753906 -14.738281 16.4375 -14.6875 16.21875 -14.59375 C 16 -14.507812 15.828125 -14.328125 15.703125 -14.046875 C 15.578125 -13.773438 15.515625 -13.332031 15.515625 -12.71875 L 15.515625 0.234375 L 13.546875 0.234375 Z M 6.09375 -9.28125 "/></g></g><g style="fill:#231f20;fill-opacity:1;"><g transform="translate(753.424878, 394.927797)"><path style="stroke:none" d="M 8.75 0.375 C 7.101562 0.375 5.6875 0.0078125 4.5 -0.71875 C 3.3125 -1.445312 2.40625 -2.4375 1.78125 -3.6875 C 1.15625 -4.9375 0.84375 -6.34375 0.84375 -7.90625 C 0.84375 -9.382812 1.144531 -10.789062 1.75 -12.125 C 2.363281 -13.46875 3.28125 -14.554688 4.5 -15.390625 C 5.71875 -16.234375 7.1875 -16.65625 8.90625 -16.65625 C 9.570312 -16.65625 10.328125 -16.550781 11.171875 -16.34375 C 12.023438 -16.144531 12.742188 -15.867188 13.328125 -15.515625 L 13.359375 -15.515625 L 13.265625 -16.5 L 15.046875 -16.5 L 15.046875 -11.078125 L 13.546875 -11.078125 C 13.335938 -12.328125 12.84375 -13.285156 12.0625 -13.953125 C 11.289062 -14.617188 10.34375 -14.960938 9.21875 -14.984375 C 8.1875 -14.984375 7.3125 -14.675781 6.59375 -14.0625 C 5.882812 -13.445312 5.351562 -12.632812 5 -11.625 C 4.644531 -10.625 4.46875 -9.539062 4.46875 -8.375 C 4.46875 -6.3125 4.894531 -4.644531 5.75 -3.375 C 6.601562 -2.101562 7.796875 -1.46875 9.328125 -1.46875 C 9.828125 -1.46875 10.394531 -1.519531 11.03125 -1.625 C 11.675781 -1.738281 12.203125 -1.894531 12.609375 -2.09375 L 12.609375 -4.25 C 12.609375 -5.125 12.640625 -5.820312 12.703125 -6.34375 C 12.296875 -6.320312 11.914062 -6.3125 11.5625 -6.3125 L 10.953125 -6.28125 L 10.953125 -8.078125 L 17.140625 -8.078125 L 17.140625 -6.53125 C 16.753906 -6.519531 16.453125 -6.46875 16.234375 -6.375 C 16.015625 -6.28125 15.851562 -6.085938 15.75 -5.796875 C 15.644531 -5.515625 15.59375 -5.085938 15.59375 -4.515625 L 15.59375 -0.796875 L 15.03125 -0.796875 C 14.675781 -0.796875 14.320312 -0.753906 13.96875 -0.671875 C 13.625 -0.597656 13.179688 -0.472656 12.640625 -0.296875 C 11.828125 -0.0664062 11.148438 0.0976562 10.609375 0.203125 C 10.066406 0.316406 9.445312 0.375 8.75 0.375 Z M 8.75 0.375 "/></g></g><g style="fill:#231f20;fill-opacity:1;"><g transform="translate(777.648275, 394.927797)"><path style="stroke:none" d="M 7.140625 0.375 C 6.503906 0.375 5.828125 0.269531 5.109375 0.0625 C 4.390625 -0.132812 3.726562 -0.410156 3.125 -0.765625 L 3.09375 -0.765625 L 3.171875 0.203125 L 1.375 0.203125 L 1.375 -5.234375 L 2.90625 -5.234375 C 3.101562 -3.960938 3.585938 -2.988281 4.359375 -2.3125 C 5.140625 -1.632812 6.09375 -1.296875 7.21875 -1.296875 C 8.019531 -1.296875 8.679688 -1.507812 9.203125 -1.9375 C 9.734375 -2.363281 10 -2.878906 10 -3.484375 C 10 -3.984375 9.820312 -4.410156 9.46875 -4.765625 C 9.125 -5.117188 8.738281 -5.394531 8.3125 -5.59375 C 7.882812 -5.800781 7.207031 -6.09375 6.28125 -6.46875 C 4.570312 -7.144531 3.265625 -7.914062 2.359375 -8.78125 C 1.453125 -9.65625 1 -10.800781 1 -12.21875 C 1 -12.925781 1.175781 -13.617188 1.53125 -14.296875 C 1.894531 -14.972656 2.484375 -15.535156 3.296875 -15.984375 C 4.109375 -16.429688 5.15625 -16.65625 6.4375 -16.65625 C 7.101562 -16.65625 7.800781 -16.554688 8.53125 -16.359375 C 9.257812 -16.171875 9.867188 -15.898438 10.359375 -15.546875 L 10.375 -15.546875 L 10.28125 -16.5 L 12.09375 -16.5 L 12.09375 -11.078125 L 10.5625 -11.078125 C 10.363281 -12.347656 9.914062 -13.316406 9.21875 -13.984375 C 8.53125 -14.648438 7.648438 -14.984375 6.578125 -14.984375 C 5.878906 -14.984375 5.28125 -14.789062 4.78125 -14.40625 C 4.28125 -14.03125 4.03125 -13.554688 4.03125 -12.984375 C 4.03125 -12.296875 4.316406 -11.71875 4.890625 -11.25 C 5.460938 -10.789062 6.429688 -10.28125 7.796875 -9.71875 C 9.359375 -9.101562 10.628906 -8.382812 11.609375 -7.5625 C 12.597656 -6.75 13.09375 -5.671875 13.09375 -4.328125 C 13.09375 -3.410156 12.84375 -2.59375 12.34375 -1.875 C 11.851562 -1.164062 11.15625 -0.613281 10.25 -0.21875 C 9.351562 0.175781 8.316406 0.375 7.140625 0.375 Z M 7.140625 0.375 "/></g></g><g style="fill:#231f20;fill-opacity:1;"><g transform="translate(798.241649, 394.927797)"><path style="stroke:none" d=""/></g></g><g style="fill:#231f20;fill-opacity:1;"><g transform="translate(811.039754, 394.927797)"><path style="stroke:none" d="M 1.15625 -1.53125 C 1.582031 -1.550781 1.898438 -1.601562 2.109375 -1.6875 C 2.328125 -1.769531 2.5 -1.953125 2.625 -2.234375 C 2.75 -2.515625 2.8125 -2.957031 2.8125 -3.5625 L 2.8125 -12.46875 C 2.8125 -13.332031 2.84375 -14.03125 2.90625 -14.5625 L 1.15625 -14.5 L 1.15625 -16.28125 L 7.9375 -16.3125 C 9.875 -16.3125 11.507812 -15.925781 12.84375 -15.15625 C 14.1875 -14.382812 15.1875 -13.382812 15.84375 -12.15625 C 16.507812 -10.9375 16.84375 -9.65625 16.84375 -8.3125 C 16.84375 -6.945312 16.523438 -5.628906 15.890625 -4.359375 C 15.265625 -3.097656 14.273438 -2.054688 12.921875 -1.234375 C 11.566406 -0.410156 9.863281 0 7.8125 0 L 1.15625 0 Z M 8.3125 -1.703125 C 9.394531 -1.703125 10.300781 -1.988281 11.03125 -2.5625 C 11.757812 -3.132812 12.296875 -3.878906 12.640625 -4.796875 C 12.992188 -5.722656 13.171875 -6.726562 13.171875 -7.8125 C 13.171875 -10.175781 12.6875 -11.921875 11.71875 -13.046875 C 10.757812 -14.179688 9.40625 -14.75 7.65625 -14.75 C 7.125 -14.75 6.742188 -14.613281 6.515625 -14.34375 C 6.296875 -14.082031 6.1875 -13.554688 6.1875 -12.765625 L 6.1875 -3.8125 C 6.1875 -2.945312 6.15625 -2.25 6.09375 -1.71875 C 6.175781 -1.738281 6.320312 -1.75 6.53125 -1.75 L 7.53125 -1.71875 C 7.738281 -1.707031 8 -1.703125 8.3125 -1.703125 Z M 8.3125 -1.703125 "/></g></g><g style="fill:#231f20;fill-opacity:1;"><g transform="translate(835.379492, 394.927797)"><path style="stroke:none" d="M 8.90625 0.375 C 7.050781 0.375 5.515625 -0.0351562 4.296875 -0.859375 C 3.085938 -1.679688 2.203125 -2.734375 1.640625 -4.015625 C 1.085938 -5.304688 0.8125 -6.679688 0.8125 -8.140625 C 0.8125 -9.523438 1.117188 -10.867188 1.734375 -12.171875 C 2.359375 -13.472656 3.285156 -14.546875 4.515625 -15.390625 C 5.753906 -16.234375 7.242188 -16.65625 8.984375 -16.65625 C 10.765625 -16.65625 12.265625 -16.234375 13.484375 -15.390625 C 14.703125 -14.546875 15.601562 -13.472656 16.1875 -12.171875 C 16.78125 -10.867188 17.078125 -9.523438 17.078125 -8.140625 C 17.078125 -6.796875 16.765625 -5.46875 16.140625 -4.15625 C 15.523438 -2.84375 14.597656 -1.757812 13.359375 -0.90625 C 12.128906 -0.0507812 10.644531 0.375 8.90625 0.375 Z M 9.140625 -1.328125 C 10.148438 -1.328125 10.972656 -1.644531 11.609375 -2.28125 C 12.242188 -2.914062 12.703125 -3.722656 12.984375 -4.703125 C 13.265625 -5.679688 13.40625 -6.695312 13.40625 -7.75 C 13.40625 -9.945312 13.015625 -11.695312 12.234375 -13 C 11.460938 -14.300781 10.316406 -14.953125 8.796875 -14.953125 C 7.773438 -14.953125 6.9375 -14.625 6.28125 -13.96875 C 5.625 -13.320312 5.15625 -12.503906 4.875 -11.515625 C 4.601562 -10.523438 4.46875 -9.492188 4.46875 -8.421875 C 4.46875 -7.335938 4.617188 -6.25 4.921875 -5.15625 C 5.234375 -4.070312 5.742188 -3.160156 6.453125 -2.421875 C 7.160156 -1.691406 8.054688 -1.328125 9.140625 -1.328125 Z M 9.140625 -1.328125 "/></g></g><g style="fill:#231f20;fill-opacity:1;"><g transform="translate(859.951913, 394.927797)"><path style="stroke:none" d="M 6.09375 -9.28125 C 5.707031 -9.78125 5.28125 -10.363281 4.8125 -11.03125 L 4.796875 -11.03125 L 4.84375 -3.8125 C 4.84375 -2.945312 4.8125 -2.25 4.75 -1.71875 C 5.238281 -1.769531 5.816406 -1.796875 6.484375 -1.796875 L 6.484375 0 L 1.1875 0 L 1.1875 -1.53125 C 1.601562 -1.550781 1.921875 -1.601562 2.140625 -1.6875 C 2.359375 -1.769531 2.53125 -1.953125 2.65625 -2.234375 C 2.78125 -2.515625 2.84375 -2.957031 2.84375 -3.5625 L 2.796875 -12.46875 C 2.796875 -13.507812 2.828125 -14.207031 2.890625 -14.5625 L 1.109375 -14.5 L 1.109375 -16.28125 L 4.765625 -16.28125 L 11.890625 -7.3125 C 12.535156 -6.457031 13.078125 -5.71875 13.515625 -5.09375 L 13.546875 -5.09375 L 13.546875 -12.46875 C 13.546875 -13.476562 13.566406 -14.175781 13.609375 -14.5625 L 11.859375 -14.5 L 11.859375 -16.28125 L 17.171875 -16.28125 L 17.171875 -14.75 C 16.753906 -14.738281 16.4375 -14.6875 16.21875 -14.59375 C 16 -14.507812 15.828125 -14.328125 15.703125 -14.046875 C 15.578125 -13.773438 15.515625 -13.332031 15.515625 -12.71875 L 15.515625 0.234375 L 13.546875 0.234375 Z M 6.09375 -9.28125 "/></g></g><g style="fill:#231f20;fill-opacity:1;"><g transform="translate(884.61742, 394.927797)"><path style="stroke:none" d="M 1.15625 -1.53125 C 1.582031 -1.550781 1.898438 -1.601562 2.109375 -1.6875 C 2.328125 -1.769531 2.5 -1.953125 2.625 -2.234375 C 2.75 -2.515625 2.8125 -2.957031 2.8125 -3.5625 L 2.8125 -12.46875 C 2.8125 -13.332031 2.84375 -14.03125 2.90625 -14.5625 L 1.15625 -14.5 L 1.15625 -16.28125 L 12.796875 -16.28125 L 12.9375 -11.765625 L 11.40625 -11.765625 C 11.40625 -12.921875 11.128906 -13.71875 10.578125 -14.15625 C 10.023438 -14.59375 9.359375 -14.800781 8.578125 -14.78125 L 7.75 -14.75 C 7.375 -14.738281 7.078125 -14.6875 6.859375 -14.59375 C 6.640625 -14.507812 6.472656 -14.320312 6.359375 -14.03125 C 6.242188 -13.738281 6.1875 -13.300781 6.1875 -12.71875 L 6.1875 -9.234375 L 8.90625 -9.234375 C 8.894531 -9.492188 8.863281 -10.171875 8.8125 -11.265625 L 10.609375 -11.265625 L 10.609375 -5.609375 L 9.078125 -5.609375 C 9.078125 -6.222656 8.976562 -6.675781 8.78125 -6.96875 C 8.582031 -7.269531 8.328125 -7.460938 8.015625 -7.546875 C 7.710938 -7.628906 7.304688 -7.664062 6.796875 -7.65625 L 6.1875 -7.625 L 6.1875 -3.8125 C 6.1875 -2.976562 6.15625 -2.296875 6.09375 -1.765625 L 9.21875 -1.765625 C 10.007812 -1.765625 10.675781 -2.03125 11.21875 -2.5625 C 11.769531 -3.101562 12.046875 -3.957031 12.046875 -5.125 L 13.5625 -5.125 L 13.453125 0 L 1.15625 0 Z M 1.15625 -1.53125 "/></g></g><path style=" stroke:none;fill-rule:nonzero;fill:#ffffff;fill-opacity:1;" d="M 394.222656 391.246094 C 392.828125 391.0625 390.234375 390.382812 387.820312 389.699219 C 387.488281 389.605469 387.261719 389.304688 387.261719 388.960938 L 387.261719 386.28125 C 387.261719 386.011719 387.402344 385.765625 387.628906 385.625 C 395.105469 381.078125 395.988281 367.636719 395.988281 364.929688 C 395.988281 357.386719 389.871094 351.273438 382.332031 351.273438 C 374.789062 351.273438 368.671875 357.386719 368.671875 364.929688 C 368.671875 367.636719 369.554688 381.078125 377.03125 385.625 C 377.257812 385.765625 377.398438 386.011719 377.398438 386.28125 L 377.398438 388.960938 C 377.398438 389.304688 377.171875 389.605469 376.839844 389.699219 C 374.429688 390.382812 371.832031 391.0625 370.4375 391.246094 C 366.523438 391.761719 363.289062 394.449219 363.289062 398.398438 L 363.289062 398.550781 C 363.496094 398.675781 363.703125 398.800781 363.910156 398.921875 C 369.328125 402.0625 375.617188 403.859375 382.332031 403.859375 C 389.042969 403.859375 395.332031 402.0625 400.75 398.921875 C 400.957031 398.800781 401.164062 398.675781 401.371094 398.550781 L 401.371094 398.398438 C 401.371094 394.449219 398.136719 391.761719 394.222656 391.246094 "/><path style=" stroke:none;fill-rule:nonzero;fill:#939393;fill-opacity:1;" d="M 395.195312 355.488281 C 394.234375 352.207031 389.695312 350.503906 386.105469 350.089844 C 386.480469 349.320312 386.671875 348.429688 386.707031 347.539062 C 385.203125 349.078125 383.480469 349.449219 383.480469 349.449219 C 383.480469 349.449219 383.832031 348.84375 383.894531 348.039062 C 383.144531 348.78125 381.429688 349.558594 380.238281 350.042969 C 375.40625 350.457031 369.671875 352.609375 368.613281 360.105469 C 367.25 369.757812 370.359375 375.660156 370.359375 375.660156 C 370.359375 375.660156 370.738281 370.558594 370.980469 367.316406 C 371.417969 361.394531 376.089844 359.347656 376.089844 359.347656 C 376.089844 359.347656 379.210938 363.09375 383.832031 363.40625 C 388.449219 363.71875 391.882812 362.476562 393.132812 365.277344 C 394.019531 367.273438 394.304688 375.660156 394.304688 375.660156 C 394.304688 375.660156 398.464844 366.648438 395.195312 355.488281 "/><path style=" stroke:none;fill-rule:nonzero;fill:#231f20;fill-opacity:1;" d="M 368.199219 361.605469 C 368.1875 360.96875 367.75 360.425781 367.128906 360.28125 C 367.023438 360.257812 366.921875 360.234375 366.816406 360.210938 C 366.582031 360.15625 366.335938 360.214844 366.148438 360.367188 C 365.960938 360.523438 365.851562 360.757812 365.855469 361.007812 C 365.855469 361.136719 365.859375 361.265625 365.859375 361.390625 C 365.859375 361.390625 365.1875 361.253906 364.074219 361.269531 C 363.214844 361.28125 362.515625 362.019531 362.476562 362.953125 C 361.492188 363.136719 360.761719 364.128906 360.832031 365.289062 C 360.992188 367.820312 361.265625 370.34375 361.660156 372.847656 C 361.835938 373.996094 362.765625 374.804688 363.765625 374.773438 C 364.003906 375.675781 364.847656 376.246094 365.691406 376.070312 C 366.78125 375.847656 367.40625 375.570312 367.40625 375.570312 C 367.433594 375.695312 367.457031 375.820312 367.484375 375.941406 C 367.535156 376.1875 367.691406 376.394531 367.910156 376.503906 C 368.074219 376.589844 368.257812 376.613281 368.429688 376.574219 C 368.488281 376.558594 368.542969 376.542969 368.597656 376.515625 C 368.691406 376.46875 368.789062 376.425781 368.886719 376.378906 C 369.464844 376.105469 369.769531 375.480469 369.644531 374.855469 C 368.761719 370.492188 368.277344 366.058594 368.199219 361.605469 "/><path style=" stroke:none;fill-rule:nonzero;fill:#231f20;fill-opacity:1;" d="M 396.460938 361.605469 C 396.472656 360.96875 396.910156 360.425781 397.53125 360.28125 C 397.636719 360.257812 397.738281 360.234375 397.84375 360.210938 C 398.078125 360.15625 398.324219 360.214844 398.511719 360.367188 C 398.699219 360.523438 398.808594 360.757812 398.804688 361.007812 C 398.804688 361.136719 398.800781 361.265625 398.800781 361.390625 C 398.800781 361.390625 399.472656 361.253906 400.585938 361.269531 C 401.445312 361.28125 402.144531 362.019531 402.183594 362.953125 C 403.167969 363.136719 403.902344 364.128906 403.828125 365.289062 C 403.667969 367.820312 403.394531 370.34375 403.003906 372.847656 C 402.824219 373.996094 401.894531 374.804688 400.894531 374.773438 C 400.65625 375.675781 399.8125 376.246094 398.972656 376.070312 C 397.878906 375.847656 397.253906 375.570312 397.253906 375.570312 C 397.226562 375.695312 397.203125 375.820312 397.175781 375.941406 C 397.125 376.1875 396.96875 376.394531 396.75 376.503906 C 396.585938 376.589844 396.402344 376.613281 396.230469 376.574219 C 396.171875 376.558594 396.117188 376.542969 396.0625 376.515625 C 395.96875 376.46875 395.871094 376.425781 395.773438 376.378906 C 395.199219 376.105469 394.890625 375.480469 395.015625 374.855469 C 395.898438 370.492188 396.382812 366.058594 396.460938 361.605469 "/><path style=" stroke:none;fill-rule:nonzero;fill:#231f20;fill-opacity:1;" d="M 399.902344 361.527344 L 399.3125 361.527344 C 399.3125 357.707031 398.074219 354.097656 395.726562 351.089844 L 396.191406 350.730469 C 397.367188 352.238281 398.285156 353.917969 398.917969 355.71875 C 399.570312 357.582031 399.902344 359.535156 399.902344 361.527344 "/><path style=" stroke:none;fill-rule:nonzero;fill:#231f20;fill-opacity:1;" d="M 365.347656 361.527344 L 364.761719 361.527344 C 364.761719 359.535156 365.089844 357.582031 365.742188 355.71875 C 366.375 353.917969 367.292969 352.238281 368.46875 350.730469 L 368.933594 351.089844 C 366.585938 354.097656 365.347656 357.707031 365.347656 361.527344 "/><path style=" stroke:none;fill-rule:nonzero;fill:#231f20;fill-opacity:1;" d="M 396.570312 349.160156 C 396.28125 348.832031 395.976562 348.503906 395.664062 348.191406 C 393.933594 346.460938 391.917969 345.101562 389.671875 344.152344 C 387.34375 343.167969 384.875 342.667969 382.328125 342.667969 C 379.785156 342.667969 377.316406 343.167969 374.988281 344.152344 C 372.742188 345.101562 370.726562 346.460938 368.992188 348.191406 C 368.683594 348.503906 368.378906 348.828125 368.09375 349.15625 C 367.6875 349.625 367.710938 350.335938 368.148438 350.773438 L 368.71875 351.34375 C 368.941406 351.566406 369.246094 351.691406 369.558594 351.691406 C 369.570312 351.691406 369.585938 351.691406 369.597656 351.691406 C 369.929688 351.679688 370.238281 351.527344 370.457031 351.277344 C 373.445312 347.820312 377.773438 345.835938 382.328125 345.835938 C 386.886719 345.835938 391.214844 347.820312 394.203125 351.277344 C 394.421875 351.527344 394.734375 351.679688 395.0625 351.691406 C 395.386719 351.703125 395.707031 351.574219 395.941406 351.34375 L 396.511719 350.773438 C 396.949219 350.335938 396.976562 349.625 396.570312 349.160156 "/><path style=" stroke:none;fill-rule:nonzero;fill:#231f20;fill-opacity:1;" d="M 390.121094 385.308594 L 386.320312 385.308594 L 386.320312 384.722656 L 390.121094 384.722656 C 395.191406 384.722656 399.3125 380.601562 399.3125 375.53125 L 399.902344 375.53125 C 399.902344 378.144531 398.882812 380.597656 397.035156 382.445312 C 395.1875 384.292969 392.734375 385.308594 390.121094 385.308594 "/><path style=" stroke:none;fill-rule:nonzero;fill:#231f20;fill-opacity:1;" d="M 385.972656 384.117188 L 385.574219 383.765625 C 385.265625 383.496094 384.871094 383.34375 384.457031 383.34375 L 379.953125 383.34375 C 379.03125 383.34375 378.28125 384.09375 378.28125 385.015625 C 378.28125 385.9375 379.03125 386.6875 379.953125 386.6875 L 384.457031 386.6875 C 384.871094 386.6875 385.265625 386.539062 385.574219 386.269531 L 385.972656 385.917969 C 386.230469 385.691406 386.378906 385.359375 386.378906 385.015625 C 386.378906 384.671875 386.230469 384.34375 385.972656 384.117188 "/><g clip-rule="nonzero" clip-path="url(#a4f2284730)"><path style=" stroke:none;fill-rule:nonzero;fill:#ffffff;fill-opacity:1;" d="M 382.332031 331.414062 C 362.65625 331.414062 346.648438 347.417969 346.648438 367.09375 C 346.648438 379.675781 353.082031 391.089844 363.851562 397.621094 C 364.054688 397.746094 364.257812 397.867188 364.457031 397.980469 C 369.863281 401.117188 376.042969 402.773438 382.332031 402.773438 C 388.617188 402.773438 394.796875 401.117188 400.203125 397.980469 C 400.402344 397.867188 400.605469 397.746094 400.808594 397.625 C 411.578125 391.089844 418.011719 379.675781 418.011719 367.09375 C 418.011719 347.417969 402.003906 331.414062 382.332031 331.414062 Z M 382.332031 404.945312 C 378.945312 404.945312 375.585938 404.5 372.347656 403.617188 C 369.210938 402.761719 366.1875 401.496094 363.367188 399.859375 C 363.15625 399.738281 362.9375 399.609375 362.722656 399.480469 C 357.261719 396.164062 352.6875 391.488281 349.5 385.949219 C 347.882812 383.140625 346.636719 380.132812 345.789062 377.011719 C 344.917969 373.796875 344.476562 370.457031 344.476562 367.09375 C 344.476562 361.984375 345.476562 357.027344 347.453125 352.359375 C 349.359375 347.851562 352.089844 343.804688 355.5625 340.328125 C 359.039062 336.851562 363.089844 334.121094 367.597656 332.214844 C 372.261719 330.242188 377.21875 329.242188 382.332031 329.242188 C 387.441406 329.242188 392.398438 330.242188 397.066406 332.214844 C 401.570312 334.121094 405.621094 336.851562 409.097656 340.328125 C 412.574219 343.804688 415.300781 347.851562 417.207031 352.359375 C 419.183594 357.027344 420.183594 361.984375 420.183594 367.09375 C 420.183594 370.457031 419.742188 373.796875 418.871094 377.011719 C 418.023438 380.132812 416.777344 383.140625 415.160156 385.949219 C 411.972656 391.488281 407.402344 396.164062 401.933594 399.480469 C 401.722656 399.609375 401.503906 399.738281 401.292969 399.863281 C 398.472656 401.496094 395.449219 402.761719 392.3125 403.617188 C 389.074219 404.5 385.714844 404.945312 382.332031 404.945312 "/></g><path style=" stroke:none;fill-rule:nonzero;fill:#ffffff;fill-opacity:1;" d="M 1038.265625 391.246094 C 1036.871094 391.0625 1034.273438 390.382812 1031.863281 389.699219 C 1031.53125 389.605469 1031.304688 389.304688 1031.304688 388.960938 L 1031.304688 386.28125 C 1031.304688 386.011719 1031.445312 385.765625 1031.671875 385.625 C 1039.148438 381.078125 1040.03125 367.636719 1040.03125 364.929688 C 1040.03125 357.386719 1033.914062 351.273438 1026.371094 351.273438 C 1018.832031 351.273438 1012.714844 357.386719 1012.714844 364.929688 C 1012.714844 367.636719 1013.597656 381.078125 1021.074219 385.625 C 1021.300781 385.765625 1021.441406 386.011719 1021.441406 386.28125 L 1021.441406 388.960938 C 1021.441406 389.304688 1021.214844 389.605469 1020.882812 389.699219 C 1018.46875 390.382812 1015.875 391.0625 1014.480469 391.246094 C 1010.566406 391.761719 1007.332031 394.449219 1007.332031 398.398438 L 1007.332031 398.550781 C 1007.539062 398.675781 1007.746094 398.800781 1007.953125 398.921875 C 1013.371094 402.0625 1019.660156 403.859375 1026.371094 403.859375 C 1033.085938 403.859375 1039.375 402.0625 1044.792969 398.921875 C 1045 398.800781 1045.207031 398.675781 1045.414062 398.550781 L 1045.414062 398.398438 C 1045.414062 394.449219 1042.179688 391.761719 1038.265625 391.246094 "/><path style=" stroke:none;fill-rule:nonzero;fill:#939393;fill-opacity:1;" d="M 1039.238281 355.488281 C 1038.277344 352.207031 1033.738281 350.503906 1030.148438 350.089844 C 1030.523438 349.320312 1030.714844 348.429688 1030.75 347.539062 C 1029.246094 349.078125 1027.523438 349.449219 1027.523438 349.449219 C 1027.523438 349.449219 1027.875 348.84375 1027.933594 348.039062 C 1027.1875 348.78125 1025.472656 349.558594 1024.277344 350.042969 C 1019.449219 350.457031 1013.714844 352.609375 1012.65625 360.105469 C 1011.292969 369.757812 1014.398438 375.660156 1014.398438 375.660156 C 1014.398438 375.660156 1014.78125 370.558594 1015.023438 367.316406 C 1015.457031 361.394531 1020.132812 359.347656 1020.132812 359.347656 C 1020.132812 359.347656 1023.253906 363.09375 1027.875 363.40625 C 1032.492188 363.71875 1035.925781 362.476562 1037.175781 365.277344 C 1038.0625 367.273438 1038.34375 375.660156 1038.34375 375.660156 C 1038.34375 375.660156 1042.507812 366.648438 1039.238281 355.488281 "/><path style=" stroke:none;fill-rule:nonzero;fill:#231f20;fill-opacity:1;" d="M 1012.242188 361.605469 C 1012.230469 360.96875 1011.792969 360.425781 1011.171875 360.28125 C 1011.066406 360.257812 1010.964844 360.234375 1010.859375 360.210938 C 1010.625 360.15625 1010.378906 360.214844 1010.191406 360.367188 C 1010.003906 360.523438 1009.894531 360.757812 1009.898438 361.007812 C 1009.898438 361.136719 1009.902344 361.265625 1009.902344 361.390625 C 1009.902344 361.390625 1009.230469 361.253906 1008.117188 361.269531 C 1007.257812 361.28125 1006.558594 362.019531 1006.519531 362.953125 C 1005.535156 363.136719 1004.800781 364.128906 1004.875 365.289062 C 1005.035156 367.820312 1005.308594 370.34375 1005.703125 372.847656 C 1005.878906 373.996094 1006.808594 374.804688 1007.808594 374.773438 C 1008.046875 375.675781 1008.890625 376.246094 1009.730469 376.070312 C 1010.824219 375.847656 1011.449219 375.570312 1011.449219 375.570312 C 1011.476562 375.695312 1011.5 375.820312 1011.527344 375.941406 C 1011.578125 376.1875 1011.734375 376.394531 1011.953125 376.503906 C 1012.117188 376.589844 1012.300781 376.613281 1012.472656 376.574219 C 1012.53125 376.558594 1012.585938 376.542969 1012.640625 376.515625 C 1012.734375 376.46875 1012.832031 376.425781 1012.929688 376.378906 C 1013.503906 376.105469 1013.8125 375.480469 1013.6875 374.855469 C 1012.804688 370.492188 1012.320312 366.058594 1012.242188 361.605469 "/><path style=" stroke:none;fill-rule:nonzero;fill:#231f20;fill-opacity:1;" d="M 1040.503906 361.605469 C 1040.515625 360.96875 1040.953125 360.425781 1041.574219 360.28125 C 1041.679688 360.257812 1041.78125 360.234375 1041.886719 360.210938 C 1042.121094 360.15625 1042.367188 360.214844 1042.554688 360.367188 C 1042.742188 360.523438 1042.851562 360.757812 1042.847656 361.007812 C 1042.847656 361.136719 1042.84375 361.265625 1042.84375 361.390625 C 1042.84375 361.390625 1043.515625 361.253906 1044.628906 361.269531 C 1045.488281 361.28125 1046.1875 362.019531 1046.226562 362.953125 C 1047.210938 363.136719 1047.941406 364.128906 1047.871094 365.289062 C 1047.710938 367.820312 1047.4375 370.34375 1047.042969 372.847656 C 1046.867188 373.996094 1045.9375 374.804688 1044.9375 374.773438 C 1044.699219 375.675781 1043.855469 376.246094 1043.015625 376.070312 C 1041.921875 375.847656 1041.296875 375.570312 1041.296875 375.570312 C 1041.269531 375.695312 1041.246094 375.820312 1041.21875 375.941406 C 1041.167969 376.1875 1041.011719 376.394531 1040.792969 376.503906 C 1040.628906 376.589844 1040.445312 376.613281 1040.273438 376.574219 C 1040.214844 376.558594 1040.160156 376.542969 1040.105469 376.515625 C 1040.011719 376.46875 1039.914062 376.425781 1039.816406 376.378906 C 1039.242188 376.105469 1038.933594 375.480469 1039.058594 374.855469 C 1039.941406 370.492188 1040.425781 366.058594 1040.503906 361.605469 "/><path style=" stroke:none;fill-rule:nonzero;fill:#231f20;fill-opacity:1;" d="M 1043.941406 361.527344 L 1043.355469 361.527344 C 1043.355469 357.707031 1042.117188 354.097656 1039.769531 351.089844 L 1040.234375 350.730469 C 1041.410156 352.238281 1042.328125 353.917969 1042.960938 355.71875 C 1043.613281 357.582031 1043.941406 359.535156 1043.941406 361.527344 "/><path style=" stroke:none;fill-rule:nonzero;fill:#231f20;fill-opacity:1;" d="M 1009.390625 361.527344 L 1008.804688 361.527344 C 1008.804688 359.535156 1009.132812 357.582031 1009.785156 355.71875 C 1010.417969 353.917969 1011.335938 352.238281 1012.511719 350.730469 L 1012.976562 351.089844 C 1010.628906 354.097656 1009.390625 357.707031 1009.390625 361.527344 "/><path style=" stroke:none;fill-rule:nonzero;fill:#231f20;fill-opacity:1;" d="M 1040.613281 349.160156 C 1040.324219 348.832031 1040.019531 348.503906 1039.707031 348.191406 C 1037.976562 346.460938 1035.960938 345.101562 1033.714844 344.152344 C 1031.386719 343.167969 1028.917969 342.667969 1026.371094 342.667969 C 1023.828125 342.667969 1021.359375 343.167969 1019.03125 344.152344 C 1016.785156 345.101562 1014.769531 346.460938 1013.035156 348.191406 C 1012.726562 348.503906 1012.421875 348.828125 1012.136719 349.15625 C 1011.726562 349.625 1011.753906 350.335938 1012.191406 350.773438 L 1012.761719 351.34375 C 1012.984375 351.566406 1013.289062 351.691406 1013.597656 351.691406 C 1013.613281 351.691406 1013.628906 351.691406 1013.640625 351.691406 C 1013.96875 351.679688 1014.28125 351.527344 1014.496094 351.277344 C 1017.488281 347.820312 1021.816406 345.835938 1026.371094 345.835938 C 1030.929688 345.835938 1035.257812 347.820312 1038.246094 351.277344 C 1038.464844 351.527344 1038.773438 351.679688 1039.105469 351.691406 C 1039.429688 351.703125 1039.75 351.574219 1039.980469 351.34375 L 1040.554688 350.773438 C 1040.992188 350.335938 1041.019531 349.625 1040.613281 349.160156 "/><path style=" stroke:none;fill-rule:nonzero;fill:#231f20;fill-opacity:1;" d="M 1034.164062 385.308594 L 1030.363281 385.308594 L 1030.363281 384.722656 L 1034.164062 384.722656 C 1039.234375 384.722656 1043.355469 380.601562 1043.355469 375.53125 L 1043.941406 375.53125 C 1043.941406 378.144531 1042.925781 380.597656 1041.078125 382.445312 C 1039.230469 384.292969 1036.777344 385.308594 1034.164062 385.308594 "/><path style=" stroke:none;fill-rule:nonzero;fill:#231f20;fill-opacity:1;" d="M 1030.015625 384.117188 L 1029.617188 383.765625 C 1029.308594 383.496094 1028.914062 383.34375 1028.5 383.34375 L 1023.996094 383.34375 C 1023.074219 383.34375 1022.324219 384.09375 1022.324219 385.015625 C 1022.324219 385.9375 1023.074219 386.6875 1023.996094 386.6875 L 1028.5 386.6875 C 1028.914062 386.6875 1029.308594 386.539062 1029.617188 386.269531 L 1030.015625 385.917969 C 1030.273438 385.691406 1030.421875 385.359375 1030.421875 385.015625 C 1030.421875 384.671875 1030.273438 384.34375 1030.015625 384.117188 "/><g clip-rule="nonzero" clip-path="url(#ebe24522a9)"><path style=" stroke:none;fill-rule:nonzero;fill:#ffffff;fill-opacity:1;" d="M 1026.371094 331.414062 C 1006.699219 331.414062 990.691406 347.417969 990.691406 367.09375 C 990.691406 379.675781 997.125 391.089844 1007.894531 397.621094 C 1008.097656 397.746094 1008.300781 397.867188 1008.5 397.980469 C 1013.90625 401.117188 1020.085938 402.773438 1026.371094 402.773438 C 1032.660156 402.773438 1038.839844 401.117188 1044.246094 397.980469 C 1044.445312 397.867188 1044.648438 397.746094 1044.851562 397.625 C 1055.621094 391.089844 1062.054688 379.675781 1062.054688 367.09375 C 1062.054688 347.417969 1046.046875 331.414062 1026.371094 331.414062 Z M 1026.371094 404.945312 C 1022.988281 404.945312 1019.628906 404.5 1016.390625 403.617188 C 1013.253906 402.761719 1010.230469 401.496094 1007.410156 399.859375 C 1007.199219 399.738281 1006.980469 399.609375 1006.765625 399.480469 C 1001.304688 396.164062 996.730469 391.488281 993.542969 385.949219 C 991.925781 383.140625 990.679688 380.132812 989.832031 377.011719 C 988.960938 373.796875 988.519531 370.457031 988.519531 367.09375 C 988.519531 361.984375 989.519531 357.027344 991.496094 352.359375 C 993.402344 347.851562 996.132812 343.804688 999.605469 340.328125 C 1003.082031 336.851562 1007.128906 334.121094 1011.636719 332.214844 C 1016.304688 330.242188 1021.261719 329.242188 1026.371094 329.242188 C 1031.484375 329.242188 1036.441406 330.242188 1041.109375 332.214844 C 1045.613281 334.121094 1049.664062 336.851562 1053.140625 340.328125 C 1056.613281 343.804688 1059.34375 347.851562 1061.25 352.359375 C 1063.226562 357.027344 1064.226562 361.984375 1064.226562 367.09375 C 1064.226562 370.457031 1063.785156 373.796875 1062.914062 377.011719 C 1062.066406 380.132812 1060.820312 383.140625 1059.203125 385.949219 C 1056.015625 391.488281 1051.441406 396.164062 1045.976562 399.480469 C 1045.765625 399.609375 1045.546875 399.738281 1045.335938 399.863281 C 1042.515625 401.496094 1039.492188 402.761719 1036.355469 403.617188 C 1033.117188 404.5 1029.757812 404.945312 1026.371094 404.945312 "/></g></g></svg>