<svg xmlns="http://www.w3.org/2000/svg" xmlns:xlink="http://www.w3.org/1999/xlink" width="500" zoomAndPan="magnify" viewBox="0 0 375 374.999991" height="500" preserveAspectRatio="xMidYMid meet" version="1.2"><defs><clipPath id="c13c364508"><path d="M 155.007812 161.054688 L 311.351562 161.054688 L 311.351562 180.417969 L 155.007812 180.417969 Z M 155.007812 161.054688 "/></clipPath><clipPath id="7e3f91aecf"><path d="M 6.929688 132.359375 L 87.929688 132.359375 L 87.929688 213.355469 L 6.929688 213.355469 Z M 6.929688 132.359375 "/></clipPath></defs><g id="c5044d137d"><g style="fill:#215c5c;fill-opacity:1;"><g transform="translate(90.27379, 206.243396)"><path style="stroke:none" d="M 5.421875 -60.28125 C 5.421875 -62.53125 5.117188 -64.304688 4.515625 -65.609375 C 3.910156 -66.921875 2.90625 -67.757812 1.5 -68.125 L 1.5 -68.71875 L 28.640625 -68.71875 L 28.640625 -68.125 C 27.234375 -67.757812 26.226562 -66.921875 25.625 -65.609375 C 25.019531 -64.304688 24.71875 -62.53125 24.71875 -60.28125 L 24.71875 -43.515625 C 25.363281 -44.117188 26.195312 -44.941406 27.21875 -45.984375 C 28.238281 -47.035156 29.320312 -48.191406 30.46875 -49.453125 C 31.613281 -50.722656 32.6875 -52.0625 33.6875 -53.46875 C 34.695312 -54.875 35.523438 -56.25 36.171875 -57.59375 C 36.816406 -58.945312 37.140625 -60.203125 37.140625 -61.359375 C 37.140625 -62.972656 36.925781 -64.222656 36.5 -65.109375 C 36.082031 -65.992188 35.5 -66.65625 34.75 -67.09375 C 34.007812 -67.53125 33.15625 -67.875 32.1875 -68.125 L 32.1875 -68.71875 L 59.3125 -68.71875 L 59.3125 -68.125 C 57.707031 -67.71875 55.816406 -66.832031 53.640625 -65.46875 C 51.472656 -64.101562 49.164062 -62.453125 46.71875 -60.515625 C 44.269531 -58.585938 41.804688 -56.554688 39.328125 -54.421875 C 36.859375 -52.296875 34.5 -50.238281 32.25 -48.25 C 30 -46.257812 27.988281 -44.523438 26.21875 -43.046875 C 27.988281 -43.285156 29.617188 -43.40625 31.109375 -43.40625 C 34.398438 -43.40625 37.160156 -42.898438 39.390625 -41.890625 C 41.617188 -40.890625 43.457031 -39.523438 44.90625 -37.796875 C 46.351562 -36.066406 47.53125 -34.109375 48.4375 -31.921875 C 49.34375 -29.734375 50.078125 -27.429688 50.640625 -25.015625 C 51.203125 -22.609375 51.710938 -20.238281 52.171875 -17.90625 C 52.628906 -15.570312 53.148438 -13.390625 53.734375 -11.359375 C 54.316406 -9.328125 55.09375 -7.585938 56.0625 -6.140625 C 57.03125 -4.703125 58.296875 -3.703125 59.859375 -3.140625 C 59.859375 -3.140625 59.726562 -2.925781 59.46875 -2.5 C 59.207031 -2.082031 58.742188 -1.582031 58.078125 -1 C 57.421875 -0.414062 56.488281 0.0820312 55.28125 0.5 C 54.070312 0.925781 52.523438 1.140625 50.640625 1.140625 C 47.222656 1.140625 44.378906 0.660156 42.109375 -0.296875 C 39.835938 -1.265625 38.007812 -2.570312 36.625 -4.21875 C 35.238281 -5.863281 34.179688 -7.75 33.453125 -9.875 C 32.734375 -12.007812 32.234375 -14.253906 31.953125 -16.609375 C 31.671875 -18.960938 31.476562 -21.320312 31.375 -23.6875 C 31.269531 -26.0625 31.15625 -28.3125 31.03125 -30.4375 C 30.914062 -32.570312 30.664062 -34.484375 30.28125 -36.171875 C 29.90625 -37.859375 29.285156 -39.179688 28.421875 -40.140625 C 27.554688 -41.109375 26.320312 -41.613281 24.71875 -41.65625 L 24.71875 -8.4375 C 24.71875 -6.226562 25.019531 -4.457031 25.625 -3.125 C 26.226562 -1.800781 27.234375 -0.960938 28.640625 -0.609375 L 28.640625 0 L 1.5 0 L 1.5 -0.609375 C 2.90625 -0.960938 3.910156 -1.800781 4.515625 -3.125 C 5.117188 -4.457031 5.421875 -6.226562 5.421875 -8.4375 Z M 5.421875 -60.28125 "/></g></g><g style="fill:#215c5c;fill-opacity:1;"><g transform="translate(149.820038, 206.243396)"><path style="stroke:none" d="M 49.859375 0 L 1.5 0 L 1.5 -0.609375 C 2.90625 -0.960938 3.910156 -1.800781 4.515625 -3.125 C 5.117188 -4.457031 5.421875 -6.226562 5.421875 -8.4375 L 5.421875 -60.28125 C 5.421875 -62.53125 5.117188 -64.304688 4.515625 -65.609375 C 3.910156 -66.921875 2.90625 -67.757812 1.5 -68.125 L 1.5 -68.71875 L 49.859375 -68.71875 L 49.859375 -47.984375 L 49.25 -47.984375 C 49.25 -49.304688 48.914062 -50.8125 48.25 -52.5 C 47.59375 -54.1875 46.640625 -55.914062 45.390625 -57.6875 C 44.140625 -59.457031 42.671875 -61.070312 40.984375 -62.53125 C 39.296875 -64 37.40625 -65.195312 35.3125 -66.125 C 33.226562 -67.050781 31.003906 -67.515625 28.640625 -67.515625 L 24.71875 -67.515625 L 24.71875 -37.3125 L 27.0625 -37.3125 C 28.550781 -37.3125 30.066406 -37.625 31.609375 -38.25 C 33.160156 -38.875 34.609375 -39.675781 35.953125 -40.65625 C 37.304688 -41.644531 38.429688 -42.738281 39.328125 -43.9375 C 40.234375 -45.144531 40.785156 -46.3125 40.984375 -47.4375 L 41.59375 -47.4375 L 41.59375 -25.984375 L 40.984375 -25.984375 C 40.785156 -27.148438 40.234375 -28.320312 39.328125 -29.5 C 38.429688 -30.6875 37.304688 -31.769531 35.953125 -32.75 C 34.609375 -33.738281 33.160156 -34.546875 31.609375 -35.171875 C 30.066406 -35.796875 28.550781 -36.109375 27.0625 -36.109375 L 24.71875 -36.109375 L 24.71875 -1.203125 L 28.640625 -1.203125 C 31.003906 -1.203125 33.226562 -1.664062 35.3125 -2.59375 C 37.40625 -3.519531 39.296875 -4.710938 40.984375 -6.171875 C 42.671875 -7.640625 44.140625 -9.257812 45.390625 -11.03125 C 46.640625 -12.800781 47.59375 -14.53125 48.25 -16.21875 C 48.914062 -17.90625 49.25 -19.410156 49.25 -20.734375 L 49.859375 -20.734375 Z M 49.859375 0 "/></g></g><g style="fill:#215c5c;fill-opacity:1;"><g transform="translate(199.36145, 206.243396)"><path style="stroke:none" d="M 1.5 -68.71875 L 28.640625 -68.71875 L 28.640625 -68.125 C 27.234375 -67.757812 26.226562 -66.921875 25.625 -65.609375 C 25.019531 -64.304688 24.71875 -62.53125 24.71875 -60.28125 L 24.71875 -1.203125 L 28.21875 -1.203125 C 30.582031 -1.203125 32.804688 -1.664062 34.890625 -2.59375 C 36.984375 -3.519531 38.875 -4.710938 40.5625 -6.171875 C 42.25 -7.640625 43.71875 -9.257812 44.96875 -11.03125 C 46.21875 -12.800781 47.171875 -14.53125 47.828125 -16.21875 C 48.492188 -17.90625 48.828125 -19.410156 48.828125 -20.734375 L 49.4375 -20.734375 L 49.4375 0 L 1.5 0 L 1.5 -0.609375 C 2.90625 -0.960938 3.910156 -1.800781 4.515625 -3.125 C 5.117188 -4.457031 5.421875 -6.226562 5.421875 -8.4375 L 5.421875 -60.28125 C 5.421875 -62.53125 5.117188 -64.304688 4.515625 -65.609375 C 3.910156 -66.921875 2.90625 -67.757812 1.5 -68.125 Z M 1.5 -68.71875 "/></g></g><g style="fill:#215c5c;fill-opacity:1;"><g transform="translate(248.480963, 206.243396)"><path style="stroke:none" d="M 0 0 L 0 -0.609375 C 0.757812 -0.609375 1.488281 -1.148438 2.1875 -2.234375 C 2.894531 -3.316406 3.5625 -4.703125 4.1875 -6.390625 C 4.8125 -8.078125 5.382812 -9.863281 5.90625 -11.75 C 6.425781 -13.644531 6.890625 -15.394531 7.296875 -17 C 8.335938 -21.0625 9.289062 -24.804688 10.15625 -28.234375 C 11.019531 -31.671875 11.84375 -34.96875 12.625 -38.125 C 13.40625 -41.28125 14.1875 -44.4375 14.96875 -47.59375 C 15.757812 -50.75 16.597656 -54.050781 17.484375 -57.5 C 18.367188 -60.957031 19.3125 -64.695312 20.3125 -68.71875 L 40.265625 -68.71875 C 41.304688 -64.695312 42.257812 -60.957031 43.125 -57.5 C 43.988281 -54.050781 44.820312 -50.75 45.625 -47.59375 C 46.4375 -44.4375 47.242188 -41.28125 48.046875 -38.125 C 48.847656 -34.96875 49.671875 -31.671875 50.515625 -28.234375 C 51.359375 -24.804688 52.28125 -21.0625 53.28125 -17 C 53.6875 -15.394531 54.148438 -13.644531 54.671875 -11.75 C 55.191406 -9.863281 55.765625 -8.078125 56.390625 -6.390625 C 57.015625 -4.703125 57.675781 -3.316406 58.375 -2.234375 C 59.082031 -1.148438 59.816406 -0.609375 60.578125 -0.609375 L 60.578125 0 L 30.328125 0 L 30.328125 -0.609375 C 31.804688 -1.734375 32.753906 -3.359375 33.171875 -5.484375 C 33.597656 -7.617188 33.703125 -10.039062 33.484375 -12.75 C 33.265625 -15.457031 32.851562 -18.21875 32.25 -21.03125 L 15.25 -21.03125 C 15.65625 -16.375 16.585938 -12.316406 18.046875 -8.859375 C 19.515625 -5.398438 21.65625 -2.648438 24.46875 -0.609375 L 24.46875 0 Z M 20.859375 -66.671875 C 18.847656 -57.867188 17.304688 -49.726562 16.234375 -42.25 C 15.171875 -34.78125 14.820312 -28.113281 15.1875 -22.25 L 32.015625 -22.25 C 31.648438 -23.8125 31.273438 -25.34375 30.890625 -26.84375 C 30.515625 -28.351562 30.164062 -29.796875 29.84375 -31.171875 C 29.113281 -33.984375 28.46875 -36.492188 27.90625 -38.703125 C 27.34375 -40.910156 26.8125 -43.007812 26.3125 -45 C 25.8125 -46.988281 25.296875 -49.023438 24.765625 -51.109375 C 24.242188 -53.203125 23.671875 -55.492188 23.046875 -57.984375 C 22.429688 -60.484375 21.703125 -63.378906 20.859375 -66.671875 Z M 20.859375 -66.671875 "/></g></g><g style="fill:#215c5c;fill-opacity:1;"><g transform="translate(307.2437, 206.243396)"><path style="stroke:none" d="M 1.5 -68.125 L 1.5 -68.71875 L 36.296875 -68.71875 C 40.390625 -68.71875 43.800781 -68.003906 46.53125 -66.578125 C 49.269531 -65.148438 51.320312 -63.25 52.6875 -60.875 C 54.050781 -58.507812 54.734375 -55.898438 54.734375 -53.046875 C 54.734375 -50.078125 54.179688 -47.601562 53.078125 -45.625 C 51.972656 -43.65625 50.4375 -42.109375 48.46875 -40.984375 C 46.5 -39.859375 44.21875 -39.054688 41.625 -38.578125 C 39.03125 -38.097656 36.226562 -37.859375 33.21875 -37.859375 C 36.675781 -37.128906 39.5 -36.03125 41.6875 -34.5625 C 43.875 -33.101562 45.628906 -31.398438 46.953125 -29.453125 C 48.285156 -27.503906 49.320312 -25.429688 50.0625 -23.234375 C 50.800781 -21.046875 51.410156 -18.851562 51.890625 -16.65625 C 52.378906 -14.46875 52.894531 -12.421875 53.4375 -10.515625 C 53.976562 -8.609375 54.722656 -6.953125 55.671875 -5.546875 C 56.617188 -4.140625 57.914062 -3.132812 59.5625 -2.53125 C 59.5625 -2.53125 59.429688 -2.347656 59.171875 -1.984375 C 58.910156 -1.628906 58.445312 -1.195312 57.78125 -0.6875 C 57.113281 -0.1875 56.175781 0.238281 54.96875 0.59375 C 53.769531 0.957031 52.222656 1.140625 50.328125 1.140625 C 46.554688 1.140625 43.472656 0.597656 41.078125 -0.484375 C 38.691406 -1.566406 36.84375 -3.019531 35.53125 -4.84375 C 34.226562 -6.675781 33.296875 -8.726562 32.734375 -11 C 32.171875 -13.269531 31.804688 -15.628906 31.640625 -18.078125 C 31.484375 -20.535156 31.363281 -22.898438 31.28125 -25.171875 C 31.207031 -27.441406 31.007812 -29.488281 30.6875 -31.3125 C 30.363281 -33.144531 29.75 -34.601562 28.84375 -35.6875 C 27.9375 -36.769531 26.5625 -37.3125 24.71875 -37.3125 L 24.71875 -8.4375 C 24.71875 -6.226562 25.019531 -4.457031 25.625 -3.125 C 26.226562 -1.800781 27.234375 -0.960938 28.640625 -0.609375 L 28.640625 0 L 1.5 0 L 1.5 -0.609375 C 2.90625 -0.960938 3.910156 -1.800781 4.515625 -3.125 C 5.117188 -4.457031 5.421875 -6.226562 5.421875 -8.4375 L 5.421875 -60.28125 C 5.421875 -62.53125 5.117188 -64.304688 4.515625 -65.609375 C 3.910156 -66.921875 2.90625 -67.757812 1.5 -68.125 Z M 25.921875 -67.9375 L 24.71875 -67.9375 L 24.71875 -38.515625 L 26.890625 -38.515625 C 28.410156 -38.515625 29.820312 -38.976562 31.125 -39.90625 C 32.4375 -40.832031 33.484375 -42.398438 34.265625 -44.609375 C 35.054688 -46.816406 35.453125 -49.847656 35.453125 -53.703125 C 35.453125 -56.160156 35.164062 -58.472656 34.59375 -60.640625 C 34.03125 -62.804688 33.066406 -64.5625 31.703125 -65.90625 C 30.335938 -67.257812 28.410156 -67.9375 25.921875 -67.9375 Z M 25.921875 -67.9375 "/></g></g><g clip-rule="nonzero" clip-path="url(#c13c364508)"><path style=" stroke:none;fill-rule:nonzero;fill:#ffffff;fill-opacity:1;" d="M 155.007812 161.054688 L 311.320312 161.054688 L 311.320312 180.417969 L 155.007812 180.417969 Z M 155.007812 161.054688 "/></g><g style="fill:#215c5c;fill-opacity:1;"><g transform="translate(183.988518, 167.585855)"><path style="stroke:none" d="M 0.03125 -0.40625 C 0.125 -0.40625 0.207031 -0.4375 0.28125 -0.5 C 0.351562 -0.5625 0.40625 -0.632812 0.4375 -0.71875 C 0.476562 -0.800781 0.53125 -0.925781 0.59375 -1.09375 L 1.75 -4.28125 L 2.171875 -4.28125 L 3.4375 -1.03125 C 3.46875 -0.945312 3.5 -0.847656 3.53125 -0.734375 C 3.570312 -0.617188 3.597656 -0.519531 3.609375 -0.4375 C 3.734375 -0.445312 3.847656 -0.453125 3.953125 -0.453125 L 3.953125 0 L 2.34375 0 L 2.34375 -0.390625 C 2.539062 -0.390625 2.640625 -0.46875 2.640625 -0.625 C 2.640625 -0.707031 2.617188 -0.804688 2.578125 -0.921875 L 2.453125 -1.25 L 1.15625 -1.21875 L 1.0625 -0.9375 C 1.050781 -0.90625 1.023438 -0.832031 0.984375 -0.71875 C 0.941406 -0.613281 0.90625 -0.523438 0.875 -0.453125 C 1 -0.460938 1.140625 -0.46875 1.296875 -0.46875 L 1.296875 0 L 0.03125 0 Z M 2.296875 -1.671875 L 2.03125 -2.40625 C 1.914062 -2.738281 1.835938 -3.015625 1.796875 -3.234375 C 1.734375 -2.941406 1.660156 -2.675781 1.578125 -2.4375 L 1.3125 -1.671875 Z M 2.296875 -1.671875 "/></g></g><g style="fill:#215c5c;fill-opacity:1;"><g transform="translate(187.962008, 167.585855)"><path style="stroke:none" d=""/></g></g><g style="fill:#215c5c;fill-opacity:1;"><g transform="translate(189.526421, 167.585855)"><path style="stroke:none" d="M 1.828125 0.09375 C 1.660156 0.09375 1.484375 0.0664062 1.296875 0.015625 C 1.117188 -0.0351562 0.953125 -0.109375 0.796875 -0.203125 L 0.8125 0.046875 L 0.34375 0.046875 L 0.34375 -1.34375 L 0.75 -1.34375 C 0.800781 -1.007812 0.925781 -0.753906 1.125 -0.578125 C 1.320312 -0.410156 1.5625 -0.328125 1.84375 -0.328125 C 2.050781 -0.328125 2.222656 -0.378906 2.359375 -0.484375 C 2.492188 -0.597656 2.5625 -0.734375 2.5625 -0.890625 C 2.5625 -1.015625 2.515625 -1.125 2.421875 -1.21875 C 2.335938 -1.3125 2.238281 -1.382812 2.125 -1.4375 C 2.019531 -1.488281 1.847656 -1.5625 1.609375 -1.65625 C 1.171875 -1.832031 0.832031 -2.03125 0.59375 -2.25 C 0.363281 -2.46875 0.25 -2.757812 0.25 -3.125 C 0.25 -3.3125 0.296875 -3.488281 0.390625 -3.65625 C 0.484375 -3.832031 0.632812 -3.976562 0.84375 -4.09375 C 1.050781 -4.207031 1.320312 -4.265625 1.65625 -4.265625 C 1.820312 -4.265625 2 -4.238281 2.1875 -4.1875 C 2.375 -4.132812 2.53125 -4.066406 2.65625 -3.984375 L 2.625 -4.21875 L 3.09375 -4.21875 L 3.09375 -2.828125 L 2.703125 -2.828125 C 2.648438 -3.160156 2.535156 -3.410156 2.359375 -3.578125 C 2.179688 -3.742188 1.957031 -3.828125 1.6875 -3.828125 C 1.507812 -3.828125 1.351562 -3.78125 1.21875 -3.6875 C 1.09375 -3.59375 1.03125 -3.472656 1.03125 -3.328125 C 1.03125 -3.148438 1.101562 -3 1.25 -2.875 C 1.394531 -2.757812 1.644531 -2.628906 2 -2.484375 C 2.394531 -2.328125 2.71875 -2.144531 2.96875 -1.9375 C 3.226562 -1.726562 3.359375 -1.453125 3.359375 -1.109375 C 3.359375 -0.867188 3.289062 -0.65625 3.15625 -0.46875 C 3.03125 -0.289062 2.851562 -0.148438 2.625 -0.046875 C 2.394531 0.046875 2.128906 0.09375 1.828125 0.09375 Z M 1.828125 0.09375 "/></g></g><g style="fill:#215c5c;fill-opacity:1;"><g transform="translate(193.083532, 167.585855)"><path style="stroke:none" d="M 1.625 -1.90625 C 1.5625 -2.039062 1.488281 -2.234375 1.40625 -2.484375 C 1.332031 -2.734375 1.265625 -2.988281 1.203125 -3.25 C 1.210938 -2.882812 1.21875 -2.550781 1.21875 -2.25 L 1.21875 -0.96875 C 1.21875 -0.726562 1.207031 -0.550781 1.1875 -0.4375 C 1.3125 -0.445312 1.460938 -0.453125 1.640625 -0.453125 L 1.640625 0 L 0.28125 0 L 0.28125 -0.390625 C 0.382812 -0.398438 0.460938 -0.414062 0.515625 -0.4375 C 0.578125 -0.457031 0.625 -0.5 0.65625 -0.5625 C 0.6875 -0.632812 0.703125 -0.75 0.703125 -0.90625 L 0.734375 -3.1875 C 0.742188 -3.476562 0.753906 -3.660156 0.765625 -3.734375 L 0.3125 -3.703125 L 0.3125 -4.171875 L 1.625 -4.171875 L 2.53125 -1.859375 C 2.59375 -1.703125 2.65625 -1.53125 2.71875 -1.34375 C 2.789062 -1.164062 2.835938 -1.023438 2.859375 -0.921875 L 2.875 -0.921875 C 2.882812 -0.960938 2.925781 -1.085938 3 -1.296875 C 3.050781 -1.453125 3.101562 -1.585938 3.15625 -1.703125 L 4.078125 -4.171875 L 5.453125 -4.171875 L 5.453125 -3.78125 C 5.335938 -3.769531 5.25 -3.753906 5.1875 -3.734375 C 5.132812 -3.710938 5.09375 -3.664062 5.0625 -3.59375 C 5.03125 -3.519531 5.015625 -3.40625 5.015625 -3.25 L 5.109375 -0.96875 C 5.117188 -0.769531 5.109375 -0.59375 5.078125 -0.4375 C 5.210938 -0.445312 5.363281 -0.453125 5.53125 -0.453125 L 5.53125 0 L 3.875 0 L 3.875 -0.390625 C 3.988281 -0.398438 4.070312 -0.414062 4.125 -0.4375 C 4.1875 -0.457031 4.234375 -0.5 4.265625 -0.5625 C 4.296875 -0.632812 4.304688 -0.75 4.296875 -0.90625 L 4.25 -2.171875 L 4.25 -2.40625 C 4.226562 -2.78125 4.210938 -3.046875 4.203125 -3.203125 L 2.984375 0.0625 L 2.421875 0.0625 Z M 1.625 -1.90625 "/></g></g><g style="fill:#215c5c;fill-opacity:1;"><g transform="translate(198.865318, 167.585855)"><path style="stroke:none" d="M 0.03125 -0.40625 C 0.125 -0.40625 0.207031 -0.4375 0.28125 -0.5 C 0.351562 -0.5625 0.40625 -0.632812 0.4375 -0.71875 C 0.476562 -0.800781 0.53125 -0.925781 0.59375 -1.09375 L 1.75 -4.28125 L 2.171875 -4.28125 L 3.4375 -1.03125 C 3.46875 -0.945312 3.5 -0.847656 3.53125 -0.734375 C 3.570312 -0.617188 3.597656 -0.519531 3.609375 -0.4375 C 3.734375 -0.445312 3.847656 -0.453125 3.953125 -0.453125 L 3.953125 0 L 2.34375 0 L 2.34375 -0.390625 C 2.539062 -0.390625 2.640625 -0.46875 2.640625 -0.625 C 2.640625 -0.707031 2.617188 -0.804688 2.578125 -0.921875 L 2.453125 -1.25 L 1.15625 -1.21875 L 1.0625 -0.9375 C 1.050781 -0.90625 1.023438 -0.832031 0.984375 -0.71875 C 0.941406 -0.613281 0.90625 -0.523438 0.875 -0.453125 C 1 -0.460938 1.140625 -0.46875 1.296875 -0.46875 L 1.296875 0 L 0.03125 0 Z M 2.296875 -1.671875 L 2.03125 -2.40625 C 1.914062 -2.738281 1.835938 -3.015625 1.796875 -3.234375 C 1.734375 -2.941406 1.660156 -2.675781 1.578125 -2.4375 L 1.3125 -1.671875 Z M 2.296875 -1.671875 "/></g></g><g style="fill:#215c5c;fill-opacity:1;"><g transform="translate(202.838808, 167.585855)"><path style="stroke:none" d="M 0.296875 -0.390625 C 0.398438 -0.398438 0.476562 -0.414062 0.53125 -0.4375 C 0.59375 -0.457031 0.640625 -0.5 0.671875 -0.5625 C 0.703125 -0.632812 0.71875 -0.75 0.71875 -0.90625 L 0.71875 -3.1875 C 0.71875 -3.414062 0.726562 -3.597656 0.75 -3.734375 L 0.296875 -3.703125 L 0.296875 -4.171875 L 1.984375 -4.171875 C 2.523438 -4.179688 2.941406 -4.085938 3.234375 -3.890625 C 3.535156 -3.703125 3.6875 -3.390625 3.6875 -2.953125 C 3.6875 -2.671875 3.597656 -2.425781 3.421875 -2.21875 C 3.242188 -2.007812 2.984375 -1.851562 2.640625 -1.75 C 2.710938 -1.71875 2.785156 -1.664062 2.859375 -1.59375 C 2.929688 -1.53125 2.992188 -1.457031 3.046875 -1.375 L 3.328125 -0.953125 C 3.460938 -0.742188 3.570312 -0.597656 3.65625 -0.515625 C 3.75 -0.441406 3.863281 -0.398438 4 -0.390625 L 4 0 L 3.015625 0 C 2.953125 -0.0507812 2.882812 -0.117188 2.8125 -0.203125 C 2.75 -0.296875 2.671875 -0.414062 2.578125 -0.5625 L 2.140625 -1.28125 C 2.046875 -1.4375 1.960938 -1.550781 1.890625 -1.625 L 1.578125 -1.625 L 1.578125 -0.984375 C 1.578125 -0.753906 1.570312 -0.570312 1.5625 -0.4375 C 1.6875 -0.445312 1.851562 -0.453125 2.0625 -0.453125 L 2.0625 0 L 0.296875 0 Z M 1.875 -2.046875 C 2.195312 -2.046875 2.429688 -2.117188 2.578125 -2.265625 C 2.722656 -2.410156 2.796875 -2.640625 2.796875 -2.953125 C 2.796875 -3.273438 2.707031 -3.488281 2.53125 -3.59375 C 2.363281 -3.707031 2.179688 -3.765625 1.984375 -3.765625 C 1.847656 -3.765625 1.742188 -3.734375 1.671875 -3.671875 C 1.609375 -3.609375 1.578125 -3.484375 1.578125 -3.296875 L 1.578125 -2.078125 C 1.703125 -2.054688 1.800781 -2.046875 1.875 -2.046875 Z M 1.875 -2.046875 "/></g></g><g style="fill:#215c5c;fill-opacity:1;"><g transform="translate(206.91937, 167.585855)"><path style="stroke:none" d="M 1.078125 -0.390625 C 1.179688 -0.398438 1.257812 -0.414062 1.3125 -0.4375 C 1.375 -0.457031 1.421875 -0.5 1.453125 -0.5625 C 1.484375 -0.632812 1.5 -0.75 1.5 -0.90625 L 1.5 -3.765625 L 1.21875 -3.765625 C 0.988281 -3.753906 0.804688 -3.671875 0.671875 -3.515625 C 0.546875 -3.367188 0.484375 -3.140625 0.484375 -2.828125 L 0.09375 -2.828125 L 0.125 -4.171875 L 3.734375 -4.171875 L 3.765625 -2.828125 L 3.375 -2.828125 C 3.375 -3.140625 3.304688 -3.375 3.171875 -3.53125 C 3.046875 -3.695312 2.867188 -3.773438 2.640625 -3.765625 L 2.359375 -3.765625 L 2.359375 -0.96875 C 2.359375 -0.707031 2.347656 -0.53125 2.328125 -0.4375 C 2.460938 -0.445312 2.625 -0.453125 2.8125 -0.453125 L 2.8125 0 L 1.078125 0 Z M 1.078125 -0.390625 "/></g></g><g style="fill:#215c5c;fill-opacity:1;"><g transform="translate(210.785789, 167.585855)"><path style="stroke:none" d=""/></g></g><g style="fill:#215c5c;fill-opacity:1;"><g transform="translate(212.350202, 167.585855)"><path style="stroke:none" d="M 0.53125 -3.15625 C 0.425781 -3.414062 0.375 -3.609375 0.375 -3.734375 L 0.046875 -3.703125 L 0.046875 -4.171875 L 1.796875 -4.171875 L 1.796875 -3.78125 C 1.535156 -3.78125 1.40625 -3.695312 1.40625 -3.53125 C 1.40625 -3.457031 1.421875 -3.382812 1.453125 -3.3125 L 2 -1.96875 C 2.050781 -1.851562 2.113281 -1.707031 2.1875 -1.53125 C 2.207031 -1.46875 2.257812 -1.332031 2.34375 -1.125 L 2.640625 -1.9375 L 3.09375 -3.1875 C 3.175781 -3.457031 3.253906 -3.640625 3.328125 -3.734375 L 3.03125 -3.71875 L 2.875 -3.703125 L 2.875 -4.171875 L 4.21875 -4.171875 L 4.21875 -3.78125 C 4.070312 -3.769531 3.945312 -3.710938 3.84375 -3.609375 C 3.75 -3.515625 3.660156 -3.359375 3.578125 -3.140625 L 2.390625 0.03125 L 1.90625 0.03125 Z M 0.53125 -3.15625 "/></g></g><g style="fill:#215c5c;fill-opacity:1;"><g transform="translate(216.561629, 167.585855)"><path style="stroke:none" d="M 0.296875 -0.390625 C 0.398438 -0.398438 0.476562 -0.414062 0.53125 -0.4375 C 0.59375 -0.457031 0.640625 -0.5 0.671875 -0.5625 C 0.703125 -0.632812 0.71875 -0.75 0.71875 -0.90625 L 0.71875 -3.1875 C 0.71875 -3.414062 0.726562 -3.597656 0.75 -3.734375 L 0.296875 -3.703125 L 0.296875 -4.171875 L 2 -4.171875 L 2 -3.78125 C 1.894531 -3.769531 1.8125 -3.753906 1.75 -3.734375 C 1.695312 -3.710938 1.65625 -3.664062 1.625 -3.59375 C 1.59375 -3.519531 1.578125 -3.40625 1.578125 -3.25 L 1.578125 -0.96875 C 1.578125 -0.75 1.570312 -0.570312 1.5625 -0.4375 C 1.6875 -0.445312 1.832031 -0.453125 2 -0.453125 L 2 0 L 0.296875 0 Z M 0.296875 -0.390625 "/></g></g><g style="fill:#215c5c;fill-opacity:1;"><g transform="translate(218.863635, 167.585855)"><path style="stroke:none" d="M 0.296875 -0.390625 C 0.398438 -0.398438 0.476562 -0.414062 0.53125 -0.4375 C 0.59375 -0.457031 0.640625 -0.5 0.671875 -0.5625 C 0.703125 -0.632812 0.71875 -0.75 0.71875 -0.90625 L 0.71875 -3.1875 C 0.71875 -3.414062 0.726562 -3.597656 0.75 -3.734375 L 0.296875 -3.703125 L 0.296875 -4.171875 L 1.984375 -4.171875 C 2.523438 -4.179688 2.941406 -4.085938 3.234375 -3.890625 C 3.535156 -3.703125 3.6875 -3.390625 3.6875 -2.953125 C 3.6875 -2.671875 3.597656 -2.425781 3.421875 -2.21875 C 3.242188 -2.007812 2.984375 -1.851562 2.640625 -1.75 C 2.710938 -1.71875 2.785156 -1.664062 2.859375 -1.59375 C 2.929688 -1.53125 2.992188 -1.457031 3.046875 -1.375 L 3.328125 -0.953125 C 3.460938 -0.742188 3.570312 -0.597656 3.65625 -0.515625 C 3.75 -0.441406 3.863281 -0.398438 4 -0.390625 L 4 0 L 3.015625 0 C 2.953125 -0.0507812 2.882812 -0.117188 2.8125 -0.203125 C 2.75 -0.296875 2.671875 -0.414062 2.578125 -0.5625 L 2.140625 -1.28125 C 2.046875 -1.4375 1.960938 -1.550781 1.890625 -1.625 L 1.578125 -1.625 L 1.578125 -0.984375 C 1.578125 -0.753906 1.570312 -0.570312 1.5625 -0.4375 C 1.6875 -0.445312 1.851562 -0.453125 2.0625 -0.453125 L 2.0625 0 L 0.296875 0 Z M 1.875 -2.046875 C 2.195312 -2.046875 2.429688 -2.117188 2.578125 -2.265625 C 2.722656 -2.410156 2.796875 -2.640625 2.796875 -2.953125 C 2.796875 -3.273438 2.707031 -3.488281 2.53125 -3.59375 C 2.363281 -3.707031 2.179688 -3.765625 1.984375 -3.765625 C 1.847656 -3.765625 1.742188 -3.734375 1.671875 -3.671875 C 1.609375 -3.609375 1.578125 -3.484375 1.578125 -3.296875 L 1.578125 -2.078125 C 1.703125 -2.054688 1.800781 -2.046875 1.875 -2.046875 Z M 1.875 -2.046875 "/></g></g><g style="fill:#215c5c;fill-opacity:1;"><g transform="translate(222.944196, 167.585855)"><path style="stroke:none" d="M 1.078125 -0.390625 C 1.179688 -0.398438 1.257812 -0.414062 1.3125 -0.4375 C 1.375 -0.457031 1.421875 -0.5 1.453125 -0.5625 C 1.484375 -0.632812 1.5 -0.75 1.5 -0.90625 L 1.5 -3.765625 L 1.21875 -3.765625 C 0.988281 -3.753906 0.804688 -3.671875 0.671875 -3.515625 C 0.546875 -3.367188 0.484375 -3.140625 0.484375 -2.828125 L 0.09375 -2.828125 L 0.125 -4.171875 L 3.734375 -4.171875 L 3.765625 -2.828125 L 3.375 -2.828125 C 3.375 -3.140625 3.304688 -3.375 3.171875 -3.53125 C 3.046875 -3.695312 2.867188 -3.773438 2.640625 -3.765625 L 2.359375 -3.765625 L 2.359375 -0.96875 C 2.359375 -0.707031 2.347656 -0.53125 2.328125 -0.4375 C 2.460938 -0.445312 2.625 -0.453125 2.8125 -0.453125 L 2.8125 0 L 1.078125 0 Z M 1.078125 -0.390625 "/></g></g><g style="fill:#215c5c;fill-opacity:1;"><g transform="translate(226.810615, 167.585855)"><path style="stroke:none" d="M 2.296875 0.09375 C 1.671875 0.09375 1.226562 -0.0703125 0.96875 -0.40625 C 0.707031 -0.738281 0.578125 -1.1875 0.578125 -1.75 L 0.578125 -3.1875 C 0.578125 -3.414062 0.582031 -3.597656 0.59375 -3.734375 L 0.15625 -3.703125 L 0.15625 -4.171875 L 1.859375 -4.171875 L 1.859375 -3.78125 C 1.753906 -3.769531 1.671875 -3.753906 1.609375 -3.734375 C 1.554688 -3.710938 1.515625 -3.664062 1.484375 -3.59375 C 1.453125 -3.519531 1.4375 -3.40625 1.4375 -3.25 L 1.4375 -1.625 C 1.4375 -0.78125 1.769531 -0.359375 2.4375 -0.359375 C 2.75 -0.359375 2.988281 -0.460938 3.15625 -0.671875 C 3.332031 -0.890625 3.421875 -1.207031 3.421875 -1.625 L 3.421875 -3.1875 C 3.421875 -3.457031 3.429688 -3.640625 3.453125 -3.734375 L 3 -3.703125 L 3 -4.171875 L 4.375 -4.171875 L 4.375 -3.78125 C 4.269531 -3.769531 4.1875 -3.753906 4.125 -3.734375 C 4.070312 -3.710938 4.03125 -3.664062 4 -3.59375 C 3.96875 -3.519531 3.953125 -3.40625 3.953125 -3.25 L 3.953125 -1.765625 C 3.953125 -1.117188 3.800781 -0.644531 3.5 -0.34375 C 3.207031 -0.0507812 2.804688 0.09375 2.296875 0.09375 Z M 2.296875 0.09375 "/></g></g><g style="fill:#215c5c;fill-opacity:1;"><g transform="translate(231.331359, 167.585855)"><path style="stroke:none" d="M 0.03125 -0.40625 C 0.125 -0.40625 0.207031 -0.4375 0.28125 -0.5 C 0.351562 -0.5625 0.40625 -0.632812 0.4375 -0.71875 C 0.476562 -0.800781 0.53125 -0.925781 0.59375 -1.09375 L 1.75 -4.28125 L 2.171875 -4.28125 L 3.4375 -1.03125 C 3.46875 -0.945312 3.5 -0.847656 3.53125 -0.734375 C 3.570312 -0.617188 3.597656 -0.519531 3.609375 -0.4375 C 3.734375 -0.445312 3.847656 -0.453125 3.953125 -0.453125 L 3.953125 0 L 2.34375 0 L 2.34375 -0.390625 C 2.539062 -0.390625 2.640625 -0.46875 2.640625 -0.625 C 2.640625 -0.707031 2.617188 -0.804688 2.578125 -0.921875 L 2.453125 -1.25 L 1.15625 -1.21875 L 1.0625 -0.9375 C 1.050781 -0.90625 1.023438 -0.832031 0.984375 -0.71875 C 0.941406 -0.613281 0.90625 -0.523438 0.875 -0.453125 C 1 -0.460938 1.140625 -0.46875 1.296875 -0.46875 L 1.296875 0 L 0.03125 0 Z M 2.296875 -1.671875 L 2.03125 -2.40625 C 1.914062 -2.738281 1.835938 -3.015625 1.796875 -3.234375 C 1.734375 -2.941406 1.660156 -2.675781 1.578125 -2.4375 L 1.3125 -1.671875 Z M 2.296875 -1.671875 "/></g></g><g style="fill:#215c5c;fill-opacity:1;"><g transform="translate(235.304849, 167.585855)"><path style="stroke:none" d="M 0.296875 -0.390625 C 0.398438 -0.398438 0.476562 -0.414062 0.53125 -0.4375 C 0.59375 -0.457031 0.640625 -0.5 0.671875 -0.5625 C 0.703125 -0.632812 0.71875 -0.75 0.71875 -0.90625 L 0.71875 -3.1875 C 0.71875 -3.414062 0.726562 -3.597656 0.75 -3.734375 L 0.296875 -3.703125 L 0.296875 -4.171875 L 2 -4.171875 L 2 -3.78125 C 1.894531 -3.769531 1.8125 -3.753906 1.75 -3.734375 C 1.695312 -3.710938 1.65625 -3.664062 1.625 -3.59375 C 1.59375 -3.519531 1.578125 -3.40625 1.578125 -3.25 L 1.578125 -0.96875 C 1.578125 -0.757812 1.570312 -0.585938 1.5625 -0.453125 L 2.359375 -0.453125 C 2.597656 -0.453125 2.78125 -0.535156 2.90625 -0.703125 C 3.039062 -0.867188 3.109375 -1.109375 3.109375 -1.421875 L 3.5 -1.421875 L 3.46875 0 L 0.296875 0 Z M 0.296875 -0.390625 "/></g></g><g style="fill:#215c5c;fill-opacity:1;"><g transform="translate(238.897645, 167.585855)"><path style="stroke:none" d=""/></g></g><g style="fill:#215c5c;fill-opacity:1;"><g transform="translate(240.462058, 167.585855)"><path style="stroke:none" d="M 0.03125 -0.40625 C 0.125 -0.40625 0.207031 -0.4375 0.28125 -0.5 C 0.351562 -0.5625 0.40625 -0.632812 0.4375 -0.71875 C 0.476562 -0.800781 0.53125 -0.925781 0.59375 -1.09375 L 1.75 -4.28125 L 2.171875 -4.28125 L 3.4375 -1.03125 C 3.46875 -0.945312 3.5 -0.847656 3.53125 -0.734375 C 3.570312 -0.617188 3.597656 -0.519531 3.609375 -0.4375 C 3.734375 -0.445312 3.847656 -0.453125 3.953125 -0.453125 L 3.953125 0 L 2.34375 0 L 2.34375 -0.390625 C 2.539062 -0.390625 2.640625 -0.46875 2.640625 -0.625 C 2.640625 -0.707031 2.617188 -0.804688 2.578125 -0.921875 L 2.453125 -1.25 L 1.15625 -1.21875 L 1.0625 -0.9375 C 1.050781 -0.90625 1.023438 -0.832031 0.984375 -0.71875 C 0.941406 -0.613281 0.90625 -0.523438 0.875 -0.453125 C 1 -0.460938 1.140625 -0.46875 1.296875 -0.46875 L 1.296875 0 L 0.03125 0 Z M 2.296875 -1.671875 L 2.03125 -2.40625 C 1.914062 -2.738281 1.835938 -3.015625 1.796875 -3.234375 C 1.734375 -2.941406 1.660156 -2.675781 1.578125 -2.4375 L 1.3125 -1.671875 Z M 2.296875 -1.671875 "/></g></g><g style="fill:#215c5c;fill-opacity:1;"><g transform="translate(244.435549, 167.585855)"><path style="stroke:none" d="M 1.828125 0.09375 C 1.660156 0.09375 1.484375 0.0664062 1.296875 0.015625 C 1.117188 -0.0351562 0.953125 -0.109375 0.796875 -0.203125 L 0.8125 0.046875 L 0.34375 0.046875 L 0.34375 -1.34375 L 0.75 -1.34375 C 0.800781 -1.007812 0.925781 -0.753906 1.125 -0.578125 C 1.320312 -0.410156 1.5625 -0.328125 1.84375 -0.328125 C 2.050781 -0.328125 2.222656 -0.378906 2.359375 -0.484375 C 2.492188 -0.597656 2.5625 -0.734375 2.5625 -0.890625 C 2.5625 -1.015625 2.515625 -1.125 2.421875 -1.21875 C 2.335938 -1.3125 2.238281 -1.382812 2.125 -1.4375 C 2.019531 -1.488281 1.847656 -1.5625 1.609375 -1.65625 C 1.171875 -1.832031 0.832031 -2.03125 0.59375 -2.25 C 0.363281 -2.46875 0.25 -2.757812 0.25 -3.125 C 0.25 -3.3125 0.296875 -3.488281 0.390625 -3.65625 C 0.484375 -3.832031 0.632812 -3.976562 0.84375 -4.09375 C 1.050781 -4.207031 1.320312 -4.265625 1.65625 -4.265625 C 1.820312 -4.265625 2 -4.238281 2.1875 -4.1875 C 2.375 -4.132812 2.53125 -4.066406 2.65625 -3.984375 L 2.625 -4.21875 L 3.09375 -4.21875 L 3.09375 -2.828125 L 2.703125 -2.828125 C 2.648438 -3.160156 2.535156 -3.410156 2.359375 -3.578125 C 2.179688 -3.742188 1.957031 -3.828125 1.6875 -3.828125 C 1.507812 -3.828125 1.351562 -3.78125 1.21875 -3.6875 C 1.09375 -3.59375 1.03125 -3.472656 1.03125 -3.328125 C 1.03125 -3.148438 1.101562 -3 1.25 -2.875 C 1.394531 -2.757812 1.644531 -2.628906 2 -2.484375 C 2.394531 -2.328125 2.71875 -2.144531 2.96875 -1.9375 C 3.226562 -1.726562 3.359375 -1.453125 3.359375 -1.109375 C 3.359375 -0.867188 3.289062 -0.65625 3.15625 -0.46875 C 3.03125 -0.289062 2.851562 -0.148438 2.625 -0.046875 C 2.394531 0.046875 2.128906 0.09375 1.828125 0.09375 Z M 1.828125 0.09375 "/></g></g><g style="fill:#215c5c;fill-opacity:1;"><g transform="translate(247.99266, 167.585855)"><path style="stroke:none" d="M 1.828125 0.09375 C 1.660156 0.09375 1.484375 0.0664062 1.296875 0.015625 C 1.117188 -0.0351562 0.953125 -0.109375 0.796875 -0.203125 L 0.8125 0.046875 L 0.34375 0.046875 L 0.34375 -1.34375 L 0.75 -1.34375 C 0.800781 -1.007812 0.925781 -0.753906 1.125 -0.578125 C 1.320312 -0.410156 1.5625 -0.328125 1.84375 -0.328125 C 2.050781 -0.328125 2.222656 -0.378906 2.359375 -0.484375 C 2.492188 -0.597656 2.5625 -0.734375 2.5625 -0.890625 C 2.5625 -1.015625 2.515625 -1.125 2.421875 -1.21875 C 2.335938 -1.3125 2.238281 -1.382812 2.125 -1.4375 C 2.019531 -1.488281 1.847656 -1.5625 1.609375 -1.65625 C 1.171875 -1.832031 0.832031 -2.03125 0.59375 -2.25 C 0.363281 -2.46875 0.25 -2.757812 0.25 -3.125 C 0.25 -3.3125 0.296875 -3.488281 0.390625 -3.65625 C 0.484375 -3.832031 0.632812 -3.976562 0.84375 -4.09375 C 1.050781 -4.207031 1.320312 -4.265625 1.65625 -4.265625 C 1.820312 -4.265625 2 -4.238281 2.1875 -4.1875 C 2.375 -4.132812 2.53125 -4.066406 2.65625 -3.984375 L 2.625 -4.21875 L 3.09375 -4.21875 L 3.09375 -2.828125 L 2.703125 -2.828125 C 2.648438 -3.160156 2.535156 -3.410156 2.359375 -3.578125 C 2.179688 -3.742188 1.957031 -3.828125 1.6875 -3.828125 C 1.507812 -3.828125 1.351562 -3.78125 1.21875 -3.6875 C 1.09375 -3.59375 1.03125 -3.472656 1.03125 -3.328125 C 1.03125 -3.148438 1.101562 -3 1.25 -2.875 C 1.394531 -2.757812 1.644531 -2.628906 2 -2.484375 C 2.394531 -2.328125 2.71875 -2.144531 2.96875 -1.9375 C 3.226562 -1.726562 3.359375 -1.453125 3.359375 -1.109375 C 3.359375 -0.867188 3.289062 -0.65625 3.15625 -0.46875 C 3.03125 -0.289062 2.851562 -0.148438 2.625 -0.046875 C 2.394531 0.046875 2.128906 0.09375 1.828125 0.09375 Z M 1.828125 0.09375 "/></g></g><g style="fill:#215c5c;fill-opacity:1;"><g transform="translate(251.54977, 167.585855)"><path style="stroke:none" d="M 0.296875 -0.390625 C 0.398438 -0.398438 0.476562 -0.414062 0.53125 -0.4375 C 0.59375 -0.457031 0.640625 -0.5 0.671875 -0.5625 C 0.703125 -0.632812 0.71875 -0.75 0.71875 -0.90625 L 0.71875 -3.1875 C 0.71875 -3.414062 0.726562 -3.597656 0.75 -3.734375 L 0.296875 -3.703125 L 0.296875 -4.171875 L 2 -4.171875 L 2 -3.78125 C 1.894531 -3.769531 1.8125 -3.753906 1.75 -3.734375 C 1.695312 -3.710938 1.65625 -3.664062 1.625 -3.59375 C 1.59375 -3.519531 1.578125 -3.40625 1.578125 -3.25 L 1.578125 -0.96875 C 1.578125 -0.75 1.570312 -0.570312 1.5625 -0.4375 C 1.6875 -0.445312 1.832031 -0.453125 2 -0.453125 L 2 0 L 0.296875 0 Z M 0.296875 -0.390625 "/></g></g><g style="fill:#215c5c;fill-opacity:1;"><g transform="translate(253.851776, 167.585855)"><path style="stroke:none" d="M 1.828125 0.09375 C 1.660156 0.09375 1.484375 0.0664062 1.296875 0.015625 C 1.117188 -0.0351562 0.953125 -0.109375 0.796875 -0.203125 L 0.8125 0.046875 L 0.34375 0.046875 L 0.34375 -1.34375 L 0.75 -1.34375 C 0.800781 -1.007812 0.925781 -0.753906 1.125 -0.578125 C 1.320312 -0.410156 1.5625 -0.328125 1.84375 -0.328125 C 2.050781 -0.328125 2.222656 -0.378906 2.359375 -0.484375 C 2.492188 -0.597656 2.5625 -0.734375 2.5625 -0.890625 C 2.5625 -1.015625 2.515625 -1.125 2.421875 -1.21875 C 2.335938 -1.3125 2.238281 -1.382812 2.125 -1.4375 C 2.019531 -1.488281 1.847656 -1.5625 1.609375 -1.65625 C 1.171875 -1.832031 0.832031 -2.03125 0.59375 -2.25 C 0.363281 -2.46875 0.25 -2.757812 0.25 -3.125 C 0.25 -3.3125 0.296875 -3.488281 0.390625 -3.65625 C 0.484375 -3.832031 0.632812 -3.976562 0.84375 -4.09375 C 1.050781 -4.207031 1.320312 -4.265625 1.65625 -4.265625 C 1.820312 -4.265625 2 -4.238281 2.1875 -4.1875 C 2.375 -4.132812 2.53125 -4.066406 2.65625 -3.984375 L 2.625 -4.21875 L 3.09375 -4.21875 L 3.09375 -2.828125 L 2.703125 -2.828125 C 2.648438 -3.160156 2.535156 -3.410156 2.359375 -3.578125 C 2.179688 -3.742188 1.957031 -3.828125 1.6875 -3.828125 C 1.507812 -3.828125 1.351562 -3.78125 1.21875 -3.6875 C 1.09375 -3.59375 1.03125 -3.472656 1.03125 -3.328125 C 1.03125 -3.148438 1.101562 -3 1.25 -2.875 C 1.394531 -2.757812 1.644531 -2.628906 2 -2.484375 C 2.394531 -2.328125 2.71875 -2.144531 2.96875 -1.9375 C 3.226562 -1.726562 3.359375 -1.453125 3.359375 -1.109375 C 3.359375 -0.867188 3.289062 -0.65625 3.15625 -0.46875 C 3.03125 -0.289062 2.851562 -0.148438 2.625 -0.046875 C 2.394531 0.046875 2.128906 0.09375 1.828125 0.09375 Z M 1.828125 0.09375 "/></g></g><g style="fill:#215c5c;fill-opacity:1;"><g transform="translate(257.408887, 167.585855)"><path style="stroke:none" d="M 1.078125 -0.390625 C 1.179688 -0.398438 1.257812 -0.414062 1.3125 -0.4375 C 1.375 -0.457031 1.421875 -0.5 1.453125 -0.5625 C 1.484375 -0.632812 1.5 -0.75 1.5 -0.90625 L 1.5 -3.765625 L 1.21875 -3.765625 C 0.988281 -3.753906 0.804688 -3.671875 0.671875 -3.515625 C 0.546875 -3.367188 0.484375 -3.140625 0.484375 -2.828125 L 0.09375 -2.828125 L 0.125 -4.171875 L 3.734375 -4.171875 L 3.765625 -2.828125 L 3.375 -2.828125 C 3.375 -3.140625 3.304688 -3.375 3.171875 -3.53125 C 3.046875 -3.695312 2.867188 -3.773438 2.640625 -3.765625 L 2.359375 -3.765625 L 2.359375 -0.96875 C 2.359375 -0.707031 2.347656 -0.53125 2.328125 -0.4375 C 2.460938 -0.445312 2.625 -0.453125 2.8125 -0.453125 L 2.8125 0 L 1.078125 0 Z M 1.078125 -0.390625 "/></g></g><g style="fill:#215c5c;fill-opacity:1;"><g transform="translate(261.275306, 167.585855)"><path style="stroke:none" d="M 0.03125 -0.40625 C 0.125 -0.40625 0.207031 -0.4375 0.28125 -0.5 C 0.351562 -0.5625 0.40625 -0.632812 0.4375 -0.71875 C 0.476562 -0.800781 0.53125 -0.925781 0.59375 -1.09375 L 1.75 -4.28125 L 2.171875 -4.28125 L 3.4375 -1.03125 C 3.46875 -0.945312 3.5 -0.847656 3.53125 -0.734375 C 3.570312 -0.617188 3.597656 -0.519531 3.609375 -0.4375 C 3.734375 -0.445312 3.847656 -0.453125 3.953125 -0.453125 L 3.953125 0 L 2.34375 0 L 2.34375 -0.390625 C 2.539062 -0.390625 2.640625 -0.46875 2.640625 -0.625 C 2.640625 -0.707031 2.617188 -0.804688 2.578125 -0.921875 L 2.453125 -1.25 L 1.15625 -1.21875 L 1.0625 -0.9375 C 1.050781 -0.90625 1.023438 -0.832031 0.984375 -0.71875 C 0.941406 -0.613281 0.90625 -0.523438 0.875 -0.453125 C 1 -0.460938 1.140625 -0.46875 1.296875 -0.46875 L 1.296875 0 L 0.03125 0 Z M 2.296875 -1.671875 L 2.03125 -2.40625 C 1.914062 -2.738281 1.835938 -3.015625 1.796875 -3.234375 C 1.734375 -2.941406 1.660156 -2.675781 1.578125 -2.4375 L 1.3125 -1.671875 Z M 2.296875 -1.671875 "/></g></g><g style="fill:#215c5c;fill-opacity:1;"><g transform="translate(265.248796, 167.585855)"><path style="stroke:none" d="M 1.5625 -2.375 C 1.457031 -2.5 1.347656 -2.648438 1.234375 -2.828125 L 1.21875 -2.828125 L 1.234375 -0.96875 C 1.234375 -0.75 1.226562 -0.570312 1.21875 -0.4375 C 1.34375 -0.445312 1.488281 -0.453125 1.65625 -0.453125 L 1.65625 0 L 0.296875 0 L 0.296875 -0.390625 C 0.410156 -0.398438 0.492188 -0.414062 0.546875 -0.4375 C 0.597656 -0.457031 0.640625 -0.5 0.671875 -0.5625 C 0.703125 -0.632812 0.71875 -0.75 0.71875 -0.90625 L 0.71875 -3.1875 C 0.71875 -3.457031 0.722656 -3.640625 0.734375 -3.734375 L 0.28125 -3.703125 L 0.28125 -4.171875 L 1.21875 -4.171875 L 3.046875 -1.875 C 3.210938 -1.65625 3.347656 -1.460938 3.453125 -1.296875 L 3.46875 -1.296875 L 3.46875 -3.1875 C 3.46875 -3.445312 3.472656 -3.628906 3.484375 -3.734375 L 3.03125 -3.703125 L 3.03125 -4.171875 L 4.390625 -4.171875 L 4.390625 -3.78125 C 4.285156 -3.769531 4.203125 -3.753906 4.140625 -3.734375 C 4.085938 -3.710938 4.046875 -3.664062 4.015625 -3.59375 C 3.984375 -3.519531 3.96875 -3.40625 3.96875 -3.25 L 3.96875 0.0625 L 3.46875 0.0625 Z M 1.5625 -2.375 "/></g></g><g style="fill:#215c5c;fill-opacity:1;"><g transform="translate(269.846863, 167.585855)"><path style="stroke:none" d="M 1.078125 -0.390625 C 1.179688 -0.398438 1.257812 -0.414062 1.3125 -0.4375 C 1.375 -0.457031 1.421875 -0.5 1.453125 -0.5625 C 1.484375 -0.632812 1.5 -0.75 1.5 -0.90625 L 1.5 -3.765625 L 1.21875 -3.765625 C 0.988281 -3.753906 0.804688 -3.671875 0.671875 -3.515625 C 0.546875 -3.367188 0.484375 -3.140625 0.484375 -2.828125 L 0.09375 -2.828125 L 0.125 -4.171875 L 3.734375 -4.171875 L 3.765625 -2.828125 L 3.375 -2.828125 C 3.375 -3.140625 3.304688 -3.375 3.171875 -3.53125 C 3.046875 -3.695312 2.867188 -3.773438 2.640625 -3.765625 L 2.359375 -3.765625 L 2.359375 -0.96875 C 2.359375 -0.707031 2.347656 -0.53125 2.328125 -0.4375 C 2.460938 -0.445312 2.625 -0.453125 2.8125 -0.453125 L 2.8125 0 L 1.078125 0 Z M 1.078125 -0.390625 "/></g></g><g style="fill:#215c5c;fill-opacity:1;"><g transform="translate(172.865183, 177.8496)"><path style="stroke:none" d="M 1.078125 -0.390625 C 1.179688 -0.398438 1.257812 -0.414062 1.3125 -0.4375 C 1.375 -0.457031 1.421875 -0.5 1.453125 -0.5625 C 1.484375 -0.632812 1.5 -0.75 1.5 -0.90625 L 1.5 -3.765625 L 1.21875 -3.765625 C 0.988281 -3.753906 0.804688 -3.671875 0.671875 -3.515625 C 0.546875 -3.367188 0.484375 -3.140625 0.484375 -2.828125 L 0.09375 -2.828125 L 0.125 -4.171875 L 3.734375 -4.171875 L 3.765625 -2.828125 L 3.375 -2.828125 C 3.375 -3.140625 3.304688 -3.375 3.171875 -3.53125 C 3.046875 -3.695312 2.867188 -3.773438 2.640625 -3.765625 L 2.359375 -3.765625 L 2.359375 -0.96875 C 2.359375 -0.707031 2.347656 -0.53125 2.328125 -0.4375 C 2.460938 -0.445312 2.625 -0.453125 2.8125 -0.453125 L 2.8125 0 L 1.078125 0 Z M 1.078125 -0.390625 "/></g></g><g style="fill:#215c5c;fill-opacity:1;"><g transform="translate(178.438738, 177.8496)"><path style="stroke:none" d="M 0.296875 -0.390625 C 0.398438 -0.398438 0.476562 -0.414062 0.53125 -0.4375 C 0.59375 -0.457031 0.640625 -0.5 0.671875 -0.5625 C 0.703125 -0.632812 0.71875 -0.75 0.71875 -0.90625 L 0.71875 -3.1875 C 0.71875 -3.414062 0.726562 -3.597656 0.75 -3.734375 L 0.296875 -3.703125 L 0.296875 -4.171875 L 2 -4.171875 L 2 -3.78125 C 1.894531 -3.769531 1.8125 -3.753906 1.75 -3.734375 C 1.695312 -3.710938 1.65625 -3.664062 1.625 -3.59375 C 1.59375 -3.519531 1.578125 -3.40625 1.578125 -3.25 L 1.578125 -2.328125 L 3.21875 -2.328125 L 3.21875 -3.1875 C 3.21875 -3.457031 3.226562 -3.640625 3.25 -3.734375 L 2.796875 -3.703125 L 2.796875 -4.171875 L 4.5 -4.171875 L 4.5 -3.78125 C 4.394531 -3.769531 4.3125 -3.753906 4.25 -3.734375 C 4.195312 -3.710938 4.15625 -3.664062 4.125 -3.59375 C 4.09375 -3.519531 4.078125 -3.40625 4.078125 -3.25 L 4.078125 -0.96875 C 4.078125 -0.75 4.070312 -0.570312 4.0625 -0.4375 C 4.1875 -0.445312 4.332031 -0.453125 4.5 -0.453125 L 4.5 0 L 2.796875 0 L 2.796875 -0.390625 C 2.898438 -0.398438 2.976562 -0.414062 3.03125 -0.4375 C 3.09375 -0.457031 3.140625 -0.5 3.171875 -0.5625 C 3.203125 -0.632812 3.21875 -0.75 3.21875 -0.90625 L 3.21875 -1.875 L 1.578125 -1.859375 L 1.578125 -0.96875 C 1.578125 -0.75 1.570312 -0.570312 1.5625 -0.4375 C 1.6875 -0.445312 1.832031 -0.453125 2 -0.453125 L 2 0 L 0.296875 0 Z M 0.296875 -0.390625 "/></g></g><g style="fill:#215c5c;fill-opacity:1;"><g transform="translate(184.946183, 177.8496)"><path style="stroke:none" d="M 0.03125 -0.40625 C 0.125 -0.40625 0.207031 -0.4375 0.28125 -0.5 C 0.351562 -0.5625 0.40625 -0.632812 0.4375 -0.71875 C 0.476562 -0.800781 0.53125 -0.925781 0.59375 -1.09375 L 1.75 -4.28125 L 2.171875 -4.28125 L 3.4375 -1.03125 C 3.46875 -0.945312 3.5 -0.847656 3.53125 -0.734375 C 3.570312 -0.617188 3.597656 -0.519531 3.609375 -0.4375 C 3.734375 -0.445312 3.847656 -0.453125 3.953125 -0.453125 L 3.953125 0 L 2.34375 0 L 2.34375 -0.390625 C 2.539062 -0.390625 2.640625 -0.46875 2.640625 -0.625 C 2.640625 -0.707031 2.617188 -0.804688 2.578125 -0.921875 L 2.453125 -1.25 L 1.15625 -1.21875 L 1.0625 -0.9375 C 1.050781 -0.90625 1.023438 -0.832031 0.984375 -0.71875 C 0.941406 -0.613281 0.90625 -0.523438 0.875 -0.453125 C 1 -0.460938 1.140625 -0.46875 1.296875 -0.46875 L 1.296875 0 L 0.03125 0 Z M 2.296875 -1.671875 L 2.03125 -2.40625 C 1.914062 -2.738281 1.835938 -3.015625 1.796875 -3.234375 C 1.734375 -2.941406 1.660156 -2.675781 1.578125 -2.4375 L 1.3125 -1.671875 Z M 2.296875 -1.671875 "/></g></g><g style="fill:#215c5c;fill-opacity:1;"><g transform="translate(190.626809, 177.8496)"><path style="stroke:none" d="M 1.078125 -0.390625 C 1.179688 -0.398438 1.257812 -0.414062 1.3125 -0.4375 C 1.375 -0.457031 1.421875 -0.5 1.453125 -0.5625 C 1.484375 -0.632812 1.5 -0.75 1.5 -0.90625 L 1.5 -3.765625 L 1.21875 -3.765625 C 0.988281 -3.753906 0.804688 -3.671875 0.671875 -3.515625 C 0.546875 -3.367188 0.484375 -3.140625 0.484375 -2.828125 L 0.09375 -2.828125 L 0.125 -4.171875 L 3.734375 -4.171875 L 3.765625 -2.828125 L 3.375 -2.828125 C 3.375 -3.140625 3.304688 -3.375 3.171875 -3.53125 C 3.046875 -3.695312 2.867188 -3.773438 2.640625 -3.765625 L 2.359375 -3.765625 L 2.359375 -0.96875 C 2.359375 -0.707031 2.347656 -0.53125 2.328125 -0.4375 C 2.460938 -0.445312 2.625 -0.453125 2.8125 -0.453125 L 2.8125 0 L 1.078125 0 Z M 1.078125 -0.390625 "/></g></g><g style="fill:#215c5c;fill-opacity:1;"><g transform="translate(196.200365, 177.8496)"><path style="stroke:none" d=""/></g></g><g style="fill:#215c5c;fill-opacity:1;"><g transform="translate(199.471922, 177.8496)"><path style="stroke:none" d="M 2.234375 0.09375 C 1.816406 0.09375 1.457031 0 1.15625 -0.1875 C 0.851562 -0.375 0.617188 -0.625 0.453125 -0.9375 C 0.296875 -1.257812 0.21875 -1.625 0.21875 -2.03125 C 0.21875 -2.40625 0.296875 -2.765625 0.453125 -3.109375 C 0.609375 -3.453125 0.84375 -3.726562 1.15625 -3.9375 C 1.46875 -4.15625 1.84375 -4.265625 2.28125 -4.265625 C 2.445312 -4.265625 2.640625 -4.238281 2.859375 -4.1875 C 3.078125 -4.132812 3.257812 -4.0625 3.40625 -3.96875 L 3.421875 -3.96875 L 3.390625 -4.21875 L 3.859375 -4.21875 L 3.859375 -2.828125 L 3.46875 -2.828125 C 3.414062 -3.148438 3.289062 -3.394531 3.09375 -3.5625 C 2.894531 -3.738281 2.648438 -3.828125 2.359375 -3.828125 C 2.097656 -3.828125 1.875 -3.75 1.6875 -3.59375 C 1.507812 -3.4375 1.375 -3.226562 1.28125 -2.96875 C 1.1875 -2.71875 1.140625 -2.441406 1.140625 -2.140625 C 1.140625 -1.609375 1.25 -1.179688 1.46875 -0.859375 C 1.6875 -0.535156 1.992188 -0.375 2.390625 -0.375 C 2.515625 -0.375 2.660156 -0.382812 2.828125 -0.40625 C 2.992188 -0.4375 3.128906 -0.476562 3.234375 -0.53125 L 3.234375 -1.09375 C 3.234375 -1.3125 3.238281 -1.488281 3.25 -1.625 C 3.144531 -1.613281 3.046875 -1.609375 2.953125 -1.609375 L 2.796875 -1.609375 L 2.796875 -2.0625 L 4.390625 -2.0625 L 4.390625 -1.671875 C 4.285156 -1.671875 4.207031 -1.65625 4.15625 -1.625 C 4.101562 -1.601562 4.0625 -1.554688 4.03125 -1.484375 C 4 -1.410156 3.984375 -1.300781 3.984375 -1.15625 L 3.984375 -0.203125 L 3.84375 -0.203125 C 3.75 -0.203125 3.65625 -0.191406 3.5625 -0.171875 C 3.476562 -0.148438 3.367188 -0.117188 3.234375 -0.078125 C 3.023438 -0.015625 2.847656 0.0234375 2.703125 0.046875 C 2.566406 0.078125 2.410156 0.09375 2.234375 0.09375 Z M 2.234375 0.09375 "/></g></g><g style="fill:#215c5c;fill-opacity:1;"><g transform="translate(205.664107, 177.8496)"><path style="stroke:none" d="M 0.296875 -0.390625 C 0.398438 -0.398438 0.476562 -0.414062 0.53125 -0.4375 C 0.59375 -0.457031 0.640625 -0.5 0.671875 -0.5625 C 0.703125 -0.632812 0.71875 -0.75 0.71875 -0.90625 L 0.71875 -3.1875 C 0.71875 -3.414062 0.726562 -3.597656 0.75 -3.734375 L 0.296875 -3.703125 L 0.296875 -4.171875 L 3.28125 -4.171875 L 3.3125 -3.015625 L 2.921875 -3.015625 C 2.921875 -3.304688 2.847656 -3.507812 2.703125 -3.625 C 2.566406 -3.738281 2.398438 -3.789062 2.203125 -3.78125 L 1.984375 -3.78125 C 1.890625 -3.769531 1.8125 -3.753906 1.75 -3.734375 C 1.695312 -3.710938 1.65625 -3.664062 1.625 -3.59375 C 1.59375 -3.519531 1.578125 -3.40625 1.578125 -3.25 L 1.578125 -2.359375 L 2.28125 -2.359375 C 2.28125 -2.429688 2.269531 -2.601562 2.25 -2.875 L 2.71875 -2.875 L 2.71875 -1.4375 L 2.328125 -1.4375 C 2.328125 -1.59375 2.300781 -1.707031 2.25 -1.78125 C 2.195312 -1.863281 2.128906 -1.914062 2.046875 -1.9375 C 1.972656 -1.957031 1.867188 -1.960938 1.734375 -1.953125 L 1.578125 -1.953125 L 1.578125 -0.96875 C 1.578125 -0.757812 1.570312 -0.585938 1.5625 -0.453125 L 2.359375 -0.453125 C 2.554688 -0.453125 2.722656 -0.519531 2.859375 -0.65625 C 3.003906 -0.789062 3.078125 -1.007812 3.078125 -1.3125 L 3.46875 -1.3125 L 3.4375 0 L 0.296875 0 Z M 0.296875 -0.390625 "/></g></g><g style="fill:#215c5c;fill-opacity:1;"><g transform="translate(211.083009, 177.8496)"><path style="stroke:none" d="M 1.078125 -0.390625 C 1.179688 -0.398438 1.257812 -0.414062 1.3125 -0.4375 C 1.375 -0.457031 1.421875 -0.5 1.453125 -0.5625 C 1.484375 -0.632812 1.5 -0.75 1.5 -0.90625 L 1.5 -3.765625 L 1.21875 -3.765625 C 0.988281 -3.753906 0.804688 -3.671875 0.671875 -3.515625 C 0.546875 -3.367188 0.484375 -3.140625 0.484375 -2.828125 L 0.09375 -2.828125 L 0.125 -4.171875 L 3.734375 -4.171875 L 3.765625 -2.828125 L 3.375 -2.828125 C 3.375 -3.140625 3.304688 -3.375 3.171875 -3.53125 C 3.046875 -3.695312 2.867188 -3.773438 2.640625 -3.765625 L 2.359375 -3.765625 L 2.359375 -0.96875 C 2.359375 -0.707031 2.347656 -0.53125 2.328125 -0.4375 C 2.460938 -0.445312 2.625 -0.453125 2.8125 -0.453125 L 2.8125 0 L 1.078125 0 Z M 1.078125 -0.390625 "/></g></g><g style="fill:#215c5c;fill-opacity:1;"><g transform="translate(216.656564, 177.8496)"><path style="stroke:none" d="M 1.828125 0.09375 C 1.660156 0.09375 1.484375 0.0664062 1.296875 0.015625 C 1.117188 -0.0351562 0.953125 -0.109375 0.796875 -0.203125 L 0.8125 0.046875 L 0.34375 0.046875 L 0.34375 -1.34375 L 0.75 -1.34375 C 0.800781 -1.007812 0.925781 -0.753906 1.125 -0.578125 C 1.320312 -0.410156 1.5625 -0.328125 1.84375 -0.328125 C 2.050781 -0.328125 2.222656 -0.378906 2.359375 -0.484375 C 2.492188 -0.597656 2.5625 -0.734375 2.5625 -0.890625 C 2.5625 -1.015625 2.515625 -1.125 2.421875 -1.21875 C 2.335938 -1.3125 2.238281 -1.382812 2.125 -1.4375 C 2.019531 -1.488281 1.847656 -1.5625 1.609375 -1.65625 C 1.171875 -1.832031 0.832031 -2.03125 0.59375 -2.25 C 0.363281 -2.46875 0.25 -2.757812 0.25 -3.125 C 0.25 -3.3125 0.296875 -3.488281 0.390625 -3.65625 C 0.484375 -3.832031 0.632812 -3.976562 0.84375 -4.09375 C 1.050781 -4.207031 1.320312 -4.265625 1.65625 -4.265625 C 1.820312 -4.265625 2 -4.238281 2.1875 -4.1875 C 2.375 -4.132812 2.53125 -4.066406 2.65625 -3.984375 L 2.625 -4.21875 L 3.09375 -4.21875 L 3.09375 -2.828125 L 2.703125 -2.828125 C 2.648438 -3.160156 2.535156 -3.410156 2.359375 -3.578125 C 2.179688 -3.742188 1.957031 -3.828125 1.6875 -3.828125 C 1.507812 -3.828125 1.351562 -3.78125 1.21875 -3.6875 C 1.09375 -3.59375 1.03125 -3.472656 1.03125 -3.328125 C 1.03125 -3.148438 1.101562 -3 1.25 -2.875 C 1.394531 -2.757812 1.644531 -2.628906 2 -2.484375 C 2.394531 -2.328125 2.71875 -2.144531 2.96875 -1.9375 C 3.226562 -1.726562 3.359375 -1.453125 3.359375 -1.109375 C 3.359375 -0.867188 3.289062 -0.65625 3.15625 -0.46875 C 3.03125 -0.289062 2.851562 -0.148438 2.625 -0.046875 C 2.394531 0.046875 2.128906 0.09375 1.828125 0.09375 Z M 1.828125 0.09375 "/></g></g><g style="fill:#215c5c;fill-opacity:1;"><g transform="translate(221.920813, 177.8496)"><path style="stroke:none" d=""/></g></g><g style="fill:#215c5c;fill-opacity:1;"><g transform="translate(225.19237, 177.8496)"><path style="stroke:none" d="M 1.078125 -0.390625 C 1.179688 -0.398438 1.257812 -0.414062 1.3125 -0.4375 C 1.375 -0.457031 1.421875 -0.5 1.453125 -0.5625 C 1.484375 -0.632812 1.5 -0.75 1.5 -0.90625 L 1.5 -3.765625 L 1.21875 -3.765625 C 0.988281 -3.753906 0.804688 -3.671875 0.671875 -3.515625 C 0.546875 -3.367188 0.484375 -3.140625 0.484375 -2.828125 L 0.09375 -2.828125 L 0.125 -4.171875 L 3.734375 -4.171875 L 3.765625 -2.828125 L 3.375 -2.828125 C 3.375 -3.140625 3.304688 -3.375 3.171875 -3.53125 C 3.046875 -3.695312 2.867188 -3.773438 2.640625 -3.765625 L 2.359375 -3.765625 L 2.359375 -0.96875 C 2.359375 -0.707031 2.347656 -0.53125 2.328125 -0.4375 C 2.460938 -0.445312 2.625 -0.453125 2.8125 -0.453125 L 2.8125 0 L 1.078125 0 Z M 1.078125 -0.390625 "/></g></g><g style="fill:#215c5c;fill-opacity:1;"><g transform="translate(230.765926, 177.8496)"><path style="stroke:none" d="M 0.296875 -0.390625 C 0.398438 -0.398438 0.476562 -0.414062 0.53125 -0.4375 C 0.59375 -0.457031 0.640625 -0.5 0.671875 -0.5625 C 0.703125 -0.632812 0.71875 -0.75 0.71875 -0.90625 L 0.71875 -3.1875 C 0.71875 -3.414062 0.726562 -3.597656 0.75 -3.734375 L 0.296875 -3.703125 L 0.296875 -4.171875 L 2 -4.171875 L 2 -3.78125 C 1.894531 -3.769531 1.8125 -3.753906 1.75 -3.734375 C 1.695312 -3.710938 1.65625 -3.664062 1.625 -3.59375 C 1.59375 -3.519531 1.578125 -3.40625 1.578125 -3.25 L 1.578125 -2.328125 L 3.21875 -2.328125 L 3.21875 -3.1875 C 3.21875 -3.457031 3.226562 -3.640625 3.25 -3.734375 L 2.796875 -3.703125 L 2.796875 -4.171875 L 4.5 -4.171875 L 4.5 -3.78125 C 4.394531 -3.769531 4.3125 -3.753906 4.25 -3.734375 C 4.195312 -3.710938 4.15625 -3.664062 4.125 -3.59375 C 4.09375 -3.519531 4.078125 -3.40625 4.078125 -3.25 L 4.078125 -0.96875 C 4.078125 -0.75 4.070312 -0.570312 4.0625 -0.4375 C 4.1875 -0.445312 4.332031 -0.453125 4.5 -0.453125 L 4.5 0 L 2.796875 0 L 2.796875 -0.390625 C 2.898438 -0.398438 2.976562 -0.414062 3.03125 -0.4375 C 3.09375 -0.457031 3.140625 -0.5 3.171875 -0.5625 C 3.203125 -0.632812 3.21875 -0.75 3.21875 -0.90625 L 3.21875 -1.875 L 1.578125 -1.859375 L 1.578125 -0.96875 C 1.578125 -0.75 1.570312 -0.570312 1.5625 -0.4375 C 1.6875 -0.445312 1.832031 -0.453125 2 -0.453125 L 2 0 L 0.296875 0 Z M 0.296875 -0.390625 "/></g></g><g style="fill:#215c5c;fill-opacity:1;"><g transform="translate(237.27337, 177.8496)"><path style="stroke:none" d="M 0.296875 -0.390625 C 0.398438 -0.398438 0.476562 -0.414062 0.53125 -0.4375 C 0.59375 -0.457031 0.640625 -0.5 0.671875 -0.5625 C 0.703125 -0.632812 0.71875 -0.75 0.71875 -0.90625 L 0.71875 -3.1875 C 0.71875 -3.414062 0.726562 -3.597656 0.75 -3.734375 L 0.296875 -3.703125 L 0.296875 -4.171875 L 2 -4.171875 L 2 -3.78125 C 1.894531 -3.769531 1.8125 -3.753906 1.75 -3.734375 C 1.695312 -3.710938 1.65625 -3.664062 1.625 -3.59375 C 1.59375 -3.519531 1.578125 -3.40625 1.578125 -3.25 L 1.578125 -0.96875 C 1.578125 -0.75 1.570312 -0.570312 1.5625 -0.4375 C 1.6875 -0.445312 1.832031 -0.453125 2 -0.453125 L 2 0 L 0.296875 0 Z M 0.296875 -0.390625 "/></g></g><g style="fill:#215c5c;fill-opacity:1;"><g transform="translate(241.282517, 177.8496)"><path style="stroke:none" d="M 1.5625 -2.375 C 1.457031 -2.5 1.347656 -2.648438 1.234375 -2.828125 L 1.21875 -2.828125 L 1.234375 -0.96875 C 1.234375 -0.75 1.226562 -0.570312 1.21875 -0.4375 C 1.34375 -0.445312 1.488281 -0.453125 1.65625 -0.453125 L 1.65625 0 L 0.296875 0 L 0.296875 -0.390625 C 0.410156 -0.398438 0.492188 -0.414062 0.546875 -0.4375 C 0.597656 -0.457031 0.640625 -0.5 0.671875 -0.5625 C 0.703125 -0.632812 0.71875 -0.75 0.71875 -0.90625 L 0.71875 -3.1875 C 0.71875 -3.457031 0.722656 -3.640625 0.734375 -3.734375 L 0.28125 -3.703125 L 0.28125 -4.171875 L 1.21875 -4.171875 L 3.046875 -1.875 C 3.210938 -1.65625 3.347656 -1.460938 3.453125 -1.296875 L 3.46875 -1.296875 L 3.46875 -3.1875 C 3.46875 -3.445312 3.472656 -3.628906 3.484375 -3.734375 L 3.03125 -3.703125 L 3.03125 -4.171875 L 4.390625 -4.171875 L 4.390625 -3.78125 C 4.285156 -3.769531 4.203125 -3.753906 4.140625 -3.734375 C 4.085938 -3.710938 4.046875 -3.664062 4.015625 -3.59375 C 3.984375 -3.519531 3.96875 -3.40625 3.96875 -3.25 L 3.96875 0.0625 L 3.46875 0.0625 Z M 1.5625 -2.375 "/></g></g><g style="fill:#215c5c;fill-opacity:1;"><g transform="translate(247.587718, 177.8496)"><path style="stroke:none" d="M 2.234375 0.09375 C 1.816406 0.09375 1.457031 0 1.15625 -0.1875 C 0.851562 -0.375 0.617188 -0.625 0.453125 -0.9375 C 0.296875 -1.257812 0.21875 -1.625 0.21875 -2.03125 C 0.21875 -2.40625 0.296875 -2.765625 0.453125 -3.109375 C 0.609375 -3.453125 0.84375 -3.726562 1.15625 -3.9375 C 1.46875 -4.15625 1.84375 -4.265625 2.28125 -4.265625 C 2.445312 -4.265625 2.640625 -4.238281 2.859375 -4.1875 C 3.078125 -4.132812 3.257812 -4.0625 3.40625 -3.96875 L 3.421875 -3.96875 L 3.390625 -4.21875 L 3.859375 -4.21875 L 3.859375 -2.828125 L 3.46875 -2.828125 C 3.414062 -3.148438 3.289062 -3.394531 3.09375 -3.5625 C 2.894531 -3.738281 2.648438 -3.828125 2.359375 -3.828125 C 2.097656 -3.828125 1.875 -3.75 1.6875 -3.59375 C 1.507812 -3.4375 1.375 -3.226562 1.28125 -2.96875 C 1.1875 -2.71875 1.140625 -2.441406 1.140625 -2.140625 C 1.140625 -1.609375 1.25 -1.179688 1.46875 -0.859375 C 1.6875 -0.535156 1.992188 -0.375 2.390625 -0.375 C 2.515625 -0.375 2.660156 -0.382812 2.828125 -0.40625 C 2.992188 -0.4375 3.128906 -0.476562 3.234375 -0.53125 L 3.234375 -1.09375 C 3.234375 -1.3125 3.238281 -1.488281 3.25 -1.625 C 3.144531 -1.613281 3.046875 -1.609375 2.953125 -1.609375 L 2.796875 -1.609375 L 2.796875 -2.0625 L 4.390625 -2.0625 L 4.390625 -1.671875 C 4.285156 -1.671875 4.207031 -1.65625 4.15625 -1.625 C 4.101562 -1.601562 4.0625 -1.554688 4.03125 -1.484375 C 4 -1.410156 3.984375 -1.300781 3.984375 -1.15625 L 3.984375 -0.203125 L 3.84375 -0.203125 C 3.75 -0.203125 3.65625 -0.191406 3.5625 -0.171875 C 3.476562 -0.148438 3.367188 -0.117188 3.234375 -0.078125 C 3.023438 -0.015625 2.847656 0.0234375 2.703125 0.046875 C 2.566406 0.078125 2.410156 0.09375 2.234375 0.09375 Z M 2.234375 0.09375 "/></g></g><g style="fill:#215c5c;fill-opacity:1;"><g transform="translate(253.779903, 177.8496)"><path style="stroke:none" d="M 1.828125 0.09375 C 1.660156 0.09375 1.484375 0.0664062 1.296875 0.015625 C 1.117188 -0.0351562 0.953125 -0.109375 0.796875 -0.203125 L 0.8125 0.046875 L 0.34375 0.046875 L 0.34375 -1.34375 L 0.75 -1.34375 C 0.800781 -1.007812 0.925781 -0.753906 1.125 -0.578125 C 1.320312 -0.410156 1.5625 -0.328125 1.84375 -0.328125 C 2.050781 -0.328125 2.222656 -0.378906 2.359375 -0.484375 C 2.492188 -0.597656 2.5625 -0.734375 2.5625 -0.890625 C 2.5625 -1.015625 2.515625 -1.125 2.421875 -1.21875 C 2.335938 -1.3125 2.238281 -1.382812 2.125 -1.4375 C 2.019531 -1.488281 1.847656 -1.5625 1.609375 -1.65625 C 1.171875 -1.832031 0.832031 -2.03125 0.59375 -2.25 C 0.363281 -2.46875 0.25 -2.757812 0.25 -3.125 C 0.25 -3.3125 0.296875 -3.488281 0.390625 -3.65625 C 0.484375 -3.832031 0.632812 -3.976562 0.84375 -4.09375 C 1.050781 -4.207031 1.320312 -4.265625 1.65625 -4.265625 C 1.820312 -4.265625 2 -4.238281 2.1875 -4.1875 C 2.375 -4.132812 2.53125 -4.066406 2.65625 -3.984375 L 2.625 -4.21875 L 3.09375 -4.21875 L 3.09375 -2.828125 L 2.703125 -2.828125 C 2.648438 -3.160156 2.535156 -3.410156 2.359375 -3.578125 C 2.179688 -3.742188 1.957031 -3.828125 1.6875 -3.828125 C 1.507812 -3.828125 1.351562 -3.78125 1.21875 -3.6875 C 1.09375 -3.59375 1.03125 -3.472656 1.03125 -3.328125 C 1.03125 -3.148438 1.101562 -3 1.25 -2.875 C 1.394531 -2.757812 1.644531 -2.628906 2 -2.484375 C 2.394531 -2.328125 2.71875 -2.144531 2.96875 -1.9375 C 3.226562 -1.726562 3.359375 -1.453125 3.359375 -1.109375 C 3.359375 -0.867188 3.289062 -0.65625 3.15625 -0.46875 C 3.03125 -0.289062 2.851562 -0.148438 2.625 -0.046875 C 2.394531 0.046875 2.128906 0.09375 1.828125 0.09375 Z M 1.828125 0.09375 "/></g></g><g style="fill:#215c5c;fill-opacity:1;"><g transform="translate(259.044151, 177.8496)"><path style="stroke:none" d=""/></g></g><g style="fill:#215c5c;fill-opacity:1;"><g transform="translate(262.315709, 177.8496)"><path style="stroke:none" d="M 0.296875 -0.390625 C 0.398438 -0.398438 0.476562 -0.414062 0.53125 -0.4375 C 0.59375 -0.457031 0.640625 -0.5 0.671875 -0.5625 C 0.703125 -0.632812 0.71875 -0.75 0.71875 -0.90625 L 0.71875 -3.1875 C 0.71875 -3.414062 0.726562 -3.597656 0.75 -3.734375 L 0.296875 -3.703125 L 0.296875 -4.171875 L 2.03125 -4.171875 C 2.53125 -4.171875 2.945312 -4.070312 3.28125 -3.875 C 3.625 -3.675781 3.878906 -3.421875 4.046875 -3.109375 C 4.222656 -2.796875 4.3125 -2.46875 4.3125 -2.125 C 4.3125 -1.769531 4.226562 -1.429688 4.0625 -1.109375 C 3.90625 -0.785156 3.648438 -0.519531 3.296875 -0.3125 C 2.953125 -0.101562 2.519531 0 2 0 L 0.296875 0 Z M 2.125 -0.4375 C 2.40625 -0.4375 2.632812 -0.507812 2.8125 -0.65625 C 3 -0.800781 3.140625 -0.988281 3.234375 -1.21875 C 3.328125 -1.457031 3.375 -1.71875 3.375 -2 C 3.375 -2.601562 3.25 -3.050781 3 -3.34375 C 2.75 -3.632812 2.398438 -3.78125 1.953125 -3.78125 C 1.816406 -3.78125 1.71875 -3.742188 1.65625 -3.671875 C 1.601562 -3.609375 1.578125 -3.472656 1.578125 -3.265625 L 1.578125 -0.96875 C 1.578125 -0.75 1.570312 -0.570312 1.5625 -0.4375 C 1.582031 -0.445312 1.617188 -0.453125 1.671875 -0.453125 L 1.921875 -0.4375 C 1.972656 -0.4375 2.039062 -0.4375 2.125 -0.4375 Z M 2.125 -0.4375 "/></g></g><g style="fill:#215c5c;fill-opacity:1;"><g transform="translate(268.537634, 177.8496)"><path style="stroke:none" d="M 2.28125 0.09375 C 1.800781 0.09375 1.40625 -0.0078125 1.09375 -0.21875 C 0.789062 -0.425781 0.566406 -0.695312 0.421875 -1.03125 C 0.273438 -1.363281 0.203125 -1.710938 0.203125 -2.078125 C 0.203125 -2.429688 0.28125 -2.773438 0.4375 -3.109375 C 0.601562 -3.441406 0.84375 -3.71875 1.15625 -3.9375 C 1.46875 -4.15625 1.847656 -4.265625 2.296875 -4.265625 C 2.753906 -4.265625 3.140625 -4.15625 3.453125 -3.9375 C 3.765625 -3.71875 3.992188 -3.441406 4.140625 -3.109375 C 4.296875 -2.773438 4.375 -2.429688 4.375 -2.078125 C 4.375 -1.734375 4.289062 -1.394531 4.125 -1.0625 C 3.96875 -0.726562 3.734375 -0.453125 3.421875 -0.234375 C 3.109375 -0.015625 2.726562 0.09375 2.28125 0.09375 Z M 2.34375 -0.34375 C 2.59375 -0.34375 2.800781 -0.421875 2.96875 -0.578125 C 3.132812 -0.742188 3.25 -0.953125 3.3125 -1.203125 C 3.382812 -1.453125 3.421875 -1.710938 3.421875 -1.984375 C 3.421875 -2.546875 3.320312 -2.992188 3.125 -3.328125 C 2.925781 -3.660156 2.632812 -3.828125 2.25 -3.828125 C 1.988281 -3.828125 1.773438 -3.742188 1.609375 -3.578125 C 1.441406 -3.410156 1.320312 -3.195312 1.25 -2.9375 C 1.175781 -2.6875 1.140625 -2.425781 1.140625 -2.15625 C 1.140625 -1.875 1.175781 -1.59375 1.25 -1.3125 C 1.332031 -1.039062 1.460938 -0.8125 1.640625 -0.625 C 1.828125 -0.4375 2.0625 -0.34375 2.34375 -0.34375 Z M 2.34375 -0.34375 "/></g></g><g style="fill:#215c5c;fill-opacity:1;"><g transform="translate(274.819039, 177.8496)"><path style="stroke:none" d="M 1.5625 -2.375 C 1.457031 -2.5 1.347656 -2.648438 1.234375 -2.828125 L 1.21875 -2.828125 L 1.234375 -0.96875 C 1.234375 -0.75 1.226562 -0.570312 1.21875 -0.4375 C 1.34375 -0.445312 1.488281 -0.453125 1.65625 -0.453125 L 1.65625 0 L 0.296875 0 L 0.296875 -0.390625 C 0.410156 -0.398438 0.492188 -0.414062 0.546875 -0.4375 C 0.597656 -0.457031 0.640625 -0.5 0.671875 -0.5625 C 0.703125 -0.632812 0.71875 -0.75 0.71875 -0.90625 L 0.71875 -3.1875 C 0.71875 -3.457031 0.722656 -3.640625 0.734375 -3.734375 L 0.28125 -3.703125 L 0.28125 -4.171875 L 1.21875 -4.171875 L 3.046875 -1.875 C 3.210938 -1.65625 3.347656 -1.460938 3.453125 -1.296875 L 3.46875 -1.296875 L 3.46875 -3.1875 C 3.46875 -3.445312 3.472656 -3.628906 3.484375 -3.734375 L 3.03125 -3.703125 L 3.03125 -4.171875 L 4.390625 -4.171875 L 4.390625 -3.78125 C 4.285156 -3.769531 4.203125 -3.753906 4.140625 -3.734375 C 4.085938 -3.710938 4.046875 -3.664062 4.015625 -3.59375 C 3.984375 -3.519531 3.96875 -3.40625 3.96875 -3.25 L 3.96875 0.0625 L 3.46875 0.0625 Z M 1.5625 -2.375 "/></g></g><g style="fill:#215c5c;fill-opacity:1;"><g transform="translate(281.12424, 177.8496)"><path style="stroke:none" d="M 0.296875 -0.390625 C 0.398438 -0.398438 0.476562 -0.414062 0.53125 -0.4375 C 0.59375 -0.457031 0.640625 -0.5 0.671875 -0.5625 C 0.703125 -0.632812 0.71875 -0.75 0.71875 -0.90625 L 0.71875 -3.1875 C 0.71875 -3.414062 0.726562 -3.597656 0.75 -3.734375 L 0.296875 -3.703125 L 0.296875 -4.171875 L 3.28125 -4.171875 L 3.3125 -3.015625 L 2.921875 -3.015625 C 2.921875 -3.304688 2.847656 -3.507812 2.703125 -3.625 C 2.566406 -3.738281 2.398438 -3.789062 2.203125 -3.78125 L 1.984375 -3.78125 C 1.890625 -3.769531 1.8125 -3.753906 1.75 -3.734375 C 1.695312 -3.710938 1.65625 -3.664062 1.625 -3.59375 C 1.59375 -3.519531 1.578125 -3.40625 1.578125 -3.25 L 1.578125 -2.359375 L 2.28125 -2.359375 C 2.28125 -2.429688 2.269531 -2.601562 2.25 -2.875 L 2.71875 -2.875 L 2.71875 -1.4375 L 2.328125 -1.4375 C 2.328125 -1.59375 2.300781 -1.707031 2.25 -1.78125 C 2.195312 -1.863281 2.128906 -1.914062 2.046875 -1.9375 C 1.972656 -1.957031 1.867188 -1.960938 1.734375 -1.953125 L 1.578125 -1.953125 L 1.578125 -0.96875 C 1.578125 -0.757812 1.570312 -0.585938 1.5625 -0.453125 L 2.359375 -0.453125 C 2.554688 -0.453125 2.722656 -0.519531 2.859375 -0.65625 C 3.003906 -0.789062 3.078125 -1.007812 3.078125 -1.3125 L 3.46875 -1.3125 L 3.4375 0 L 0.296875 0 Z M 0.296875 -0.390625 "/></g></g><path style=" stroke:none;fill-rule:nonzero;fill:#939393;fill-opacity:1;" d="M 60.152344 198.699219 C 58.664062 198.5 55.886719 197.773438 53.304688 197.042969 C 52.949219 196.941406 52.707031 196.621094 52.707031 196.253906 L 52.707031 193.382812 C 52.707031 193.097656 52.855469 192.832031 53.097656 192.683594 C 61.101562 187.816406 62.042969 173.4375 62.042969 170.542969 C 62.042969 162.472656 55.5 155.929688 47.429688 155.929688 C 39.359375 155.929688 32.816406 162.472656 32.816406 170.542969 C 32.816406 173.4375 33.761719 187.816406 41.761719 192.683594 C 42.003906 192.832031 42.152344 193.097656 42.152344 193.382812 L 42.152344 196.253906 C 42.152344 196.621094 41.910156 196.941406 41.558594 197.042969 C 38.976562 197.773438 36.195312 198.5 34.707031 198.699219 C 30.519531 199.25 27.058594 202.121094 27.058594 206.347656 L 27.058594 206.511719 C 27.277344 206.648438 27.5 206.78125 27.722656 206.910156 C 33.519531 210.269531 40.25 212.191406 47.429688 212.191406 C 54.609375 212.191406 61.34375 210.269531 67.136719 206.910156 C 67.359375 206.78125 67.582031 206.648438 67.804688 206.511719 L 67.804688 206.347656 C 67.804688 202.121094 64.339844 199.25 60.152344 198.699219 "/><path style=" stroke:none;fill-rule:nonzero;fill:#4c4c4c;fill-opacity:1;" d="M 61.195312 160.4375 C 60.164062 156.929688 55.308594 155.105469 51.472656 154.664062 C 51.871094 153.839844 52.074219 152.886719 52.113281 151.933594 C 50.503906 153.578125 48.660156 153.976562 48.660156 153.976562 C 48.660156 153.976562 49.035156 153.332031 49.101562 152.472656 C 48.300781 153.261719 46.46875 154.09375 45.191406 154.613281 C 40.023438 155.058594 33.886719 157.359375 32.753906 165.382812 C 31.296875 175.703125 34.621094 182.023438 34.621094 182.023438 C 34.621094 182.023438 35.03125 176.5625 35.285156 173.09375 C 35.753906 166.757812 40.753906 164.570312 40.753906 164.570312 C 40.753906 164.570312 44.09375 168.574219 49.035156 168.910156 C 53.976562 169.242188 57.652344 167.917969 58.988281 170.914062 C 59.9375 173.046875 60.238281 182.023438 60.238281 182.023438 C 60.238281 182.023438 64.691406 172.378906 61.195312 160.4375 "/><path style=" stroke:none;fill-rule:nonzero;fill:#231f20;fill-opacity:1;" d="M 32.308594 166.984375 C 32.296875 166.300781 31.832031 165.71875 31.164062 165.566406 C 31.054688 165.542969 30.945312 165.515625 30.832031 165.492188 C 30.582031 165.433594 30.320312 165.496094 30.117188 165.660156 C 29.914062 165.828125 29.800781 166.078125 29.804688 166.347656 C 29.804688 166.484375 29.804688 166.621094 29.808594 166.757812 C 29.808594 166.757812 29.089844 166.609375 27.898438 166.625 C 26.976562 166.636719 26.230469 167.429688 26.1875 168.425781 C 25.132812 168.625 24.351562 169.683594 24.429688 170.921875 C 24.601562 173.632812 24.894531 176.332031 25.3125 179.015625 C 25.503906 180.242188 26.496094 181.105469 27.566406 181.074219 C 27.824219 182.039062 28.726562 182.648438 29.625 182.460938 C 30.792969 182.222656 31.464844 181.921875 31.464844 181.921875 C 31.492188 182.058594 31.519531 182.191406 31.546875 182.324219 C 31.601562 182.585938 31.769531 182.804688 32 182.925781 C 32.175781 183.015625 32.375 183.039062 32.558594 183 C 32.621094 182.984375 32.679688 182.964844 32.738281 182.9375 C 32.839844 182.886719 32.941406 182.839844 33.046875 182.789062 C 33.664062 182.496094 33.992188 181.832031 33.859375 181.160156 C 32.914062 176.492188 32.394531 171.746094 32.308594 166.984375 "/><path style=" stroke:none;fill-rule:nonzero;fill:#231f20;fill-opacity:1;" d="M 62.550781 166.984375 C 62.5625 166.300781 63.027344 165.71875 63.695312 165.566406 C 63.804688 165.542969 63.917969 165.515625 64.027344 165.492188 C 64.28125 165.433594 64.539062 165.496094 64.742188 165.660156 C 64.945312 165.828125 65.058594 166.078125 65.058594 166.347656 C 65.054688 166.484375 65.054688 166.621094 65.050781 166.757812 C 65.050781 166.757812 65.773438 166.609375 66.960938 166.625 C 67.882812 166.636719 68.632812 167.429688 68.671875 168.425781 C 69.726562 168.625 70.507812 169.683594 70.429688 170.921875 C 70.261719 173.632812 69.964844 176.332031 69.546875 179.015625 C 69.355469 180.242188 68.363281 181.105469 67.292969 181.074219 C 67.035156 182.039062 66.132812 182.648438 65.234375 182.460938 C 64.066406 182.222656 63.398438 181.921875 63.398438 181.921875 C 63.367188 182.058594 63.339844 182.191406 63.3125 182.324219 C 63.257812 182.585938 63.089844 182.804688 62.859375 182.925781 C 62.683594 183.015625 62.488281 183.039062 62.300781 183 C 62.242188 182.984375 62.179688 182.964844 62.125 182.9375 C 62.019531 182.886719 61.917969 182.839844 61.816406 182.789062 C 61.195312 182.496094 60.867188 181.832031 61.003906 181.160156 C 61.945312 176.492188 62.464844 171.746094 62.550781 166.984375 "/><path style=" stroke:none;fill-rule:nonzero;fill:#231f20;fill-opacity:1;" d="M 66.230469 166.902344 L 65.601562 166.902344 C 65.601562 162.8125 64.273438 158.949219 61.765625 155.734375 L 62.257812 155.347656 C 63.519531 156.964844 64.503906 158.761719 65.175781 160.6875 C 65.875 162.679688 66.230469 164.769531 66.230469 166.902344 "/><path style=" stroke:none;fill-rule:nonzero;fill:#231f20;fill-opacity:1;" d="M 29.257812 166.902344 L 28.632812 166.902344 C 28.632812 164.769531 28.984375 162.679688 29.683594 160.6875 C 30.359375 158.761719 31.339844 156.964844 32.601562 155.347656 L 33.09375 155.734375 C 30.585938 158.949219 29.257812 162.8125 29.257812 166.902344 "/><path style=" stroke:none;fill-rule:nonzero;fill:#231f20;fill-opacity:1;" d="M 62.664062 153.671875 C 62.359375 153.316406 62.03125 152.96875 61.699219 152.632812 C 59.84375 150.78125 57.6875 149.324219 55.285156 148.308594 C 52.796875 147.257812 50.152344 146.722656 47.429688 146.722656 C 44.707031 146.722656 42.066406 147.257812 39.574219 148.308594 C 37.171875 149.324219 35.015625 150.78125 33.160156 152.632812 C 32.828125 152.964844 32.503906 153.3125 32.195312 153.667969 C 31.761719 154.167969 31.789062 154.925781 32.257812 155.394531 L 32.871094 156.003906 C 33.105469 156.242188 33.429688 156.375 33.761719 156.375 C 33.777344 156.375 33.792969 156.375 33.808594 156.375 C 34.160156 156.363281 34.496094 156.203125 34.726562 155.933594 C 37.925781 152.234375 42.554688 150.109375 47.429688 150.109375 C 52.304688 150.109375 56.9375 152.234375 60.136719 155.933594 C 60.367188 156.203125 60.699219 156.363281 61.050781 156.375 C 61.398438 156.386719 61.742188 156.253906 61.992188 156.003906 L 62.601562 155.394531 C 63.070312 154.925781 63.097656 154.167969 62.664062 153.671875 "/><path style=" stroke:none;fill-rule:nonzero;fill:#231f20;fill-opacity:1;" d="M 55.765625 192.347656 L 51.699219 192.347656 L 51.699219 191.71875 L 55.765625 191.71875 C 61.1875 191.71875 65.601562 187.304688 65.601562 181.882812 L 66.230469 181.882812 C 66.230469 184.679688 65.140625 187.304688 63.164062 189.28125 C 61.1875 191.257812 58.558594 192.347656 55.765625 192.347656 "/><path style=" stroke:none;fill-rule:nonzero;fill:#231f20;fill-opacity:1;" d="M 51.328125 191.070312 L 50.902344 190.695312 C 50.570312 190.402344 50.148438 190.242188 49.707031 190.242188 L 44.886719 190.242188 C 43.902344 190.242188 43.097656 191.046875 43.097656 192.03125 C 43.097656 193.019531 43.902344 193.820312 44.886719 193.820312 L 49.707031 193.820312 C 50.148438 193.820312 50.570312 193.660156 50.902344 193.371094 L 51.328125 192.996094 C 51.605469 192.753906 51.761719 192.402344 51.761719 192.03125 C 51.761719 191.664062 51.605469 191.3125 51.328125 191.070312 "/><g clip-rule="nonzero" clip-path="url(#7e3f91aecf)"><path style=" stroke:none;fill-rule:nonzero;fill:#939393;fill-opacity:1;" d="M 47.429688 134.683594 C 26.378906 134.683594 9.253906 151.808594 9.253906 172.855469 C 9.253906 186.320312 16.136719 198.53125 27.660156 205.519531 C 27.875 205.652344 28.09375 205.78125 28.304688 205.902344 C 34.089844 209.257812 40.703125 211.03125 47.429688 211.03125 C 54.15625 211.03125 60.769531 209.257812 66.554688 205.902344 C 66.765625 205.78125 66.984375 205.652344 67.199219 205.519531 C 78.722656 198.53125 85.605469 186.320312 85.605469 172.855469 C 85.605469 151.808594 68.480469 134.683594 47.429688 134.683594 Z M 47.429688 213.355469 C 43.808594 213.355469 40.214844 212.875 36.75 211.933594 C 33.390625 211.015625 30.160156 209.664062 27.140625 207.914062 C 26.914062 207.785156 26.683594 207.644531 26.453125 207.507812 C 20.609375 203.960938 15.714844 198.953125 12.304688 193.027344 C 10.574219 190.023438 9.238281 186.808594 8.335938 183.46875 C 7.402344 180.027344 6.929688 176.457031 6.929688 172.855469 C 6.929688 167.390625 8.003906 162.085938 10.113281 157.09375 C 12.152344 152.269531 15.074219 147.9375 18.792969 144.21875 C 22.511719 140.5 26.84375 137.582031 31.664062 135.539062 C 36.660156 133.429688 41.964844 132.359375 47.429688 132.359375 C 52.898438 132.359375 58.199219 133.429688 63.195312 135.539062 C 68.015625 137.582031 72.347656 140.5 76.066406 144.21875 C 79.785156 147.9375 82.707031 152.269531 84.746094 157.09375 C 86.859375 162.085938 87.929688 167.390625 87.929688 172.855469 C 87.929688 176.457031 87.457031 180.027344 86.523438 183.46875 C 85.621094 186.808594 84.285156 190.023438 82.554688 193.027344 C 79.144531 198.953125 74.253906 203.960938 68.40625 207.507812 C 68.175781 207.644531 67.945312 207.78125 67.71875 207.914062 C 64.703125 209.664062 61.46875 211.015625 58.109375 211.933594 C 54.644531 212.875 51.054688 213.355469 47.429688 213.355469 "/></g></g></svg>